M48
INCH,LZ
;FILE_FORMAT=2:4
;TYPE=PLATED
;Layer: PTH_Through
;EasyEDA v6.5.3, 2022-04-19 22:15:57
;160cfc1a8d0c4c478010f6dc8366fd90,3d704182bbbd40308880d08212c7ad4d,10
;Gerber Generator version 0.2
;Holesize 1 = 0.0120 inch
T01C0.0120
;Holesize 2 = 0.0360 inch
T02C0.0360
%
G05
G90
T01
X010000Y029050
X010450Y031950
X010750Y032550
X010700Y028100
X010700Y029350
X016050Y030250
X016450Y029150
X011400Y030000
X011000Y029750
X013550Y028400
T02
X004000Y033000
X005000Y033000
X006000Y033000
X007000Y033000
X008000Y033000
X009000Y033000
X010000Y033000
X011000Y033000
X012000Y033000
X013000Y033000
X014000Y033000
X015000Y033000
X016000Y033000
X005050Y024000
X006000Y024000
X007000Y024000
X008000Y024000
X009000Y024000
X010000Y024000
X011000Y024000
X012000Y024000
X013000Y024000
X014000Y024000
X015000Y024000
X016053Y024016
X017000Y031000
X017016Y029947
X017016Y028947
X017016Y027947
X017016Y026947
X017000Y026000
X004000Y024000
M30
