G04 Layer: TopLayer*
G04 EasyEDA v6.5.3, 2022-04-19 22:15:57*
G04 160cfc1a8d0c4c478010f6dc8366fd90,3d704182bbbd40308880d08212c7ad4d,10*
G04 Gerber Generator version 0.2*
G04 Scale: 100 percent, Rotated: No, Reflected: No *
G04 Dimensions in inches *
G04 leading zeros omitted , absolute positions ,3 integer and 6 decimal *
%FSLAX36Y36*%
%MOIN*%

%ADD10C,0.0100*%
%ADD11C,0.0177*%
%ADD12C,0.0240*%
%ADD15R,0.0510X0.0692*%
%ADD16R,0.0354X0.0315*%
%ADD17R,0.0315X0.0354*%
%ADD19R,0.0340X0.0318*%
%ADD20R,0.0542X0.0446*%
%ADD25C,0.0600*%

%LPD*%
G36*
X1645060Y2416780D02*
G01*
X1643660Y2417040D01*
X1642440Y2417760D01*
X1641540Y2418860D01*
X1639160Y2423200D01*
X1635980Y2427520D01*
X1632240Y2431380D01*
X1628020Y2434720D01*
X1621660Y2438520D01*
X1620800Y2439820D01*
X1620500Y2441340D01*
X1620500Y2489800D01*
X1620180Y2492960D01*
X1619319Y2495800D01*
X1617920Y2498440D01*
X1616040Y2500740D01*
X1613740Y2502620D01*
X1611100Y2504020D01*
X1608260Y2504880D01*
X1605100Y2505200D01*
X1352960Y2505200D01*
X1351420Y2505500D01*
X1350120Y2506380D01*
X1303860Y2552640D01*
X1303000Y2553940D01*
X1302680Y2555460D01*
X1303000Y2557000D01*
X1303860Y2558300D01*
X1305160Y2559160D01*
X1306680Y2559460D01*
X1356879Y2559460D01*
X1359379Y2559740D01*
X1361519Y2560500D01*
X1363460Y2561700D01*
X1365060Y2563320D01*
X1366279Y2565240D01*
X1366920Y2567120D01*
X1367780Y2568519D01*
X1369100Y2569460D01*
X1370700Y2569800D01*
X1432820Y2569800D01*
X1434340Y2569500D01*
X1435640Y2568620D01*
X1436500Y2567320D01*
X1436800Y2565800D01*
X1436800Y2560620D01*
X1437100Y2558120D01*
X1437840Y2555980D01*
X1439060Y2554040D01*
X1440660Y2552440D01*
X1442600Y2551220D01*
X1444740Y2550480D01*
X1447240Y2550200D01*
X1486160Y2550200D01*
X1488640Y2550480D01*
X1490800Y2551220D01*
X1492720Y2552440D01*
X1494340Y2554040D01*
X1495540Y2555980D01*
X1496300Y2558120D01*
X1496579Y2560620D01*
X1496579Y2609380D01*
X1496300Y2611880D01*
X1495540Y2614020D01*
X1494340Y2615960D01*
X1492720Y2617559D01*
X1490800Y2618780D01*
X1488640Y2619520D01*
X1486160Y2619800D01*
X1447240Y2619800D01*
X1444740Y2619520D01*
X1442600Y2618780D01*
X1440660Y2617559D01*
X1439060Y2615960D01*
X1437840Y2614020D01*
X1437100Y2611880D01*
X1436800Y2609380D01*
X1436800Y2604200D01*
X1436500Y2602660D01*
X1435640Y2601360D01*
X1434340Y2600500D01*
X1432820Y2600200D01*
X1371300Y2600200D01*
X1369780Y2600500D01*
X1368480Y2601360D01*
X1367620Y2602660D01*
X1367300Y2604200D01*
X1367300Y2611860D01*
X1367660Y2613500D01*
X1368660Y2614860D01*
X1370140Y2615680D01*
X1371100Y2615980D01*
X1373740Y2617380D01*
X1376180Y2619400D01*
X1423420Y2666620D01*
X1424720Y2667480D01*
X1426240Y2667799D01*
X1446000Y2667799D01*
X1448480Y2668080D01*
X1450640Y2668820D01*
X1452560Y2670040D01*
X1454180Y2671640D01*
X1455380Y2673580D01*
X1456220Y2675960D01*
X1457060Y2677360D01*
X1458400Y2678320D01*
X1460000Y2678639D01*
X1461600Y2678320D01*
X1462940Y2677360D01*
X1463779Y2675960D01*
X1464620Y2673580D01*
X1465820Y2671640D01*
X1467440Y2670040D01*
X1469360Y2668820D01*
X1471519Y2668080D01*
X1474000Y2667799D01*
X1505300Y2667799D01*
X1507800Y2668080D01*
X1509940Y2668820D01*
X1511879Y2670040D01*
X1513480Y2671640D01*
X1514700Y2673580D01*
X1515460Y2675720D01*
X1515740Y2678220D01*
X1515740Y2697919D01*
X1516040Y2699440D01*
X1516900Y2700740D01*
X1555600Y2739460D01*
X1557620Y2741900D01*
X1559019Y2744540D01*
X1559880Y2747380D01*
X1560200Y2750539D01*
X1560200Y2802040D01*
X1560500Y2803580D01*
X1561380Y2804880D01*
X1562680Y2806180D01*
X1563980Y2807060D01*
X1565520Y2807360D01*
X1573540Y2807360D01*
X1575140Y2807020D01*
X1576480Y2806080D01*
X1577320Y2804680D01*
X1578120Y2802400D01*
X1579319Y2800460D01*
X1580940Y2798860D01*
X1581680Y2798380D01*
X1582840Y2797280D01*
X1583480Y2795800D01*
X1583480Y2794200D01*
X1582840Y2792720D01*
X1581680Y2791620D01*
X1580940Y2791139D01*
X1579319Y2789540D01*
X1578120Y2787600D01*
X1577360Y2785460D01*
X1577080Y2782960D01*
X1577080Y2751920D01*
X1577360Y2749440D01*
X1578120Y2747280D01*
X1579319Y2745360D01*
X1580940Y2743740D01*
X1582860Y2742520D01*
X1585020Y2741780D01*
X1586240Y2741640D01*
X1587640Y2741220D01*
X1588779Y2740320D01*
X1589540Y2739100D01*
X1589800Y2737660D01*
X1589800Y2635200D01*
X1590120Y2632040D01*
X1590980Y2629200D01*
X1592380Y2626560D01*
X1594400Y2624120D01*
X1629120Y2589400D01*
X1631560Y2587380D01*
X1634199Y2585980D01*
X1637040Y2585120D01*
X1640200Y2584800D01*
X1660240Y2584800D01*
X1661759Y2584500D01*
X1663060Y2583639D01*
X1666860Y2577260D01*
X1670200Y2573039D01*
X1674060Y2569300D01*
X1678380Y2566120D01*
X1683080Y2563540D01*
X1688100Y2561620D01*
X1693320Y2560360D01*
X1698660Y2559840D01*
X1704019Y2560020D01*
X1709319Y2560899D01*
X1714440Y2562500D01*
X1719319Y2564760D01*
X1723839Y2567640D01*
X1727940Y2571100D01*
X1731540Y2575100D01*
X1734580Y2579520D01*
X1737020Y2584360D01*
X1737840Y2585740D01*
X1739120Y2586680D01*
X1740660Y2587060D01*
X1742240Y2586780D01*
X1743580Y2585920D01*
X1744480Y2584620D01*
X1744800Y2583060D01*
X1744800Y2420780D01*
X1744500Y2419240D01*
X1743620Y2417960D01*
X1742340Y2417080D01*
X1740800Y2416780D01*
G37*

%LPC*%
G36*
X1533839Y2550200D02*
G01*
X1540960Y2550200D01*
X1540960Y2570200D01*
X1523420Y2570200D01*
X1523420Y2560620D01*
X1523700Y2558120D01*
X1524460Y2555980D01*
X1525660Y2554040D01*
X1527280Y2552440D01*
X1529199Y2551220D01*
X1531360Y2550480D01*
G37*
G36*
X1565660Y2550200D02*
G01*
X1572760Y2550200D01*
X1575260Y2550480D01*
X1577400Y2551220D01*
X1579340Y2552440D01*
X1580940Y2554040D01*
X1582160Y2555980D01*
X1582920Y2558120D01*
X1583200Y2560620D01*
X1583200Y2570200D01*
X1565660Y2570200D01*
G37*
G36*
X1565660Y2599800D02*
G01*
X1583200Y2599800D01*
X1583200Y2609380D01*
X1582920Y2611880D01*
X1582160Y2614020D01*
X1580940Y2615960D01*
X1579340Y2617559D01*
X1577400Y2618780D01*
X1575260Y2619520D01*
X1572760Y2619800D01*
X1565660Y2619800D01*
G37*
G36*
X1523420Y2599800D02*
G01*
X1540960Y2599800D01*
X1540960Y2619800D01*
X1533839Y2619800D01*
X1531360Y2619520D01*
X1529199Y2618780D01*
X1527280Y2617559D01*
X1525660Y2615960D01*
X1524460Y2614020D01*
X1523700Y2611880D01*
X1523420Y2609380D01*
G37*

%LPD*%
G36*
X214200Y2360200D02*
G01*
X212659Y2360500D01*
X211380Y2361380D01*
X210500Y2362660D01*
X210200Y2364200D01*
X210200Y3335760D01*
X210500Y3337300D01*
X211380Y3338600D01*
X212680Y3339460D01*
X214200Y3339760D01*
X373700Y3339420D01*
X375300Y3339080D01*
X376640Y3338140D01*
X377480Y3336720D01*
X377680Y3335100D01*
X377220Y3333540D01*
X376180Y3332280D01*
X373040Y3329800D01*
X369300Y3325940D01*
X366120Y3321620D01*
X363540Y3316920D01*
X361620Y3311900D01*
X360360Y3306680D01*
X359840Y3301340D01*
X360020Y3295980D01*
X360900Y3290680D01*
X362500Y3285560D01*
X364760Y3280680D01*
X367640Y3276160D01*
X371100Y3272060D01*
X375100Y3268460D01*
X379520Y3265419D01*
X384300Y3263000D01*
X389380Y3261240D01*
X394640Y3260160D01*
X400000Y3259800D01*
X405360Y3260160D01*
X410620Y3261240D01*
X413180Y3262120D01*
X414660Y3262340D01*
X416100Y3262020D01*
X417320Y3261180D01*
X434120Y3244400D01*
X436560Y3242380D01*
X439200Y3240980D01*
X442040Y3240120D01*
X445200Y3239800D01*
X482040Y3239800D01*
X483579Y3239500D01*
X484880Y3238620D01*
X486480Y3237020D01*
X487340Y3235740D01*
X487640Y3234200D01*
X487340Y3232660D01*
X486480Y3231380D01*
X485180Y3230500D01*
X483640Y3230200D01*
X365200Y3230200D01*
X362040Y3229880D01*
X359200Y3229020D01*
X356560Y3227620D01*
X354120Y3225600D01*
X324400Y3195880D01*
X322380Y3193440D01*
X320980Y3190800D01*
X320120Y3187960D01*
X319800Y3184800D01*
X319800Y3135200D01*
X320120Y3132040D01*
X320980Y3129200D01*
X322380Y3126560D01*
X324400Y3124120D01*
X423560Y3024940D01*
X426019Y3022919D01*
X428640Y3021520D01*
X431480Y3020659D01*
X434640Y3020340D01*
X519780Y3020340D01*
X521300Y3020040D01*
X522600Y3019180D01*
X523480Y3017880D01*
X523780Y3016340D01*
X523780Y3015100D01*
X524060Y3012620D01*
X524800Y3010460D01*
X526020Y3008540D01*
X527640Y3006920D01*
X529560Y3005720D01*
X531720Y3004960D01*
X534200Y3004680D01*
X630800Y3004680D01*
X633280Y3004960D01*
X635440Y3005720D01*
X637360Y3006920D01*
X638980Y3008540D01*
X640200Y3010460D01*
X640939Y3012620D01*
X641220Y3015100D01*
X641220Y3056000D01*
X640939Y3058480D01*
X640200Y3060640D01*
X638980Y3062559D01*
X637360Y3064180D01*
X635440Y3065380D01*
X633280Y3066139D01*
X630800Y3066420D01*
X534200Y3066420D01*
X531720Y3066139D01*
X529560Y3065380D01*
X527640Y3064180D01*
X526020Y3062559D01*
X524800Y3060640D01*
X524060Y3058480D01*
X523780Y3056000D01*
X523780Y3054740D01*
X523480Y3053220D01*
X522600Y3051920D01*
X521300Y3051060D01*
X519780Y3050740D01*
X442400Y3050740D01*
X440880Y3051060D01*
X439580Y3051920D01*
X351380Y3140120D01*
X350500Y3141420D01*
X350200Y3142960D01*
X350200Y3177040D01*
X350500Y3178580D01*
X351380Y3179880D01*
X370120Y3198620D01*
X371420Y3199500D01*
X372960Y3199800D01*
X492040Y3199800D01*
X493579Y3199500D01*
X494880Y3198620D01*
X520420Y3173080D01*
X521280Y3171780D01*
X521599Y3170260D01*
X521599Y3124720D01*
X521880Y3122220D01*
X522620Y3120080D01*
X523840Y3118140D01*
X525440Y3116540D01*
X527380Y3115320D01*
X529520Y3114560D01*
X532020Y3114280D01*
X600760Y3114280D01*
X603240Y3114560D01*
X605400Y3115320D01*
X607320Y3116540D01*
X608940Y3118140D01*
X610160Y3120080D01*
X610900Y3122220D01*
X611180Y3124720D01*
X611180Y3175280D01*
X610900Y3177780D01*
X610160Y3179920D01*
X608940Y3181860D01*
X607320Y3183460D01*
X605400Y3184680D01*
X603240Y3185440D01*
X600760Y3185720D01*
X552440Y3185720D01*
X550920Y3186019D01*
X549620Y3186880D01*
X538520Y3197980D01*
X537660Y3199260D01*
X537360Y3200800D01*
X537660Y3202340D01*
X538520Y3203620D01*
X539820Y3204500D01*
X541360Y3204800D01*
X602040Y3204800D01*
X603580Y3204500D01*
X604880Y3203620D01*
X724080Y3084420D01*
X724960Y3083120D01*
X725260Y3081600D01*
X725260Y3056180D01*
X745720Y3056180D01*
X745720Y3060820D01*
X746060Y3062440D01*
X747020Y3063800D01*
X748460Y3064620D01*
X750200Y3064800D01*
X777039Y3064800D01*
X778580Y3064500D01*
X779880Y3063620D01*
X885380Y2958140D01*
X887820Y2956120D01*
X890460Y2954720D01*
X893300Y2953860D01*
X896460Y2953540D01*
X899980Y2953540D01*
X901640Y2953180D01*
X903000Y2952180D01*
X903820Y2950700D01*
X903960Y2949020D01*
X903379Y2947440D01*
X902340Y2945740D01*
X901720Y2944180D01*
X924260Y2944180D01*
X924260Y2945680D01*
X924560Y2947220D01*
X925440Y2948500D01*
X926720Y2949380D01*
X928259Y2949680D01*
X957740Y2949680D01*
X959280Y2949380D01*
X960560Y2948500D01*
X961440Y2947220D01*
X961740Y2945680D01*
X961740Y2944180D01*
X984280Y2944180D01*
X983660Y2945740D01*
X981820Y2948720D01*
X980380Y2950299D01*
X979599Y2951540D01*
X979340Y2953000D01*
X979599Y2954440D01*
X980380Y2955680D01*
X981820Y2957260D01*
X983660Y2960260D01*
X984940Y2963519D01*
X985580Y2966980D01*
X985580Y2970500D01*
X984940Y2973960D01*
X983660Y2977220D01*
X981820Y2980220D01*
X980380Y2981800D01*
X979599Y2983039D01*
X979340Y2984480D01*
X979599Y2985940D01*
X980380Y2987180D01*
X981820Y2988759D01*
X983660Y2991740D01*
X984940Y2995020D01*
X985580Y2998480D01*
X985580Y3002000D01*
X984940Y3005440D01*
X983660Y3008720D01*
X981820Y3011720D01*
X979460Y3014300D01*
X976640Y3016420D01*
X973500Y3018000D01*
X970120Y3018960D01*
X966440Y3019300D01*
X919560Y3019300D01*
X915879Y3018960D01*
X912500Y3018000D01*
X907980Y3015640D01*
X906700Y3015440D01*
X902720Y3015440D01*
X901180Y3015740D01*
X899880Y3016620D01*
X876020Y3040480D01*
X875160Y3041760D01*
X874860Y3043300D01*
X875160Y3044840D01*
X876020Y3046120D01*
X877320Y3047000D01*
X878860Y3047300D01*
X981700Y3047300D01*
X983240Y3047000D01*
X984539Y3046120D01*
X985400Y3044840D01*
X985699Y3043300D01*
X985699Y3039060D01*
X986040Y3035380D01*
X987000Y3032000D01*
X988580Y3028860D01*
X990699Y3026040D01*
X993280Y3023680D01*
X996280Y3021840D01*
X999560Y3020560D01*
X1003000Y3019920D01*
X1006520Y3019920D01*
X1009980Y3020560D01*
X1013259Y3021840D01*
X1016240Y3023680D01*
X1017099Y3024460D01*
X1018480Y3025280D01*
X1020080Y3025500D01*
X1021640Y3025059D01*
X1022880Y3024040D01*
X1024260Y3022360D01*
X1026560Y3020480D01*
X1029200Y3019080D01*
X1032039Y3018220D01*
X1034920Y3017919D01*
X1036320Y3017520D01*
X1037480Y3016640D01*
X1038259Y3015380D01*
X1038520Y3013940D01*
X1038520Y2951480D01*
X1038840Y2948320D01*
X1039700Y2945460D01*
X1041100Y2942840D01*
X1043120Y2940400D01*
X1046720Y2936780D01*
X1047520Y2935640D01*
X1047880Y2934300D01*
X1048160Y2931139D01*
X1049160Y2927420D01*
X1050780Y2923900D01*
X1053000Y2920740D01*
X1055740Y2918000D01*
X1058900Y2915779D01*
X1062420Y2914160D01*
X1066140Y2913159D01*
X1070000Y2912820D01*
X1073860Y2913159D01*
X1077580Y2914160D01*
X1081100Y2915779D01*
X1084260Y2918000D01*
X1087000Y2920740D01*
X1089220Y2923900D01*
X1090840Y2927420D01*
X1091840Y2931139D01*
X1092180Y2935000D01*
X1091840Y2938860D01*
X1090840Y2942580D01*
X1089220Y2946100D01*
X1087820Y2948060D01*
X1087180Y2949560D01*
X1087180Y2951180D01*
X1087820Y2952660D01*
X1089000Y2953759D01*
X1090520Y2954320D01*
X1092140Y2954220D01*
X1096140Y2953159D01*
X1100000Y2952820D01*
X1103860Y2953159D01*
X1107580Y2954160D01*
X1111100Y2955779D01*
X1114260Y2958000D01*
X1117000Y2960740D01*
X1119220Y2963900D01*
X1120840Y2967420D01*
X1121840Y2971139D01*
X1122180Y2975000D01*
X1121960Y2977640D01*
X1122100Y2979140D01*
X1122800Y2980460D01*
X1123940Y2981440D01*
X1125360Y2981940D01*
X1126860Y2981880D01*
X1128240Y2981259D01*
X1128900Y2980779D01*
X1132420Y2979160D01*
X1136140Y2978159D01*
X1140000Y2977820D01*
X1143860Y2978159D01*
X1147580Y2979160D01*
X1151100Y2980779D01*
X1154260Y2983000D01*
X1157000Y2985740D01*
X1159220Y2988900D01*
X1160840Y2992420D01*
X1161840Y2996139D01*
X1162180Y3000000D01*
X1161840Y3003860D01*
X1160840Y3007580D01*
X1159220Y3011100D01*
X1157440Y3013620D01*
X1156780Y3015220D01*
X1156860Y3016960D01*
X1157660Y3018480D01*
X1159020Y3019540D01*
X1160720Y3019920D01*
X1164000Y3019920D01*
X1167460Y3020560D01*
X1170740Y3021840D01*
X1173720Y3023680D01*
X1175300Y3025120D01*
X1176540Y3025899D01*
X1178000Y3026160D01*
X1179440Y3025899D01*
X1180680Y3025120D01*
X1182260Y3023680D01*
X1185260Y3021840D01*
X1188520Y3020560D01*
X1191980Y3019920D01*
X1195500Y3019920D01*
X1198960Y3020560D01*
X1202220Y3021840D01*
X1205220Y3023680D01*
X1206800Y3025120D01*
X1208040Y3025899D01*
X1209480Y3026160D01*
X1210940Y3025899D01*
X1212180Y3025120D01*
X1213760Y3023680D01*
X1216740Y3021840D01*
X1220020Y3020560D01*
X1223480Y3019920D01*
X1227000Y3019920D01*
X1230440Y3020560D01*
X1233720Y3021840D01*
X1236720Y3023680D01*
X1239300Y3026040D01*
X1241420Y3028860D01*
X1243000Y3032000D01*
X1243960Y3035380D01*
X1244300Y3039060D01*
X1244300Y3085940D01*
X1243960Y3089620D01*
X1243000Y3093000D01*
X1240640Y3097520D01*
X1240440Y3098800D01*
X1240440Y3104560D01*
X1240120Y3107720D01*
X1239600Y3109460D01*
X1239480Y3111220D01*
X1240100Y3112840D01*
X1241380Y3114060D01*
X1243040Y3114600D01*
X1244780Y3114400D01*
X1246260Y3113460D01*
X1259000Y3100720D01*
X1260940Y3099160D01*
X1263000Y3098159D01*
X1265220Y3097660D01*
X1267500Y3097660D01*
X1269720Y3098159D01*
X1271780Y3099160D01*
X1273740Y3100720D01*
X1301260Y3128240D01*
X1302820Y3130200D01*
X1303800Y3132260D01*
X1304319Y3134480D01*
X1304319Y3136760D01*
X1303800Y3138980D01*
X1302820Y3141019D01*
X1301260Y3142980D01*
X1254240Y3190000D01*
X1252280Y3191560D01*
X1250240Y3192540D01*
X1248020Y3193039D01*
X1245740Y3193039D01*
X1243520Y3192540D01*
X1241460Y3191560D01*
X1239500Y3190000D01*
X1222020Y3172520D01*
X1220740Y3171640D01*
X1219200Y3171340D01*
X1217660Y3171640D01*
X1216380Y3172520D01*
X1215500Y3173820D01*
X1215200Y3175340D01*
X1215200Y3260280D01*
X1215460Y3261720D01*
X1216240Y3262980D01*
X1217400Y3263860D01*
X1220480Y3265419D01*
X1224900Y3268460D01*
X1228900Y3272060D01*
X1232360Y3276160D01*
X1235240Y3280680D01*
X1237500Y3285560D01*
X1239100Y3290680D01*
X1239980Y3295980D01*
X1240160Y3301340D01*
X1239640Y3306680D01*
X1238380Y3311900D01*
X1236460Y3316920D01*
X1233880Y3321620D01*
X1230700Y3325940D01*
X1226960Y3329800D01*
X1226180Y3330419D01*
X1225140Y3331680D01*
X1224680Y3333240D01*
X1224880Y3334880D01*
X1225740Y3336280D01*
X1227080Y3337220D01*
X1228680Y3337559D01*
X1271220Y3337460D01*
X1272820Y3337120D01*
X1274160Y3336180D01*
X1275000Y3334780D01*
X1275200Y3333140D01*
X1274740Y3331580D01*
X1273700Y3330320D01*
X1273040Y3329800D01*
X1269300Y3325940D01*
X1266120Y3321620D01*
X1263540Y3316920D01*
X1261620Y3311900D01*
X1260360Y3306680D01*
X1259840Y3301340D01*
X1260020Y3295980D01*
X1260900Y3290680D01*
X1262500Y3285560D01*
X1264760Y3280680D01*
X1267640Y3276160D01*
X1271100Y3272060D01*
X1275100Y3268460D01*
X1279520Y3265419D01*
X1282600Y3263860D01*
X1283760Y3262980D01*
X1284540Y3261720D01*
X1284800Y3260280D01*
X1284800Y3225200D01*
X1285120Y3222040D01*
X1285980Y3219200D01*
X1287380Y3216560D01*
X1289400Y3214120D01*
X1313620Y3189880D01*
X1314500Y3188580D01*
X1314800Y3187040D01*
X1314800Y3051200D01*
X1314500Y3049660D01*
X1313620Y3048360D01*
X1285740Y3020460D01*
X1284440Y3019600D01*
X1282900Y3019300D01*
X1263560Y3019300D01*
X1259880Y3018960D01*
X1256500Y3018000D01*
X1253360Y3016420D01*
X1250540Y3014300D01*
X1248180Y3011720D01*
X1246340Y3008720D01*
X1245060Y3005440D01*
X1244420Y3002000D01*
X1244420Y2998480D01*
X1245060Y2995020D01*
X1246340Y2991740D01*
X1248180Y2988759D01*
X1249620Y2987180D01*
X1250400Y2985940D01*
X1250660Y2984480D01*
X1250400Y2983039D01*
X1249620Y2981800D01*
X1248180Y2980220D01*
X1246340Y2977220D01*
X1245060Y2973960D01*
X1244420Y2970500D01*
X1244420Y2966980D01*
X1245060Y2963519D01*
X1246340Y2960260D01*
X1248180Y2957260D01*
X1249620Y2955680D01*
X1250400Y2954440D01*
X1250660Y2953000D01*
X1250400Y2951540D01*
X1249620Y2950299D01*
X1248180Y2948720D01*
X1246340Y2945740D01*
X1245060Y2942460D01*
X1244420Y2939000D01*
X1244420Y2935480D01*
X1245060Y2932040D01*
X1246340Y2928759D01*
X1248180Y2925760D01*
X1249620Y2924200D01*
X1250400Y2922940D01*
X1250660Y2921500D01*
X1250400Y2920059D01*
X1249620Y2918800D01*
X1248180Y2917220D01*
X1246340Y2914240D01*
X1245720Y2912679D01*
X1268260Y2912679D01*
X1268260Y2914180D01*
X1268560Y2915720D01*
X1269440Y2917020D01*
X1270720Y2917880D01*
X1272260Y2918180D01*
X1301740Y2918180D01*
X1303280Y2917880D01*
X1304560Y2917020D01*
X1305440Y2915720D01*
X1305740Y2914180D01*
X1305740Y2912679D01*
X1328280Y2912679D01*
X1327660Y2914240D01*
X1325820Y2917220D01*
X1324700Y2918440D01*
X1323820Y2920000D01*
X1323700Y2921760D01*
X1324360Y2923399D01*
X1325660Y2924620D01*
X1328120Y2926640D01*
X1510600Y3109120D01*
X1512620Y3111560D01*
X1514019Y3114200D01*
X1514880Y3117040D01*
X1515200Y3120200D01*
X1515200Y3260280D01*
X1515460Y3261720D01*
X1516240Y3262980D01*
X1517400Y3263860D01*
X1520480Y3265419D01*
X1524900Y3268460D01*
X1528899Y3272060D01*
X1532360Y3276160D01*
X1535240Y3280680D01*
X1537500Y3285560D01*
X1539100Y3290680D01*
X1539980Y3295980D01*
X1540160Y3301340D01*
X1539640Y3306680D01*
X1538380Y3311900D01*
X1536459Y3316920D01*
X1533880Y3321620D01*
X1530700Y3325940D01*
X1526639Y3330100D01*
X1525780Y3331400D01*
X1525500Y3332940D01*
X1525820Y3334460D01*
X1526680Y3335740D01*
X1527980Y3336600D01*
X1529500Y3336900D01*
X1570400Y3336820D01*
X1571920Y3336500D01*
X1573200Y3335659D01*
X1574079Y3334360D01*
X1574379Y3332860D01*
X1574100Y3331320D01*
X1573260Y3330020D01*
X1569300Y3325940D01*
X1566120Y3321620D01*
X1563860Y3317500D01*
X1582500Y3317500D01*
X1582500Y3332780D01*
X1582800Y3334300D01*
X1583680Y3335600D01*
X1584980Y3336480D01*
X1586500Y3336780D01*
X1613500Y3336720D01*
X1615040Y3336420D01*
X1616339Y3335539D01*
X1617200Y3334240D01*
X1617500Y3332720D01*
X1617500Y3317500D01*
X1636140Y3317500D01*
X1633880Y3321620D01*
X1630700Y3325940D01*
X1626860Y3329900D01*
X1626020Y3331200D01*
X1625740Y3332720D01*
X1626060Y3334240D01*
X1626940Y3335539D01*
X1628240Y3336380D01*
X1629760Y3336680D01*
X1790740Y3336340D01*
X1792280Y3336019D01*
X1793560Y3335140D01*
X1794440Y3333840D01*
X1794720Y3332320D01*
X1789880Y2364180D01*
X1789560Y2362660D01*
X1788700Y2361360D01*
X1787400Y2360500D01*
X1785880Y2360200D01*
X1628760Y2360200D01*
X1627120Y2360560D01*
X1625760Y2361560D01*
X1624940Y2363020D01*
X1624780Y2364680D01*
X1625340Y2366280D01*
X1626500Y2367500D01*
X1630200Y2370040D01*
X1634180Y2373640D01*
X1637640Y2377740D01*
X1640520Y2382260D01*
X1641360Y2384060D01*
X1642240Y2385280D01*
X1643520Y2386100D01*
X1645000Y2386380D01*
X1756380Y2386380D01*
X1759540Y2386700D01*
X1762380Y2387560D01*
X1765020Y2388960D01*
X1767460Y2390980D01*
X1770600Y2394120D01*
X1772620Y2396560D01*
X1774019Y2399200D01*
X1774880Y2402040D01*
X1775200Y2405200D01*
X1775200Y2836100D01*
X1774880Y2839260D01*
X1774019Y2842100D01*
X1772620Y2844740D01*
X1770600Y2847180D01*
X1740400Y2877400D01*
X1739560Y2878620D01*
X1739240Y2880059D01*
X1739460Y2881540D01*
X1740340Y2884100D01*
X1741420Y2889360D01*
X1741780Y2894720D01*
X1741420Y2900080D01*
X1740340Y2905340D01*
X1738580Y2910400D01*
X1736160Y2915200D01*
X1733120Y2919620D01*
X1729520Y2923600D01*
X1725420Y2927080D01*
X1720900Y2929960D01*
X1716020Y2932220D01*
X1710900Y2933820D01*
X1705600Y2934700D01*
X1700240Y2934880D01*
X1694900Y2934340D01*
X1689680Y2933100D01*
X1684660Y2931180D01*
X1679960Y2928600D01*
X1675640Y2925400D01*
X1672020Y2921920D01*
X1670740Y2921080D01*
X1669259Y2920779D01*
X1667780Y2921060D01*
X1666500Y2921880D01*
X1665600Y2923100D01*
X1664220Y2926100D01*
X1662000Y2929260D01*
X1659259Y2932000D01*
X1656100Y2934220D01*
X1652580Y2935840D01*
X1648860Y2936840D01*
X1645000Y2937180D01*
X1641140Y2936840D01*
X1637420Y2935840D01*
X1633899Y2934220D01*
X1630740Y2932000D01*
X1628000Y2929260D01*
X1625780Y2926100D01*
X1624160Y2922580D01*
X1623160Y2918860D01*
X1622880Y2915700D01*
X1622520Y2914360D01*
X1621720Y2913220D01*
X1594400Y2885880D01*
X1592380Y2883440D01*
X1590980Y2880800D01*
X1590120Y2877960D01*
X1589800Y2874800D01*
X1589800Y2852340D01*
X1589540Y2850899D01*
X1588779Y2849680D01*
X1587640Y2848780D01*
X1586240Y2848360D01*
X1585020Y2848220D01*
X1582860Y2847480D01*
X1580940Y2846259D01*
X1579319Y2844640D01*
X1578120Y2842720D01*
X1577320Y2840440D01*
X1576480Y2839040D01*
X1575140Y2838100D01*
X1573540Y2837760D01*
X1557760Y2837760D01*
X1554600Y2837440D01*
X1551759Y2836580D01*
X1549120Y2835179D01*
X1546680Y2833159D01*
X1534400Y2820880D01*
X1532380Y2818440D01*
X1530980Y2815800D01*
X1530120Y2812960D01*
X1529800Y2809800D01*
X1529800Y2758300D01*
X1529500Y2756760D01*
X1528620Y2755460D01*
X1496540Y2723380D01*
X1495240Y2722520D01*
X1493720Y2722200D01*
X1474000Y2722200D01*
X1471519Y2721920D01*
X1469360Y2721180D01*
X1467440Y2719960D01*
X1465820Y2718360D01*
X1464620Y2716420D01*
X1463779Y2714040D01*
X1462940Y2712640D01*
X1461600Y2711680D01*
X1460000Y2711360D01*
X1458400Y2711680D01*
X1457060Y2712640D01*
X1456220Y2714040D01*
X1455380Y2716420D01*
X1454180Y2718360D01*
X1452560Y2719960D01*
X1450640Y2721180D01*
X1448220Y2722020D01*
X1446819Y2722860D01*
X1445880Y2724200D01*
X1445540Y2725800D01*
X1445540Y2743240D01*
X1445800Y2744660D01*
X1446560Y2745899D01*
X1447700Y2746780D01*
X1449100Y2747220D01*
X1450460Y2747360D01*
X1452600Y2748120D01*
X1454540Y2749320D01*
X1456140Y2750940D01*
X1456620Y2751680D01*
X1457720Y2752840D01*
X1459199Y2753480D01*
X1460800Y2753480D01*
X1462280Y2752840D01*
X1463380Y2751680D01*
X1463860Y2750940D01*
X1465460Y2749320D01*
X1467400Y2748120D01*
X1469540Y2747360D01*
X1472040Y2747080D01*
X1477180Y2747080D01*
X1477180Y2763639D01*
X1462400Y2763639D01*
X1460860Y2763940D01*
X1459560Y2764820D01*
X1458700Y2766120D01*
X1458400Y2767640D01*
X1458400Y2782360D01*
X1458700Y2783880D01*
X1459560Y2785179D01*
X1460860Y2786060D01*
X1462400Y2786360D01*
X1477180Y2786360D01*
X1477180Y2802919D01*
X1472040Y2802919D01*
X1469540Y2802640D01*
X1467400Y2801880D01*
X1465460Y2800680D01*
X1463860Y2799060D01*
X1463380Y2798320D01*
X1462280Y2797160D01*
X1460800Y2796520D01*
X1459199Y2796520D01*
X1457720Y2797160D01*
X1456620Y2798320D01*
X1456140Y2799060D01*
X1454540Y2800680D01*
X1452600Y2801880D01*
X1450460Y2802640D01*
X1447960Y2802919D01*
X1427680Y2802919D01*
X1426140Y2803220D01*
X1424840Y2804080D01*
X1407060Y2821860D01*
X1406480Y2822360D01*
X1405540Y2823560D01*
X1404860Y2823740D01*
X1401980Y2825280D01*
X1399139Y2826139D01*
X1395980Y2826460D01*
X1379340Y2826460D01*
X1377780Y2826780D01*
X1376480Y2827679D01*
X1375620Y2829020D01*
X1375360Y2830600D01*
X1376840Y2836139D01*
X1377180Y2840000D01*
X1376840Y2843860D01*
X1375840Y2847580D01*
X1374220Y2851100D01*
X1373040Y2852760D01*
X1372380Y2854360D01*
X1372460Y2856080D01*
X1373260Y2857620D01*
X1374640Y2858680D01*
X1376320Y2859040D01*
X1402500Y2859040D01*
X1404019Y2858740D01*
X1405320Y2857880D01*
X1406200Y2856580D01*
X1406500Y2855040D01*
X1406500Y2837500D01*
X1406780Y2835020D01*
X1407520Y2832860D01*
X1408740Y2830940D01*
X1409580Y2830100D01*
X1410180Y2829180D01*
X1411140Y2828840D01*
X1412280Y2828120D01*
X1414440Y2827360D01*
X1416920Y2827080D01*
X1447960Y2827080D01*
X1450460Y2827360D01*
X1452600Y2828120D01*
X1454540Y2829320D01*
X1456140Y2830940D01*
X1456620Y2831680D01*
X1457720Y2832840D01*
X1459199Y2833480D01*
X1460800Y2833480D01*
X1462280Y2832840D01*
X1463380Y2831680D01*
X1463860Y2830940D01*
X1465460Y2829320D01*
X1467400Y2828120D01*
X1469540Y2827360D01*
X1472040Y2827080D01*
X1477180Y2827080D01*
X1477180Y2843639D01*
X1462400Y2843639D01*
X1460860Y2843940D01*
X1459560Y2844820D01*
X1458700Y2846120D01*
X1458400Y2847640D01*
X1458400Y2862360D01*
X1458700Y2863880D01*
X1459560Y2865179D01*
X1460860Y2866060D01*
X1462400Y2866360D01*
X1477180Y2866360D01*
X1477180Y2882919D01*
X1472040Y2882919D01*
X1469540Y2882640D01*
X1467400Y2881880D01*
X1465460Y2880680D01*
X1463860Y2879060D01*
X1463380Y2878320D01*
X1462280Y2877160D01*
X1460800Y2876520D01*
X1459199Y2876520D01*
X1457720Y2877160D01*
X1456620Y2878320D01*
X1456140Y2879060D01*
X1454540Y2880680D01*
X1452600Y2881880D01*
X1450460Y2882640D01*
X1447960Y2882919D01*
X1427680Y2882919D01*
X1426140Y2883220D01*
X1424840Y2884080D01*
X1424079Y2884860D01*
X1421620Y2886880D01*
X1419000Y2888279D01*
X1416160Y2889140D01*
X1413000Y2889440D01*
X1330020Y2889440D01*
X1328360Y2889800D01*
X1327000Y2890820D01*
X1326180Y2892280D01*
X1326040Y2893960D01*
X1326620Y2895560D01*
X1327660Y2897260D01*
X1328280Y2898820D01*
X1305740Y2898820D01*
X1305740Y2897320D01*
X1305440Y2895779D01*
X1304560Y2894480D01*
X1303280Y2893620D01*
X1301740Y2893320D01*
X1272260Y2893320D01*
X1270720Y2893620D01*
X1269440Y2894480D01*
X1268560Y2895779D01*
X1268260Y2897320D01*
X1268260Y2898820D01*
X1245720Y2898820D01*
X1246340Y2897260D01*
X1248180Y2894280D01*
X1249620Y2892700D01*
X1250400Y2891440D01*
X1250660Y2890000D01*
X1250400Y2888560D01*
X1249620Y2887300D01*
X1248180Y2885720D01*
X1246340Y2882740D01*
X1245060Y2879460D01*
X1244420Y2876000D01*
X1244420Y2872500D01*
X1245060Y2869040D01*
X1246340Y2865760D01*
X1248180Y2862780D01*
X1249620Y2861200D01*
X1250400Y2859940D01*
X1250660Y2858500D01*
X1250400Y2857060D01*
X1249620Y2855800D01*
X1248180Y2854240D01*
X1246340Y2851240D01*
X1245060Y2847960D01*
X1244420Y2844520D01*
X1244420Y2841000D01*
X1245060Y2837540D01*
X1246100Y2834900D01*
X1246360Y2833380D01*
X1246040Y2831860D01*
X1245160Y2830600D01*
X1243880Y2829740D01*
X1242360Y2829440D01*
X1131700Y2829440D01*
X1130160Y2829760D01*
X1128860Y2830620D01*
X1103120Y2856360D01*
X1100680Y2858380D01*
X1098040Y2859780D01*
X1095200Y2860640D01*
X1092040Y2860940D01*
X987640Y2860940D01*
X986120Y2861240D01*
X984840Y2862100D01*
X983960Y2863360D01*
X983640Y2864880D01*
X983920Y2866400D01*
X984280Y2867320D01*
X961740Y2867320D01*
X961740Y2865820D01*
X961440Y2864280D01*
X960560Y2862980D01*
X959280Y2862120D01*
X957740Y2861820D01*
X928259Y2861820D01*
X926720Y2862120D01*
X925440Y2862980D01*
X924560Y2864280D01*
X924260Y2865820D01*
X924260Y2867320D01*
X901720Y2867320D01*
X902340Y2865760D01*
X904180Y2862780D01*
X905620Y2861200D01*
X906400Y2859940D01*
X906660Y2858500D01*
X906400Y2857060D01*
X905620Y2855800D01*
X904180Y2854240D01*
X902340Y2851240D01*
X901060Y2847960D01*
X900420Y2844520D01*
X900420Y2841000D01*
X901060Y2837540D01*
X902340Y2834260D01*
X903379Y2832559D01*
X903960Y2830980D01*
X903820Y2829300D01*
X903000Y2827820D01*
X901640Y2826820D01*
X899980Y2826460D01*
X870320Y2826460D01*
X867159Y2826139D01*
X864320Y2825280D01*
X861680Y2823880D01*
X859240Y2821860D01*
X851820Y2814460D01*
X850520Y2813580D01*
X848980Y2813279D01*
X829880Y2813279D01*
X828340Y2813580D01*
X827039Y2814460D01*
X805879Y2835600D01*
X803439Y2837620D01*
X800800Y2839020D01*
X797960Y2839880D01*
X794800Y2840200D01*
X695200Y2840200D01*
X692039Y2839880D01*
X689200Y2839020D01*
X686560Y2837620D01*
X684120Y2835600D01*
X629400Y2780880D01*
X627380Y2778440D01*
X625980Y2775800D01*
X625120Y2772960D01*
X624800Y2769800D01*
X624800Y2609200D01*
X624500Y2607660D01*
X623620Y2606380D01*
X622340Y2605500D01*
X620800Y2605200D01*
X616920Y2605200D01*
X615560Y2605440D01*
X614360Y2606120D01*
X613460Y2607180D01*
X595820Y2607180D01*
X594920Y2606120D01*
X593720Y2605440D01*
X592360Y2605200D01*
X577640Y2605200D01*
X576280Y2605440D01*
X575080Y2606120D01*
X574180Y2607180D01*
X556540Y2607180D01*
X555640Y2606120D01*
X554440Y2605440D01*
X553080Y2605200D01*
X491920Y2605200D01*
X490560Y2605440D01*
X489360Y2606120D01*
X488459Y2607180D01*
X471360Y2607180D01*
X471360Y2596920D01*
X471060Y2595380D01*
X470180Y2594080D01*
X465660Y2589560D01*
X464380Y2588700D01*
X462840Y2588399D01*
X452640Y2588399D01*
X451120Y2588700D01*
X449820Y2589560D01*
X448940Y2590860D01*
X448640Y2592400D01*
X448640Y2607180D01*
X432080Y2607180D01*
X432080Y2602040D01*
X432360Y2599540D01*
X433120Y2597400D01*
X434320Y2595460D01*
X435940Y2593860D01*
X436680Y2593380D01*
X437840Y2592280D01*
X438480Y2590800D01*
X438480Y2589200D01*
X437840Y2587720D01*
X436680Y2586620D01*
X435940Y2586139D01*
X434320Y2584540D01*
X433120Y2582600D01*
X432360Y2580460D01*
X432080Y2577960D01*
X432080Y2546920D01*
X432360Y2544440D01*
X433120Y2542280D01*
X434320Y2540360D01*
X435940Y2538740D01*
X437860Y2537520D01*
X440020Y2536780D01*
X442500Y2536500D01*
X477500Y2536500D01*
X479980Y2536780D01*
X482140Y2537520D01*
X484060Y2538740D01*
X485680Y2540360D01*
X486880Y2542280D01*
X487640Y2544440D01*
X487920Y2546920D01*
X487920Y2567160D01*
X488220Y2568700D01*
X489080Y2570000D01*
X492720Y2573620D01*
X494020Y2574500D01*
X495560Y2574800D01*
X553080Y2574800D01*
X554620Y2574500D01*
X555920Y2573620D01*
X556780Y2572340D01*
X557080Y2570800D01*
X557080Y2546920D01*
X557360Y2544440D01*
X558120Y2542280D01*
X559320Y2540360D01*
X560940Y2538740D01*
X562860Y2537520D01*
X565020Y2536780D01*
X567500Y2536500D01*
X602500Y2536500D01*
X604980Y2536780D01*
X607140Y2537520D01*
X609060Y2538740D01*
X610640Y2540320D01*
X612180Y2542860D01*
X613080Y2543900D01*
X614260Y2544560D01*
X615600Y2544800D01*
X794800Y2544800D01*
X797960Y2545120D01*
X800800Y2545980D01*
X803439Y2547380D01*
X805879Y2549400D01*
X813060Y2556560D01*
X815080Y2559020D01*
X816480Y2561640D01*
X817340Y2564500D01*
X817660Y2567640D01*
X817660Y2595800D01*
X817960Y2597340D01*
X818820Y2598620D01*
X820120Y2599500D01*
X821660Y2599800D01*
X934800Y2599800D01*
X937960Y2600120D01*
X940800Y2600980D01*
X943439Y2602380D01*
X945879Y2604400D01*
X953600Y2612120D01*
X955620Y2614560D01*
X957020Y2617200D01*
X957880Y2620040D01*
X958199Y2623200D01*
X958199Y2756700D01*
X958500Y2758240D01*
X959380Y2759540D01*
X960660Y2760400D01*
X962200Y2760700D01*
X966440Y2760700D01*
X970120Y2761040D01*
X973500Y2762000D01*
X976640Y2763580D01*
X979460Y2765700D01*
X981820Y2768279D01*
X983660Y2771280D01*
X984940Y2774560D01*
X985580Y2778000D01*
X985580Y2781520D01*
X984940Y2784980D01*
X983660Y2788260D01*
X981820Y2791240D01*
X980380Y2792820D01*
X979599Y2794060D01*
X979340Y2795520D01*
X979599Y2796960D01*
X980380Y2798200D01*
X981820Y2799780D01*
X983660Y2802780D01*
X984940Y2806040D01*
X985580Y2809500D01*
X985580Y2813020D01*
X984940Y2816480D01*
X983660Y2819740D01*
X981820Y2822740D01*
X980800Y2823860D01*
X980000Y2825160D01*
X979760Y2826680D01*
X980100Y2828159D01*
X980960Y2829420D01*
X982240Y2830260D01*
X983760Y2830539D01*
X1044160Y2830539D01*
X1045680Y2830240D01*
X1046979Y2829380D01*
X1050260Y2826100D01*
X1051160Y2824740D01*
X1051420Y2823140D01*
X1051040Y2821560D01*
X1049140Y2817580D01*
X1048160Y2813860D01*
X1047820Y2810000D01*
X1048160Y2806139D01*
X1049160Y2802420D01*
X1050780Y2798900D01*
X1053000Y2795740D01*
X1055740Y2793000D01*
X1058900Y2790779D01*
X1062420Y2789160D01*
X1066140Y2788159D01*
X1070000Y2787820D01*
X1073860Y2788159D01*
X1077580Y2789160D01*
X1081100Y2790779D01*
X1084260Y2793000D01*
X1087000Y2795740D01*
X1089220Y2798900D01*
X1090840Y2802420D01*
X1091840Y2806139D01*
X1092180Y2810000D01*
X1091680Y2815899D01*
X1092340Y2817500D01*
X1093620Y2818680D01*
X1095280Y2819200D01*
X1097000Y2818980D01*
X1098460Y2818039D01*
X1112860Y2803639D01*
X1115300Y2801620D01*
X1117940Y2800220D01*
X1120780Y2799360D01*
X1123940Y2799040D01*
X1246240Y2799040D01*
X1247740Y2798759D01*
X1249020Y2797919D01*
X1249900Y2796660D01*
X1250240Y2795179D01*
X1250000Y2793660D01*
X1249200Y2792360D01*
X1248180Y2791240D01*
X1246340Y2788260D01*
X1245060Y2784980D01*
X1244420Y2781520D01*
X1244420Y2778000D01*
X1245060Y2774560D01*
X1246340Y2771280D01*
X1248180Y2768279D01*
X1250540Y2765700D01*
X1253360Y2763580D01*
X1256500Y2762000D01*
X1259880Y2761040D01*
X1263560Y2760700D01*
X1282900Y2760700D01*
X1284440Y2760400D01*
X1285740Y2759540D01*
X1313620Y2731640D01*
X1314500Y2730340D01*
X1314800Y2728800D01*
X1314800Y2704540D01*
X1314500Y2703000D01*
X1313620Y2701700D01*
X1312340Y2700840D01*
X1310800Y2700539D01*
X1303120Y2700539D01*
X1300620Y2700260D01*
X1298480Y2699500D01*
X1296540Y2698300D01*
X1294940Y2696680D01*
X1293720Y2694760D01*
X1292980Y2692600D01*
X1292700Y2690120D01*
X1292700Y2684200D01*
X1292380Y2682660D01*
X1291519Y2681380D01*
X1290220Y2680500D01*
X1288700Y2680200D01*
X1275200Y2680200D01*
X1272040Y2679880D01*
X1269200Y2679020D01*
X1266560Y2677620D01*
X1264120Y2675600D01*
X1249400Y2660880D01*
X1247540Y2658620D01*
X1246260Y2657600D01*
X1244700Y2657160D01*
X1243100Y2657400D01*
X1241700Y2658240D01*
X1240780Y2659560D01*
X1240440Y2661160D01*
X1240440Y2681200D01*
X1240640Y2682480D01*
X1241420Y2683860D01*
X1243000Y2687000D01*
X1243960Y2690380D01*
X1244300Y2694060D01*
X1244300Y2740940D01*
X1243960Y2744620D01*
X1243000Y2748000D01*
X1241420Y2751139D01*
X1239300Y2753960D01*
X1236720Y2756320D01*
X1233720Y2758159D01*
X1230440Y2759440D01*
X1227000Y2760080D01*
X1223480Y2760080D01*
X1220020Y2759440D01*
X1216740Y2758159D01*
X1213760Y2756320D01*
X1212180Y2754880D01*
X1210940Y2754100D01*
X1209480Y2753840D01*
X1208040Y2754100D01*
X1206800Y2754880D01*
X1205220Y2756320D01*
X1202220Y2758159D01*
X1198960Y2759440D01*
X1195500Y2760080D01*
X1191980Y2760080D01*
X1188520Y2759440D01*
X1185260Y2758159D01*
X1182260Y2756320D01*
X1180680Y2754880D01*
X1179440Y2754100D01*
X1178000Y2753840D01*
X1176540Y2754100D01*
X1175300Y2754880D01*
X1173720Y2756320D01*
X1170740Y2758159D01*
X1167460Y2759440D01*
X1164000Y2760080D01*
X1160480Y2760080D01*
X1157040Y2759440D01*
X1153760Y2758159D01*
X1150760Y2756320D01*
X1149200Y2754880D01*
X1147940Y2754100D01*
X1146500Y2753840D01*
X1145060Y2754100D01*
X1143800Y2754880D01*
X1142220Y2756320D01*
X1139240Y2758159D01*
X1135960Y2759440D01*
X1132500Y2760080D01*
X1129000Y2760080D01*
X1125540Y2759440D01*
X1122260Y2758159D01*
X1119280Y2756320D01*
X1117700Y2754880D01*
X1116440Y2754100D01*
X1115000Y2753840D01*
X1113560Y2754100D01*
X1112300Y2754880D01*
X1110720Y2756320D01*
X1107740Y2758159D01*
X1104460Y2759440D01*
X1101000Y2760080D01*
X1097500Y2760080D01*
X1094040Y2759440D01*
X1090760Y2758159D01*
X1087780Y2756320D01*
X1086200Y2754880D01*
X1084940Y2754100D01*
X1083500Y2753840D01*
X1082060Y2754100D01*
X1080800Y2754880D01*
X1079240Y2756320D01*
X1076240Y2758159D01*
X1072960Y2759440D01*
X1069520Y2760080D01*
X1066000Y2760080D01*
X1062540Y2759440D01*
X1059260Y2758159D01*
X1056280Y2756320D01*
X1054700Y2754880D01*
X1053460Y2754100D01*
X1052000Y2753840D01*
X1050560Y2754100D01*
X1049320Y2754880D01*
X1047740Y2756320D01*
X1044740Y2758159D01*
X1041480Y2759440D01*
X1038020Y2760080D01*
X1034500Y2760080D01*
X1031040Y2759440D01*
X1027780Y2758159D01*
X1024780Y2756320D01*
X1023199Y2754880D01*
X1021960Y2754100D01*
X1020520Y2753840D01*
X1019060Y2754100D01*
X1017820Y2754880D01*
X1016240Y2756320D01*
X1013259Y2758159D01*
X1009980Y2759440D01*
X1006520Y2760080D01*
X1003000Y2760080D01*
X999560Y2759440D01*
X996280Y2758159D01*
X993280Y2756320D01*
X990699Y2753960D01*
X988580Y2751139D01*
X987000Y2748000D01*
X986040Y2744620D01*
X985699Y2740940D01*
X985699Y2694060D01*
X986040Y2690380D01*
X987000Y2687000D01*
X988580Y2683860D01*
X989400Y2682420D01*
X989599Y2681160D01*
X989599Y2614860D01*
X989659Y2613240D01*
X989360Y2611600D01*
X988400Y2610220D01*
X905100Y2531300D01*
X903840Y2530480D01*
X902340Y2530200D01*
X715200Y2530200D01*
X712039Y2529880D01*
X709200Y2529020D01*
X706560Y2527620D01*
X704120Y2525600D01*
X617400Y2438900D01*
X616260Y2438100D01*
X614900Y2437740D01*
X613500Y2437860D01*
X608000Y2439380D01*
X602680Y2440100D01*
X597320Y2440100D01*
X592000Y2439380D01*
X586820Y2437960D01*
X581880Y2435880D01*
X577260Y2433140D01*
X573040Y2429800D01*
X569300Y2425940D01*
X566120Y2421620D01*
X563540Y2416920D01*
X561620Y2411900D01*
X560360Y2406680D01*
X559840Y2401340D01*
X560020Y2395980D01*
X560900Y2390680D01*
X562500Y2385560D01*
X564760Y2380680D01*
X567640Y2376160D01*
X571100Y2372060D01*
X575100Y2368460D01*
X576500Y2367500D01*
X577640Y2366280D01*
X578200Y2364680D01*
X578040Y2363020D01*
X577220Y2361560D01*
X575880Y2360560D01*
X574220Y2360200D01*
X530780Y2360200D01*
X529140Y2360560D01*
X527780Y2361560D01*
X526960Y2363020D01*
X526800Y2364680D01*
X527360Y2366280D01*
X528500Y2367500D01*
X529900Y2368460D01*
X533900Y2372060D01*
X537360Y2376160D01*
X540240Y2380680D01*
X541080Y2382500D01*
X522500Y2382500D01*
X522500Y2364200D01*
X522200Y2362660D01*
X521320Y2361380D01*
X520040Y2360500D01*
X518500Y2360200D01*
X491500Y2360200D01*
X489960Y2360500D01*
X488680Y2361380D01*
X487800Y2362660D01*
X487500Y2364200D01*
X487500Y2382500D01*
X468920Y2382500D01*
X469760Y2380680D01*
X472640Y2376160D01*
X476100Y2372060D01*
X480100Y2368460D01*
X481500Y2367500D01*
X482640Y2366280D01*
X483200Y2364680D01*
X483040Y2363020D01*
X482220Y2361560D01*
X480880Y2360560D01*
X479219Y2360200D01*
X425780Y2360200D01*
X424140Y2360560D01*
X422780Y2361560D01*
X421960Y2363020D01*
X421800Y2364680D01*
X422360Y2366280D01*
X423500Y2367500D01*
X424900Y2368460D01*
X428900Y2372060D01*
X432360Y2376160D01*
X435240Y2380680D01*
X437500Y2385560D01*
X439099Y2390680D01*
X439980Y2395980D01*
X440160Y2401340D01*
X439640Y2406680D01*
X438380Y2411900D01*
X436460Y2416920D01*
X433880Y2421620D01*
X430700Y2425940D01*
X426960Y2429800D01*
X422740Y2433140D01*
X418120Y2435880D01*
X413180Y2437960D01*
X408000Y2439380D01*
X402680Y2440100D01*
X397320Y2440100D01*
X392000Y2439380D01*
X386500Y2437860D01*
X385100Y2437740D01*
X383740Y2438100D01*
X382600Y2438900D01*
X266380Y2555120D01*
X265500Y2556420D01*
X265200Y2557960D01*
X265200Y2577040D01*
X265500Y2578580D01*
X266380Y2579880D01*
X287680Y2601180D01*
X288980Y2602060D01*
X290520Y2602360D01*
X308540Y2602360D01*
X310140Y2602020D01*
X311480Y2601080D01*
X312320Y2599680D01*
X313120Y2597400D01*
X314320Y2595460D01*
X315940Y2593860D01*
X316680Y2593380D01*
X317840Y2592280D01*
X318480Y2590800D01*
X318480Y2589200D01*
X317840Y2587720D01*
X316680Y2586620D01*
X315940Y2586139D01*
X314320Y2584540D01*
X313120Y2582600D01*
X312360Y2580460D01*
X312080Y2577960D01*
X312080Y2572820D01*
X328640Y2572820D01*
X328640Y2587600D01*
X328940Y2589140D01*
X329820Y2590440D01*
X331120Y2591300D01*
X332640Y2591600D01*
X347360Y2591600D01*
X348880Y2591300D01*
X350180Y2590440D01*
X351060Y2589140D01*
X351360Y2587600D01*
X351360Y2572820D01*
X367920Y2572820D01*
X367920Y2577960D01*
X367640Y2580460D01*
X366880Y2582600D01*
X365680Y2584540D01*
X364060Y2586139D01*
X363320Y2586620D01*
X362160Y2587720D01*
X361520Y2589200D01*
X361520Y2590800D01*
X362160Y2592280D01*
X363320Y2593380D01*
X364060Y2593860D01*
X365680Y2595460D01*
X366880Y2597400D01*
X367640Y2599540D01*
X367920Y2602040D01*
X367920Y2633080D01*
X367640Y2635560D01*
X366880Y2637720D01*
X365680Y2639640D01*
X364060Y2641259D01*
X362140Y2642480D01*
X359980Y2643220D01*
X358840Y2643360D01*
X357440Y2643780D01*
X356300Y2644660D01*
X355540Y2645899D01*
X355280Y2647340D01*
X355480Y2719200D01*
X355820Y2720779D01*
X356760Y2722120D01*
X358160Y2722960D01*
X360640Y2723820D01*
X362560Y2725040D01*
X364180Y2726640D01*
X365379Y2728580D01*
X366220Y2730960D01*
X367060Y2732360D01*
X368400Y2733320D01*
X370000Y2733639D01*
X371599Y2733320D01*
X372939Y2732360D01*
X373780Y2730960D01*
X374620Y2728580D01*
X375820Y2726640D01*
X377440Y2725040D01*
X379360Y2723820D01*
X381520Y2723080D01*
X384000Y2722799D01*
X415300Y2722799D01*
X417800Y2723080D01*
X419940Y2723820D01*
X421880Y2725040D01*
X423480Y2726640D01*
X424700Y2728580D01*
X425460Y2730720D01*
X425920Y2732640D01*
X426820Y2733780D01*
X428060Y2734540D01*
X429480Y2734800D01*
X457819Y2734800D01*
X459340Y2734500D01*
X460640Y2733620D01*
X461500Y2732340D01*
X461820Y2730800D01*
X461820Y2725620D01*
X462100Y2723120D01*
X462840Y2720980D01*
X464060Y2719040D01*
X465660Y2717440D01*
X467600Y2716220D01*
X469739Y2715480D01*
X472239Y2715200D01*
X511160Y2715200D01*
X513640Y2715480D01*
X515800Y2716220D01*
X517720Y2717440D01*
X519340Y2719040D01*
X520540Y2720980D01*
X521300Y2723120D01*
X521580Y2725620D01*
X521580Y2774380D01*
X521300Y2776880D01*
X520540Y2779020D01*
X519340Y2780960D01*
X517720Y2782559D01*
X515800Y2783780D01*
X513640Y2784520D01*
X511160Y2784800D01*
X472239Y2784800D01*
X469739Y2784520D01*
X467600Y2783780D01*
X465660Y2782559D01*
X464060Y2780960D01*
X462840Y2779020D01*
X462100Y2776880D01*
X461820Y2774380D01*
X461820Y2769200D01*
X461500Y2767660D01*
X460640Y2766380D01*
X459340Y2765500D01*
X457819Y2765200D01*
X429480Y2765200D01*
X428060Y2765460D01*
X426820Y2766220D01*
X425920Y2767360D01*
X425460Y2769280D01*
X424700Y2771420D01*
X423480Y2773360D01*
X421880Y2774960D01*
X419940Y2776180D01*
X417800Y2776920D01*
X415300Y2777200D01*
X384000Y2777200D01*
X381520Y2776920D01*
X379360Y2776180D01*
X377440Y2774960D01*
X375820Y2773360D01*
X374620Y2771420D01*
X373780Y2769040D01*
X372939Y2767640D01*
X371599Y2766680D01*
X370000Y2766360D01*
X368400Y2766680D01*
X367060Y2767640D01*
X366220Y2769040D01*
X365379Y2771420D01*
X364180Y2773360D01*
X362560Y2774960D01*
X360640Y2776180D01*
X358220Y2777020D01*
X356820Y2777860D01*
X355880Y2779200D01*
X355540Y2780800D01*
X355540Y2861120D01*
X355840Y2862640D01*
X356719Y2863940D01*
X358000Y2864820D01*
X359540Y2865120D01*
X405800Y2865120D01*
X408280Y2865400D01*
X410439Y2866139D01*
X412360Y2867360D01*
X413980Y2868980D01*
X415200Y2870899D01*
X415940Y2873060D01*
X416220Y2875539D01*
X416220Y2912620D01*
X416520Y2914160D01*
X417400Y2915460D01*
X418700Y2916320D01*
X420220Y2916620D01*
X421760Y2916320D01*
X423060Y2915460D01*
X444120Y2894400D01*
X446560Y2892380D01*
X449200Y2890980D01*
X452040Y2890120D01*
X455200Y2889800D01*
X524700Y2889800D01*
X526240Y2889500D01*
X527540Y2888620D01*
X528400Y2887340D01*
X528700Y2885800D01*
X528400Y2884260D01*
X527540Y2882980D01*
X526020Y2881460D01*
X524800Y2879540D01*
X524060Y2877380D01*
X523780Y2874900D01*
X523780Y2867280D01*
X555740Y2867280D01*
X555740Y2885800D01*
X556040Y2887340D01*
X556900Y2888620D01*
X558200Y2889500D01*
X559740Y2889800D01*
X605260Y2889800D01*
X606800Y2889500D01*
X608100Y2888620D01*
X608960Y2887340D01*
X609260Y2885800D01*
X609260Y2867280D01*
X641220Y2867280D01*
X641220Y2874900D01*
X640939Y2877380D01*
X640200Y2879540D01*
X638980Y2881460D01*
X637460Y2882980D01*
X636600Y2884260D01*
X636300Y2885800D01*
X636600Y2887340D01*
X637460Y2888620D01*
X638760Y2889500D01*
X640300Y2889800D01*
X670280Y2889800D01*
X671820Y2889500D01*
X673120Y2888620D01*
X673980Y2887340D01*
X674280Y2885800D01*
X674280Y2869240D01*
X674560Y2866760D01*
X675320Y2864600D01*
X676540Y2862679D01*
X678139Y2861060D01*
X680080Y2859840D01*
X682220Y2859100D01*
X684720Y2858820D01*
X735280Y2858820D01*
X737780Y2859100D01*
X739920Y2859840D01*
X741860Y2861060D01*
X743460Y2862679D01*
X744680Y2864600D01*
X745440Y2866760D01*
X745720Y2869240D01*
X745720Y2884400D01*
X746020Y2885940D01*
X746880Y2887240D01*
X748180Y2888100D01*
X749720Y2888399D01*
X803420Y2888399D01*
X806580Y2888720D01*
X809419Y2889580D01*
X811260Y2890440D01*
X812220Y2890539D01*
X899980Y2890539D01*
X901640Y2890200D01*
X903000Y2889180D01*
X903820Y2887720D01*
X903960Y2886040D01*
X903379Y2884440D01*
X902340Y2882740D01*
X901720Y2881180D01*
X924260Y2881180D01*
X924260Y2882679D01*
X924560Y2884220D01*
X925440Y2885520D01*
X926720Y2886380D01*
X928259Y2886680D01*
X957740Y2886680D01*
X959280Y2886380D01*
X960560Y2885520D01*
X961440Y2884220D01*
X961740Y2882679D01*
X961740Y2881180D01*
X984479Y2881180D01*
X984400Y2881720D01*
X984740Y2883260D01*
X985660Y2884540D01*
X987000Y2885360D01*
X988560Y2885620D01*
X990080Y2885240D01*
X992420Y2884160D01*
X996140Y2883159D01*
X1000000Y2882820D01*
X1003860Y2883159D01*
X1007580Y2884160D01*
X1011100Y2885779D01*
X1014260Y2888000D01*
X1017000Y2890740D01*
X1019220Y2893900D01*
X1020840Y2897420D01*
X1021840Y2901139D01*
X1022180Y2905000D01*
X1021840Y2908860D01*
X1020840Y2912580D01*
X1019220Y2916100D01*
X1017000Y2919260D01*
X1014260Y2922000D01*
X1011100Y2924220D01*
X1007580Y2925840D01*
X1003860Y2926840D01*
X1000000Y2927180D01*
X996140Y2926840D01*
X992420Y2925840D01*
X989380Y2924440D01*
X987840Y2924060D01*
X986300Y2924300D01*
X984960Y2925140D01*
X984040Y2926420D01*
X983680Y2927960D01*
X983960Y2929500D01*
X984280Y2930320D01*
X961740Y2930320D01*
X961740Y2928800D01*
X961440Y2927280D01*
X960560Y2925980D01*
X959280Y2925120D01*
X957740Y2924800D01*
X928259Y2924800D01*
X926720Y2925120D01*
X925440Y2925980D01*
X924560Y2927280D01*
X924260Y2928800D01*
X924260Y2930320D01*
X901720Y2930320D01*
X902340Y2928759D01*
X903379Y2927060D01*
X903960Y2925460D01*
X903820Y2923780D01*
X903000Y2922320D01*
X901640Y2921300D01*
X899980Y2920940D01*
X805939Y2920940D01*
X802800Y2920640D01*
X799940Y2919780D01*
X798100Y2918920D01*
X797140Y2918800D01*
X749720Y2918800D01*
X748180Y2919120D01*
X746880Y2919980D01*
X746020Y2921280D01*
X745720Y2922799D01*
X745720Y2937980D01*
X745440Y2940480D01*
X744680Y2942620D01*
X743460Y2944560D01*
X741860Y2946160D01*
X739920Y2947380D01*
X737780Y2948120D01*
X735280Y2948399D01*
X684720Y2948399D01*
X682220Y2948120D01*
X680080Y2947380D01*
X678139Y2946160D01*
X676540Y2944560D01*
X675320Y2942620D01*
X674560Y2940480D01*
X674280Y2937980D01*
X674280Y2924200D01*
X673980Y2922660D01*
X673120Y2921380D01*
X671820Y2920500D01*
X670280Y2920200D01*
X645200Y2920200D01*
X643600Y2920539D01*
X642260Y2921500D01*
X641420Y2922900D01*
X641220Y2924540D01*
X641220Y2965440D01*
X640939Y2967940D01*
X640200Y2970080D01*
X638980Y2972020D01*
X637360Y2973620D01*
X635440Y2974840D01*
X633280Y2975580D01*
X630800Y2975860D01*
X534200Y2975860D01*
X531720Y2975580D01*
X529560Y2974840D01*
X527640Y2973620D01*
X526020Y2972020D01*
X524800Y2970080D01*
X524060Y2967940D01*
X523780Y2965440D01*
X523780Y2924540D01*
X523579Y2922900D01*
X522740Y2921500D01*
X521400Y2920539D01*
X519799Y2920200D01*
X462960Y2920200D01*
X461420Y2920500D01*
X460120Y2921380D01*
X425880Y2955600D01*
X423440Y2957620D01*
X420800Y2959020D01*
X419060Y2959560D01*
X417580Y2960380D01*
X416580Y2961740D01*
X416220Y2963380D01*
X416220Y3014460D01*
X415940Y3016940D01*
X415200Y3019100D01*
X413980Y3021019D01*
X412360Y3022640D01*
X410439Y3023860D01*
X408280Y3024600D01*
X405800Y3024880D01*
X309200Y3024880D01*
X306720Y3024600D01*
X304560Y3023860D01*
X302640Y3022640D01*
X301020Y3021019D01*
X299800Y3019100D01*
X299060Y3016940D01*
X298780Y3014460D01*
X298780Y2875539D01*
X299060Y2873060D01*
X299800Y2870899D01*
X301020Y2868980D01*
X302640Y2867360D01*
X304560Y2866139D01*
X306720Y2865400D01*
X309200Y2865120D01*
X321140Y2865120D01*
X322680Y2864820D01*
X323960Y2863940D01*
X324840Y2862640D01*
X325140Y2861120D01*
X325140Y2780800D01*
X324799Y2779200D01*
X323860Y2777860D01*
X322460Y2777020D01*
X320060Y2776180D01*
X318120Y2774960D01*
X316520Y2773360D01*
X315300Y2771420D01*
X314540Y2769280D01*
X314260Y2766780D01*
X314260Y2733220D01*
X314540Y2730720D01*
X315300Y2728580D01*
X316520Y2726640D01*
X318120Y2725040D01*
X320060Y2723820D01*
X322400Y2723000D01*
X323800Y2722160D01*
X324760Y2720820D01*
X325080Y2719220D01*
X324880Y2647340D01*
X324620Y2645920D01*
X323860Y2644680D01*
X322720Y2643800D01*
X321340Y2643380D01*
X320020Y2643220D01*
X317860Y2642480D01*
X315940Y2641259D01*
X314320Y2639640D01*
X313120Y2637720D01*
X312320Y2635440D01*
X311480Y2634040D01*
X310140Y2633100D01*
X308540Y2632760D01*
X282760Y2632760D01*
X279600Y2632440D01*
X276760Y2631580D01*
X274120Y2630179D01*
X271680Y2628159D01*
X239400Y2595880D01*
X237380Y2593440D01*
X235980Y2590800D01*
X235120Y2587960D01*
X234800Y2584800D01*
X234800Y2550200D01*
X235120Y2547040D01*
X235980Y2544200D01*
X237380Y2541560D01*
X239400Y2539120D01*
X361160Y2417340D01*
X362020Y2416080D01*
X362340Y2414580D01*
X362060Y2413080D01*
X361620Y2411900D01*
X360360Y2406680D01*
X359840Y2401340D01*
X360020Y2395980D01*
X360900Y2390680D01*
X362500Y2385560D01*
X364760Y2380680D01*
X367640Y2376160D01*
X371100Y2372060D01*
X375100Y2368460D01*
X376500Y2367500D01*
X377640Y2366280D01*
X378200Y2364680D01*
X378040Y2363020D01*
X377220Y2361560D01*
X375880Y2360560D01*
X374219Y2360200D01*
G37*

%LPC*%
G36*
X522500Y2417500D02*
G01*
X541140Y2417500D01*
X538880Y2421620D01*
X535700Y2425940D01*
X531960Y2429800D01*
X527740Y2433140D01*
X523120Y2435880D01*
X522500Y2436140D01*
G37*
G36*
X468860Y2417500D02*
G01*
X487500Y2417500D01*
X487500Y2436140D01*
X486880Y2435880D01*
X482260Y2433140D01*
X478040Y2429800D01*
X474300Y2425940D01*
X471120Y2421620D01*
G37*
G36*
X351360Y2536500D02*
G01*
X357500Y2536500D01*
X359980Y2536780D01*
X362140Y2537520D01*
X364060Y2538740D01*
X365680Y2540360D01*
X366880Y2542280D01*
X367640Y2544440D01*
X367920Y2546920D01*
X367920Y2552080D01*
X351360Y2552080D01*
G37*
G36*
X322500Y2536500D02*
G01*
X328640Y2536500D01*
X328640Y2552080D01*
X312080Y2552080D01*
X312080Y2546920D01*
X312360Y2544440D01*
X313120Y2542280D01*
X314320Y2540360D01*
X315940Y2538740D01*
X317860Y2537520D01*
X320020Y2536780D01*
G37*
G36*
X557080Y2627919D02*
G01*
X573640Y2627919D01*
X573640Y2643500D01*
X567500Y2643500D01*
X565020Y2643220D01*
X562860Y2642480D01*
X560940Y2641259D01*
X559320Y2639640D01*
X558120Y2637720D01*
X557360Y2635560D01*
X557080Y2633080D01*
G37*
G36*
X471360Y2627919D02*
G01*
X487920Y2627919D01*
X487920Y2633080D01*
X487640Y2635560D01*
X486880Y2637720D01*
X485680Y2639640D01*
X484060Y2641259D01*
X482140Y2642480D01*
X479980Y2643220D01*
X477500Y2643500D01*
X471360Y2643500D01*
G37*
G36*
X596360Y2627919D02*
G01*
X612920Y2627919D01*
X612920Y2633080D01*
X612640Y2635560D01*
X611880Y2637720D01*
X610680Y2639640D01*
X609060Y2641259D01*
X607140Y2642480D01*
X604980Y2643220D01*
X602500Y2643500D01*
X596360Y2643500D01*
G37*
G36*
X432080Y2627919D02*
G01*
X448640Y2627919D01*
X448640Y2643500D01*
X442500Y2643500D01*
X440020Y2643220D01*
X437860Y2642480D01*
X435940Y2641259D01*
X434320Y2639640D01*
X433120Y2637720D01*
X432360Y2635560D01*
X432080Y2633080D01*
G37*
G36*
X558840Y2715200D02*
G01*
X565960Y2715200D01*
X565960Y2735200D01*
X548420Y2735200D01*
X548420Y2725620D01*
X548700Y2723120D01*
X549460Y2720980D01*
X550660Y2719040D01*
X552280Y2717440D01*
X554200Y2716220D01*
X556360Y2715480D01*
G37*
G36*
X590660Y2715200D02*
G01*
X597760Y2715200D01*
X600260Y2715480D01*
X602400Y2716220D01*
X604340Y2717440D01*
X605940Y2719040D01*
X607160Y2720980D01*
X607920Y2723120D01*
X608200Y2725620D01*
X608200Y2735200D01*
X590660Y2735200D01*
G37*
G36*
X1497920Y2747080D02*
G01*
X1503080Y2747080D01*
X1505560Y2747360D01*
X1507720Y2748120D01*
X1509640Y2749320D01*
X1511260Y2750940D01*
X1512480Y2752860D01*
X1513220Y2755020D01*
X1513500Y2757500D01*
X1513500Y2763639D01*
X1497920Y2763639D01*
G37*
G36*
X548420Y2764800D02*
G01*
X565960Y2764800D01*
X565960Y2784800D01*
X558840Y2784800D01*
X556360Y2784520D01*
X554200Y2783780D01*
X552280Y2782559D01*
X550660Y2780960D01*
X549460Y2779020D01*
X548700Y2776880D01*
X548420Y2774380D01*
G37*
G36*
X590660Y2764800D02*
G01*
X608200Y2764800D01*
X608200Y2774380D01*
X607920Y2776880D01*
X607160Y2779020D01*
X605940Y2780960D01*
X604340Y2782559D01*
X602400Y2783780D01*
X600260Y2784520D01*
X597760Y2784800D01*
X590660Y2784800D01*
G37*
G36*
X1497920Y2786360D02*
G01*
X1513500Y2786360D01*
X1513500Y2792500D01*
X1513220Y2794980D01*
X1512480Y2797140D01*
X1511260Y2799060D01*
X1509640Y2800680D01*
X1507720Y2801880D01*
X1505560Y2802640D01*
X1503080Y2802919D01*
X1497920Y2802919D01*
G37*
G36*
X534200Y2823580D02*
G01*
X555740Y2823580D01*
X555740Y2841620D01*
X523780Y2841620D01*
X523780Y2834000D01*
X524060Y2831520D01*
X524800Y2829360D01*
X526020Y2827440D01*
X527640Y2825820D01*
X529560Y2824620D01*
X531720Y2823860D01*
G37*
G36*
X609260Y2823580D02*
G01*
X630800Y2823580D01*
X633280Y2823860D01*
X635440Y2824620D01*
X637360Y2825820D01*
X638980Y2827440D01*
X640200Y2829360D01*
X640939Y2831520D01*
X641220Y2834000D01*
X641220Y2841620D01*
X609260Y2841620D01*
G37*
G36*
X1497920Y2827080D02*
G01*
X1503080Y2827080D01*
X1505560Y2827360D01*
X1507720Y2828120D01*
X1509640Y2829320D01*
X1511260Y2830940D01*
X1512480Y2832860D01*
X1513220Y2835020D01*
X1513500Y2837500D01*
X1513500Y2843639D01*
X1497920Y2843639D01*
G37*
G36*
X1497920Y2866360D02*
G01*
X1513500Y2866360D01*
X1513500Y2872500D01*
X1513220Y2874980D01*
X1512480Y2877140D01*
X1511260Y2879060D01*
X1509640Y2880680D01*
X1507720Y2881880D01*
X1505560Y2882640D01*
X1503080Y2882919D01*
X1497920Y2882919D01*
G37*
G36*
X1448959Y2913920D02*
G01*
X1451240Y2913920D01*
X1453460Y2914440D01*
X1455520Y2915419D01*
X1457460Y2916980D01*
X1462500Y2922020D01*
X1445220Y2939300D01*
X1432820Y2926880D01*
X1442720Y2916980D01*
X1444680Y2915419D01*
X1446740Y2914440D01*
G37*
G36*
X1479960Y2939480D02*
G01*
X1485000Y2944500D01*
X1486560Y2946460D01*
X1487540Y2948519D01*
X1488040Y2950740D01*
X1488040Y2953020D01*
X1487540Y2955240D01*
X1486560Y2957280D01*
X1485000Y2959240D01*
X1475080Y2969160D01*
X1462680Y2956740D01*
G37*
G36*
X1405620Y2954080D02*
G01*
X1418020Y2966500D01*
X1400760Y2983759D01*
X1395720Y2978740D01*
X1394160Y2976780D01*
X1393160Y2974720D01*
X1392660Y2972500D01*
X1392660Y2970220D01*
X1393160Y2968000D01*
X1394160Y2965940D01*
X1395720Y2964000D01*
G37*
G36*
X1684079Y2958580D02*
G01*
X1684079Y2977220D01*
X1665440Y2977220D01*
X1665700Y2976600D01*
X1668440Y2971980D01*
X1671780Y2967760D01*
X1675640Y2964020D01*
X1679960Y2960840D01*
G37*
G36*
X1719079Y2958620D02*
G01*
X1720900Y2959480D01*
X1725420Y2962360D01*
X1729520Y2965820D01*
X1733120Y2969800D01*
X1736160Y2974240D01*
X1737660Y2977220D01*
X1719079Y2977220D01*
G37*
G36*
X1435480Y2983940D02*
G01*
X1447880Y2996360D01*
X1437980Y3006259D01*
X1436020Y3007820D01*
X1433980Y3008800D01*
X1431759Y3009320D01*
X1429480Y3009320D01*
X1427260Y3008800D01*
X1425200Y3007820D01*
X1423240Y3006259D01*
X1418200Y3001220D01*
G37*
G36*
X725260Y2991600D02*
G01*
X735280Y2991600D01*
X737780Y2991880D01*
X739920Y2992620D01*
X741860Y2993840D01*
X743460Y2995440D01*
X744680Y2997380D01*
X745440Y2999520D01*
X745720Y3002020D01*
X745720Y3016580D01*
X725260Y3016580D01*
G37*
G36*
X684720Y2991600D02*
G01*
X694740Y2991600D01*
X694740Y3016580D01*
X674280Y3016580D01*
X674280Y3002020D01*
X674560Y2999520D01*
X675320Y2997380D01*
X676540Y2995440D01*
X678139Y2993840D01*
X680080Y2992620D01*
X682220Y2991880D01*
G37*
G36*
X1605000Y3002820D02*
G01*
X1608860Y3003159D01*
X1612580Y3004160D01*
X1616100Y3005779D01*
X1619259Y3008000D01*
X1622000Y3010740D01*
X1624220Y3013900D01*
X1625840Y3017420D01*
X1626840Y3021139D01*
X1627180Y3025000D01*
X1626840Y3028860D01*
X1625840Y3032580D01*
X1624220Y3036100D01*
X1622000Y3039260D01*
X1619259Y3042000D01*
X1616100Y3044220D01*
X1612580Y3045840D01*
X1608860Y3046840D01*
X1605000Y3047180D01*
X1601140Y3046840D01*
X1597420Y3045840D01*
X1595200Y3044820D01*
X1593620Y3044440D01*
X1592020Y3044740D01*
X1590660Y3045640D01*
X1589780Y3047000D01*
X1589520Y3048600D01*
X1589920Y3050179D01*
X1590560Y3051540D01*
X1591080Y3053759D01*
X1591080Y3056040D01*
X1590560Y3058260D01*
X1589580Y3060320D01*
X1588020Y3062280D01*
X1541000Y3109280D01*
X1539060Y3110840D01*
X1537000Y3111840D01*
X1534780Y3112340D01*
X1532500Y3112340D01*
X1530280Y3111840D01*
X1528220Y3110840D01*
X1526260Y3109280D01*
X1498740Y3081760D01*
X1497180Y3079800D01*
X1496200Y3077740D01*
X1495680Y3075520D01*
X1495680Y3073240D01*
X1496200Y3071019D01*
X1497180Y3068980D01*
X1498740Y3067020D01*
X1545760Y3020000D01*
X1547720Y3018440D01*
X1549760Y3017460D01*
X1551980Y3016960D01*
X1554259Y3016960D01*
X1556480Y3017460D01*
X1558520Y3018440D01*
X1560960Y3020460D01*
X1562240Y3021160D01*
X1563700Y3021360D01*
X1565120Y3021019D01*
X1566339Y3020200D01*
X1572140Y3014400D01*
X1574580Y3012380D01*
X1577220Y3010980D01*
X1580060Y3010120D01*
X1583220Y3009800D01*
X1587280Y3009800D01*
X1588820Y3009500D01*
X1590120Y3008620D01*
X1590740Y3008000D01*
X1593899Y3005779D01*
X1597420Y3004160D01*
X1601140Y3003159D01*
G37*
G36*
X1719079Y3012220D02*
G01*
X1737660Y3012220D01*
X1736160Y3015200D01*
X1733120Y3019620D01*
X1729520Y3023600D01*
X1725420Y3027080D01*
X1720900Y3029960D01*
X1719079Y3030800D01*
G37*
G36*
X1665440Y3012220D02*
G01*
X1684079Y3012220D01*
X1684079Y3030860D01*
X1679960Y3028600D01*
X1675640Y3025400D01*
X1671780Y3021680D01*
X1668440Y3017460D01*
X1665700Y3012840D01*
G37*
G36*
X674280Y3056180D02*
G01*
X694740Y3056180D01*
X694740Y3081180D01*
X684720Y3081180D01*
X682220Y3080899D01*
X680080Y3080160D01*
X678139Y3078940D01*
X676540Y3077320D01*
X675320Y3075400D01*
X674560Y3073240D01*
X674280Y3070760D01*
G37*
G36*
X1682500Y3063860D02*
G01*
X1682500Y3082500D01*
X1663860Y3082500D01*
X1664120Y3081880D01*
X1666860Y3077260D01*
X1670200Y3073039D01*
X1674060Y3069300D01*
X1678380Y3066120D01*
G37*
G36*
X1717500Y3063920D02*
G01*
X1719319Y3064760D01*
X1723839Y3067640D01*
X1727940Y3071100D01*
X1731540Y3075100D01*
X1734580Y3079520D01*
X1736080Y3082500D01*
X1717500Y3082500D01*
G37*
G36*
X399240Y3114280D02*
G01*
X413820Y3114280D01*
X413820Y3134740D01*
X388820Y3134740D01*
X388820Y3124720D01*
X389099Y3122220D01*
X389840Y3120080D01*
X391060Y3118140D01*
X392680Y3116540D01*
X394600Y3115320D01*
X396760Y3114560D01*
G37*
G36*
X453420Y3114280D02*
G01*
X467980Y3114280D01*
X470480Y3114560D01*
X472620Y3115320D01*
X474560Y3116540D01*
X476160Y3118140D01*
X477380Y3120080D01*
X478120Y3122220D01*
X478400Y3124720D01*
X478400Y3134740D01*
X453420Y3134740D01*
G37*
G36*
X1717500Y3117500D02*
G01*
X1736080Y3117500D01*
X1734580Y3120480D01*
X1731540Y3124900D01*
X1727940Y3128900D01*
X1723839Y3132360D01*
X1719319Y3135240D01*
X1717500Y3136080D01*
G37*
G36*
X1663860Y3117500D02*
G01*
X1682500Y3117500D01*
X1682500Y3136139D01*
X1678380Y3133880D01*
X1674060Y3130700D01*
X1670200Y3126960D01*
X1666860Y3122740D01*
X1664120Y3118120D01*
G37*
G36*
X388820Y3165260D02*
G01*
X413820Y3165260D01*
X413820Y3185720D01*
X399240Y3185720D01*
X396760Y3185440D01*
X394600Y3184680D01*
X392680Y3183460D01*
X391060Y3181860D01*
X389840Y3179920D01*
X389099Y3177780D01*
X388820Y3175280D01*
G37*
G36*
X453420Y3165260D02*
G01*
X478400Y3165260D01*
X478400Y3175280D01*
X478120Y3177780D01*
X477380Y3179920D01*
X476160Y3181860D01*
X474560Y3183460D01*
X472620Y3184680D01*
X470480Y3185440D01*
X467980Y3185720D01*
X453420Y3185720D01*
G37*
G36*
X1617500Y3263920D02*
G01*
X1620480Y3265419D01*
X1624900Y3268460D01*
X1628899Y3272060D01*
X1632360Y3276160D01*
X1635240Y3280680D01*
X1636080Y3282500D01*
X1617500Y3282500D01*
G37*
G36*
X1582500Y3263920D02*
G01*
X1582500Y3282500D01*
X1563920Y3282500D01*
X1564760Y3280680D01*
X1567640Y3276160D01*
X1571100Y3272060D01*
X1575100Y3268460D01*
X1579520Y3265419D01*
G37*

%LPD*%
D10*
X700000Y3300000D02*
G01*
X890000Y3110000D01*
X1025000Y3110000D01*
X1036300Y3098699D01*
X1036300Y3062500D01*
X942997Y2937240D02*
G01*
X809148Y2937240D01*
X710000Y3036390D01*
X600000Y3300000D02*
G01*
X770000Y3130000D01*
X800000Y3130000D01*
X867500Y3062500D01*
X1004759Y3062500D01*
X943000Y2937240D02*
G01*
X1032759Y2937240D01*
X1064250Y2905749D01*
X1024250Y2874250D01*
X943000Y2874250D01*
X900000Y3300000D02*
G01*
X900000Y3180000D01*
X919660Y3160340D01*
X1000000Y3160340D01*
X990000Y3290000D02*
G01*
X1070000Y3210000D01*
X1070000Y3165000D01*
X1094660Y3140340D01*
X1110000Y3140340D01*
X1120000Y3150340D02*
G01*
X1162240Y3108099D01*
X1162240Y3062500D01*
X1193739Y3062500D02*
G01*
X1195000Y3063760D01*
X1195000Y3112269D01*
X1170000Y3137269D01*
X1170000Y3240000D01*
X1110000Y3300000D01*
X1100000Y3300000D01*
X1200000Y3300000D02*
G01*
X1200000Y3130000D01*
X1225240Y3104760D01*
X1225240Y3062500D01*
X460000Y2617559D02*
G01*
X585000Y2617559D01*
X710000Y3036390D02*
G01*
X651390Y3095000D01*
X445000Y3095000D01*
X435000Y3110000D01*
X433611Y3150000D01*
X400000Y2400000D02*
G01*
X250000Y2550000D01*
X250000Y2585000D01*
X282559Y2617559D01*
X340000Y2617559D01*
X460000Y2562399D02*
G01*
X487600Y2590000D01*
X640000Y2590000D01*
X640000Y2770000D01*
X695000Y2825000D01*
X795000Y2825000D01*
X838310Y2781689D01*
X838310Y2779450D01*
X585000Y2562440D02*
G01*
X587440Y2560000D01*
X795000Y2560000D01*
X802452Y2567453D01*
X802452Y2615000D01*
X1605000Y2767440D02*
G01*
X1605000Y2635000D01*
X1640000Y2600000D01*
X1700000Y2600000D01*
X1487560Y2775000D02*
G01*
X1460000Y2747440D01*
X1460000Y2655000D01*
X1465000Y2650000D01*
X1550000Y2650000D01*
X1553311Y2648312D01*
X1553311Y2584996D01*
X1489660Y2695000D02*
G01*
X1545000Y2750340D01*
X1545000Y2810000D01*
X1557560Y2822559D01*
X1605000Y2822559D01*
X1440360Y2961619D02*
G01*
X1446980Y2955000D01*
X1660000Y2955000D01*
X1699717Y2994717D01*
X1701581Y2994717D01*
X600000Y2400000D02*
G01*
X715000Y2515000D01*
X910000Y2515000D01*
X1005000Y2605000D01*
X1005000Y2610000D01*
X1004799Y2614800D01*
X1004799Y2717500D01*
X900000Y2400000D02*
G01*
X1099250Y2599250D01*
X1099250Y2717500D01*
X1000000Y2400000D02*
G01*
X1130749Y2530749D01*
X1130749Y2717500D01*
X1225240Y2717500D02*
G01*
X1225240Y2474760D01*
X1300000Y2400000D01*
X1200000Y2400000D02*
G01*
X1193739Y2406260D01*
X838310Y2779450D02*
G01*
X870119Y2811260D01*
X943000Y2811260D01*
X1330000Y2591959D02*
G01*
X1336963Y2584996D01*
X1466692Y2584996D01*
X1286999Y2779760D02*
G01*
X1330000Y2736759D01*
X1330000Y2668040D01*
X1432439Y2775000D02*
G01*
X1430339Y2772899D01*
X1430339Y2695000D01*
X1487559Y2855000D02*
G01*
X1487560Y2854998D01*
X1487560Y2775000D01*
X1287002Y2811260D02*
G01*
X1396180Y2811260D01*
X1432439Y2775000D01*
X1287002Y2905749D02*
G01*
X1384489Y2905749D01*
X1440360Y2961619D01*
X1060000Y2910000D02*
G01*
X1064250Y2905749D01*
X1286999Y2905749D01*
X357500Y2945000D02*
G01*
X415000Y2945000D01*
X455000Y2905000D01*
X708609Y2905000D01*
X710000Y2903609D01*
X585000Y2617561D02*
G01*
X573310Y2629250D01*
X573310Y2730000D01*
X340000Y2562438D02*
G01*
X367438Y2562438D01*
X422561Y2617561D01*
X460000Y2617561D01*
X340338Y2740000D02*
G01*
X340000Y2617561D01*
X578310Y2750000D02*
G01*
X582500Y2754189D01*
X582500Y2854450D01*
X399659Y2750000D02*
G01*
X491689Y2750000D01*
X357500Y2945000D02*
G01*
X340340Y2927840D01*
X340340Y2750000D01*
X566388Y3150000D02*
G01*
X565000Y3150000D01*
X500000Y3215000D01*
X365000Y3215000D01*
X335000Y3185000D01*
X335000Y3135000D01*
X434450Y3035549D01*
X582500Y3035549D01*
X1600000Y3300000D02*
G01*
X1700000Y3200000D01*
X1700000Y3100000D01*
X1700000Y3100000D02*
G01*
X1701580Y3098420D01*
X1701580Y2994720D01*
X582500Y2854499D02*
G01*
X854399Y2854499D01*
X875799Y2874299D01*
X943000Y2874299D01*
X1286999Y2937240D02*
G01*
X1317240Y2937240D01*
X1500000Y3120000D01*
X1500000Y3135000D01*
X1500000Y3165000D01*
X1500000Y3300000D01*
X1286999Y3000239D02*
G01*
X1330000Y3043240D01*
X1330000Y3195000D01*
X1300000Y3225000D01*
X1300000Y3300000D01*
X942997Y2905749D02*
G01*
X943747Y2905000D01*
X1000000Y2905000D01*
X1075000Y3255000D02*
G01*
X1120000Y3209699D01*
X1036260Y3062500D02*
G01*
X1035000Y3061239D01*
X1035000Y3033099D01*
X948000Y2845749D02*
G01*
X1092240Y2845749D01*
X1123739Y2814250D01*
X1291999Y2814250D01*
X1045000Y3195000D02*
G01*
X1020339Y3219659D01*
X1000000Y3219659D01*
X1067799Y3062500D02*
G01*
X1065000Y3065300D01*
X1065000Y3100000D01*
X1035000Y3130000D01*
X925000Y3130000D01*
X800000Y3255000D01*
X800000Y3300000D01*
X1000000Y3160340D02*
G01*
X1005339Y3155000D01*
X1050000Y3155000D01*
X1085000Y3120000D01*
X1125000Y3120000D01*
X1130801Y3114299D01*
X1130801Y3062500D01*
X751700Y2779499D02*
G01*
X680000Y2780000D01*
X665000Y2765000D01*
X665000Y2625000D01*
X675000Y2615000D01*
X935000Y2615000D01*
X943000Y2623000D01*
X943000Y2779800D01*
X1052105Y2845749D02*
G01*
X1070000Y2827854D01*
X1070000Y2810000D01*
X1036260Y3062500D02*
G01*
X1036260Y3043739D01*
X1053720Y3026278D01*
X1053720Y2951278D01*
X1070000Y2935000D01*
X1286999Y2874250D02*
G01*
X1413190Y2874250D01*
X1432439Y2855000D01*
X1487559Y2855000D02*
G01*
X1440360Y2902199D01*
X1440360Y2961619D01*
X1543379Y3064639D02*
G01*
X1583019Y3025000D01*
X1605000Y3025000D01*
X1099250Y3062500D02*
G01*
X1099250Y3040749D01*
X1140000Y3000000D01*
X1067799Y3062500D02*
G01*
X1080000Y3050300D01*
X1080000Y2975000D01*
X1100000Y2975000D01*
X1100000Y2975000D01*
X1645000Y2915000D02*
G01*
X1605000Y2875000D01*
X1605000Y2822561D01*
X1286999Y2842759D02*
G01*
X1289759Y2840000D01*
X1355000Y2840000D01*
X800000Y2400000D02*
G01*
X865000Y2465000D01*
X925000Y2465000D01*
X1067759Y2607759D01*
X1067759Y2717500D01*
X710000Y2903609D02*
G01*
X803612Y2903609D01*
X805752Y2905749D01*
X942997Y2905749D01*
X1701580Y2894720D02*
G01*
X1760000Y2836300D01*
X1760000Y2405000D01*
X1756580Y2401579D01*
X1605280Y2401579D01*
X1330000Y2668040D02*
G01*
X1326959Y2665000D01*
X1275000Y2665000D01*
X1260000Y2650000D01*
X1260000Y2485000D01*
X1280000Y2465000D01*
X1360000Y2465000D01*
X1400000Y2425000D01*
X1400000Y2400000D01*
X1605299Y2401599D02*
G01*
X1605299Y2490000D01*
X1345000Y2490000D01*
X1280000Y2555000D01*
X1280000Y2630000D01*
X1365299Y2630000D01*
X1430299Y2695000D01*
X1200000Y2400000D02*
G01*
X1200000Y2410000D01*
X1193739Y2717500D01*
X392015Y2587015D02*
G01*
X395000Y2584029D01*
X395000Y2485000D01*
X480000Y2400000D01*
X505000Y2400000D01*
X400000Y3300000D02*
G01*
X445000Y3255000D01*
X490000Y3255000D01*
X525000Y3220000D01*
X610000Y3220000D01*
X750000Y3080000D01*
X785000Y3080000D01*
X896260Y2968739D01*
X943000Y2968739D01*
X500000Y3300000D02*
G01*
X555000Y3245000D01*
X620000Y3245000D01*
X760000Y3105000D01*
X790000Y3105000D01*
X894759Y3000239D01*
X943000Y3000239D01*
X1286999Y2968739D02*
G01*
X1288260Y2970000D01*
X1325000Y2970000D01*
X1445000Y3090000D01*
X1445000Y3280000D01*
X1425000Y3300000D01*
X1400000Y3300000D01*
X700000Y2400000D02*
G01*
X790000Y2490000D01*
X920000Y2490000D01*
X1036260Y2606260D01*
X1036260Y2717500D01*
X1100000Y2400000D02*
G01*
X1162240Y2462240D01*
X1162240Y2717500D01*
D11*
X1004759Y3086122D02*
G01*
X1004759Y3038877D01*
X1036260Y3086122D02*
G01*
X1036260Y3038877D01*
X1067759Y3086122D02*
G01*
X1067759Y3038877D01*
X1099250Y3086122D02*
G01*
X1099250Y3038877D01*
X1130749Y3086122D02*
G01*
X1130749Y3038877D01*
X1162240Y3086122D02*
G01*
X1162240Y3038877D01*
X1193739Y3086122D02*
G01*
X1193739Y3038877D01*
X1225240Y3086122D02*
G01*
X1225240Y3038877D01*
X1310622Y3000239D02*
G01*
X1263378Y3000239D01*
X1310622Y2968739D02*
G01*
X1263378Y2968739D01*
X1310622Y2937240D02*
G01*
X1263378Y2937240D01*
X1310622Y2905749D02*
G01*
X1263378Y2905749D01*
X1310622Y2874250D02*
G01*
X1263378Y2874250D01*
X1310622Y2842759D02*
G01*
X1263378Y2842759D01*
X1310622Y2811260D02*
G01*
X1263378Y2811260D01*
X1310622Y2779760D02*
G01*
X1263378Y2779760D01*
X1225240Y2741122D02*
G01*
X1225240Y2693877D01*
X1193739Y2741122D02*
G01*
X1193739Y2693877D01*
X1162240Y2741122D02*
G01*
X1162240Y2693877D01*
X1130749Y2741122D02*
G01*
X1130749Y2693877D01*
X1099250Y2741122D02*
G01*
X1099250Y2693877D01*
X1067759Y2741122D02*
G01*
X1067759Y2693877D01*
X1036260Y2741122D02*
G01*
X1036260Y2693877D01*
X1004759Y2741122D02*
G01*
X1004759Y2693877D01*
X966621Y2779760D02*
G01*
X919377Y2779760D01*
X966621Y2811260D02*
G01*
X919377Y2811260D01*
X966621Y2842759D02*
G01*
X919377Y2842759D01*
X966621Y2874250D02*
G01*
X919377Y2874250D01*
X966621Y2905749D02*
G01*
X919377Y2905749D01*
X966621Y2937240D02*
G01*
X919377Y2937240D01*
X966621Y2968739D02*
G01*
X919377Y2968739D01*
X966621Y3000239D02*
G01*
X919377Y3000239D01*
G36*
X356219Y2767008D02*
G01*
X356219Y2732991D01*
X324468Y2732991D01*
X324468Y2767008D01*
G37*
G36*
X383780Y2767008D02*
G01*
X383780Y2732991D01*
X415531Y2732991D01*
X415531Y2767008D01*
G37*
G36*
X531790Y3124488D02*
G01*
X531790Y3175511D01*
X600983Y3175511D01*
X600983Y3124488D01*
G37*
G36*
X468209Y3124488D02*
G01*
X468209Y3175511D01*
X399016Y3175511D01*
X399016Y3124488D01*
G37*
G36*
X684488Y2938209D02*
G01*
X735511Y2938209D01*
X735511Y2869016D01*
X684488Y2869016D01*
G37*
D15*
G01*
X710000Y3036390D03*
D16*
G01*
X340000Y2617559D03*
G01*
X340000Y2562440D03*
G01*
X460000Y2562440D03*
G01*
X460000Y2617559D03*
G01*
X585000Y2562440D03*
G01*
X585000Y2617559D03*
D17*
G01*
X1432439Y2855000D03*
G01*
X1487560Y2855000D03*
G01*
X1432439Y2775000D03*
G01*
X1487560Y2775000D03*
D16*
G01*
X1605000Y2767440D03*
G01*
X1605000Y2822559D03*
G36*
X472006Y2774602D02*
G01*
X511377Y2774602D01*
X511377Y2725390D01*
X472006Y2725390D01*
G37*
G36*
X558627Y2774602D02*
G01*
X597997Y2774602D01*
X597997Y2725390D01*
X558627Y2725390D01*
G37*
G36*
X1447007Y2609602D02*
G01*
X1486377Y2609602D01*
X1486377Y2560390D01*
X1447007Y2560390D01*
G37*
G36*
X1533626Y2609602D02*
G01*
X1572996Y2609602D01*
X1572996Y2560390D01*
X1533626Y2560390D01*
G37*
G36*
X1017007Y3203780D02*
G01*
X982992Y3203780D01*
X982992Y3235531D01*
X1017007Y3235531D01*
G37*
D19*
G01*
X1000000Y3160340D03*
G36*
X1137007Y3193780D02*
G01*
X1102992Y3193780D01*
X1102992Y3225531D01*
X1137007Y3225531D01*
G37*
G01*
X1120000Y3150340D03*
G36*
X1357106Y2645747D02*
G01*
X1302893Y2645747D01*
X1302893Y2690336D01*
X1357106Y2690336D01*
G37*
D20*
G01*
X1330000Y2591959D03*
G36*
X1349864Y3285927D02*
G01*
X1397191Y3238600D01*
X1369353Y3210763D01*
X1322026Y3258089D01*
G37*
G36*
X1533636Y3102226D02*
G01*
X1580963Y3054901D01*
X1553125Y3027062D01*
X1505798Y3074389D01*
G37*
G36*
X1246875Y3182937D02*
G01*
X1294201Y3135610D01*
X1266363Y3107773D01*
X1219036Y3155099D01*
G37*
G36*
X1430610Y2999202D02*
G01*
X1477938Y2951875D01*
X1450099Y2924036D01*
X1402772Y2971363D01*
G37*
G36*
X631024Y2833780D02*
G01*
X631024Y2875118D01*
X533975Y2875118D01*
X533975Y2833780D01*
G37*
G36*
X631024Y2924331D02*
G01*
X631024Y2965668D01*
X533975Y2965668D01*
X533975Y2924331D01*
G37*
G36*
X631024Y3014881D02*
G01*
X631024Y3056219D01*
X533975Y3056219D01*
X533975Y3014881D01*
G37*
G36*
X406024Y3014684D02*
G01*
X406024Y2875315D01*
X308975Y2875315D01*
X308975Y3014684D01*
G37*
G36*
X724133Y2734176D02*
G01*
X779251Y2734176D01*
X779251Y2686932D01*
X724133Y2686932D01*
G37*
G36*
X810748Y2734176D02*
G01*
X865865Y2734176D01*
X865865Y2686932D01*
X810748Y2686932D01*
G37*
G36*
X810748Y2803076D02*
G01*
X865865Y2803076D01*
X865865Y2755832D01*
X810748Y2755832D01*
G37*
G36*
X724133Y2803074D02*
G01*
X779251Y2803074D01*
X779251Y2755830D01*
X724133Y2755830D01*
G37*
G36*
X1446220Y2712008D02*
G01*
X1446220Y2677991D01*
X1414468Y2677991D01*
X1414468Y2712008D01*
G37*
G36*
X1473779Y2712008D02*
G01*
X1473779Y2677991D01*
X1505531Y2677991D01*
X1505531Y2712008D01*
G37*
D25*
G01*
X400000Y3300000D03*
G01*
X500000Y3300000D03*
G01*
X600000Y3300000D03*
G01*
X700000Y3300000D03*
G01*
X800000Y3300000D03*
G01*
X900000Y3300000D03*
G01*
X1000000Y3300000D03*
G01*
X1100000Y3300000D03*
G01*
X1200000Y3300000D03*
G01*
X1300000Y3300000D03*
G01*
X1400000Y3300000D03*
G01*
X1500000Y3300000D03*
G01*
X1600000Y3300000D03*
G01*
X505000Y2400000D03*
G01*
X600000Y2400000D03*
G01*
X700000Y2400000D03*
G01*
X800000Y2400000D03*
G01*
X900000Y2400000D03*
G01*
X1000000Y2400000D03*
G01*
X1100000Y2400000D03*
G01*
X1200000Y2400000D03*
G01*
X1300000Y2400000D03*
G01*
X1400000Y2400000D03*
G01*
X1500000Y2400000D03*
G01*
X1605280Y2401579D03*
G01*
X1700000Y3100000D03*
G01*
X1701580Y2994720D03*
G01*
X1701580Y2894720D03*
G01*
X1701580Y2794720D03*
G01*
X1701580Y2694720D03*
G01*
X1700000Y2600000D03*
G01*
X400000Y2400000D03*
D12*
G01*
X1000000Y2905000D03*
G01*
X1045000Y3195000D03*
G01*
X1075000Y3255000D03*
G01*
X1070000Y2810000D03*
G01*
X1070000Y2935000D03*
G01*
X1605000Y3025000D03*
G01*
X1645000Y2915000D03*
G01*
X1140000Y3000000D03*
G01*
X1100000Y2975000D03*
G01*
X1355000Y2840000D03*
M02*
