G04 Layer: TopPasteMaskLayer*
G04 EasyEDA v6.5.3, 2022-04-19 22:15:57*
G04 160cfc1a8d0c4c478010f6dc8366fd90,3d704182bbbd40308880d08212c7ad4d,10*
G04 Gerber Generator version 0.2*
G04 Scale: 100 percent, Rotated: No, Reflected: No *
G04 Dimensions in inches *
G04 leading zeros omitted , absolute positions ,3 integer and 6 decimal *
%FSLAX36Y36*%
%MOIN*%

%ADD11C,0.0177*%
%ADD15R,0.0510X0.0692*%
%ADD16R,0.0354X0.0315*%
%ADD17R,0.0315X0.0354*%

%LPD*%
G36*
X322960Y2767720D02*
G01*
X320980Y2765740D01*
X320980Y2734260D01*
X322960Y2732280D01*
X354440Y2732280D01*
X356420Y2734260D01*
X356420Y2743220D01*
X341840Y2743220D01*
X341840Y2756220D01*
X356420Y2756220D01*
X356420Y2765740D01*
X354440Y2767720D01*
G37*
G36*
X385940Y2767720D02*
G01*
X383980Y2765740D01*
X383980Y2756220D01*
X398940Y2756220D01*
X398940Y2743220D01*
X383980Y2743220D01*
X383980Y2734260D01*
X385940Y2732280D01*
X417040Y2732280D01*
X419020Y2734260D01*
X419020Y2765740D01*
X417040Y2767720D01*
G37*
G36*
X984260Y3239020D02*
G01*
X982280Y3237040D01*
X982280Y3205560D01*
X984260Y3203580D01*
X993220Y3203580D01*
X993220Y3218159D01*
X1006220Y3218159D01*
X1006220Y3203580D01*
X1015740Y3203580D01*
X1017720Y3205560D01*
X1017720Y3237040D01*
X1015740Y3239020D01*
G37*
G36*
X984260Y3176019D02*
G01*
X982280Y3174060D01*
X982280Y3142960D01*
X984260Y3140980D01*
X1015740Y3140980D01*
X1017720Y3142960D01*
X1017720Y3174060D01*
X1015740Y3176019D01*
X1006220Y3176019D01*
X1006220Y3161060D01*
X993220Y3161060D01*
X993220Y3176019D01*
G37*
G36*
X1104260Y3229020D02*
G01*
X1102280Y3227040D01*
X1102280Y3195560D01*
X1104260Y3193580D01*
X1113220Y3193580D01*
X1113220Y3208159D01*
X1126220Y3208159D01*
X1126220Y3193580D01*
X1135740Y3193580D01*
X1137720Y3195560D01*
X1137720Y3227040D01*
X1135740Y3229020D01*
G37*
G36*
X1104260Y3166019D02*
G01*
X1102280Y3164060D01*
X1102280Y3132960D01*
X1104260Y3130980D01*
X1135740Y3130980D01*
X1137720Y3132960D01*
X1137720Y3164060D01*
X1135740Y3166019D01*
X1126220Y3166019D01*
X1126220Y3151060D01*
X1113220Y3151060D01*
X1113220Y3166019D01*
G37*
G36*
X1320940Y2612480D02*
G01*
X1304800Y2612280D01*
X1302840Y2610320D01*
X1302840Y2565040D01*
X1304800Y2563060D01*
X1355200Y2563060D01*
X1357160Y2565040D01*
X1357160Y2610320D01*
X1355200Y2612280D01*
X1338660Y2612080D01*
X1338660Y2594760D01*
X1320940Y2594760D01*
G37*
G36*
X1304800Y2696920D02*
G01*
X1302840Y2694960D01*
X1302840Y2649680D01*
X1304800Y2647720D01*
X1320940Y2647919D01*
X1320940Y2665240D01*
X1338660Y2665240D01*
X1338660Y2647720D01*
X1355200Y2647720D01*
X1357160Y2649680D01*
X1357160Y2694960D01*
X1355200Y2696920D01*
G37*
G36*
X1412960Y2712720D02*
G01*
X1410980Y2710740D01*
X1410980Y2679260D01*
X1412960Y2677280D01*
X1444440Y2677280D01*
X1446420Y2679260D01*
X1446420Y2688220D01*
X1431860Y2688220D01*
X1431860Y2701220D01*
X1446420Y2701220D01*
X1446420Y2710740D01*
X1444440Y2712720D01*
G37*
G36*
X1475940Y2712720D02*
G01*
X1473980Y2710740D01*
X1473980Y2701220D01*
X1488940Y2701220D01*
X1488940Y2688220D01*
X1473980Y2688220D01*
X1473980Y2679260D01*
X1475940Y2677280D01*
X1507040Y2677280D01*
X1509019Y2679260D01*
X1509019Y2710740D01*
X1507040Y2712720D01*
G37*
D11*
X1004759Y3086122D02*
G01*
X1004759Y3038877D01*
X1036260Y3086122D02*
G01*
X1036260Y3038877D01*
X1067759Y3086122D02*
G01*
X1067759Y3038877D01*
X1099250Y3086122D02*
G01*
X1099250Y3038877D01*
X1130749Y3086122D02*
G01*
X1130749Y3038877D01*
X1162240Y3086122D02*
G01*
X1162240Y3038877D01*
X1193739Y3086122D02*
G01*
X1193739Y3038877D01*
X1225240Y3086122D02*
G01*
X1225240Y3038877D01*
X1310622Y3000239D02*
G01*
X1263378Y3000239D01*
X1310622Y2968739D02*
G01*
X1263378Y2968739D01*
X1310622Y2937240D02*
G01*
X1263378Y2937240D01*
X1310622Y2905749D02*
G01*
X1263378Y2905749D01*
X1310622Y2874250D02*
G01*
X1263378Y2874250D01*
X1310622Y2842759D02*
G01*
X1263378Y2842759D01*
X1310622Y2811260D02*
G01*
X1263378Y2811260D01*
X1310622Y2779760D02*
G01*
X1263378Y2779760D01*
X1225240Y2741122D02*
G01*
X1225240Y2693877D01*
X1193739Y2741122D02*
G01*
X1193739Y2693877D01*
X1162240Y2741122D02*
G01*
X1162240Y2693877D01*
X1130749Y2741122D02*
G01*
X1130749Y2693877D01*
X1099250Y2741122D02*
G01*
X1099250Y2693877D01*
X1067759Y2741122D02*
G01*
X1067759Y2693877D01*
X1036260Y2741122D02*
G01*
X1036260Y2693877D01*
X1004759Y2741122D02*
G01*
X1004759Y2693877D01*
X966621Y2779760D02*
G01*
X919377Y2779760D01*
X966621Y2811260D02*
G01*
X919377Y2811260D01*
X966621Y2842759D02*
G01*
X919377Y2842759D01*
X966621Y2874250D02*
G01*
X919377Y2874250D01*
X966621Y2905749D02*
G01*
X919377Y2905749D01*
X966621Y2937240D02*
G01*
X919377Y2937240D01*
X966621Y2968739D02*
G01*
X919377Y2968739D01*
X966621Y3000239D02*
G01*
X919377Y3000239D01*
G36*
X531790Y3124488D02*
G01*
X531790Y3175511D01*
X600983Y3175511D01*
X600983Y3124488D01*
G37*
G36*
X468209Y3124488D02*
G01*
X468209Y3175511D01*
X399016Y3175511D01*
X399016Y3124488D01*
G37*
G36*
X684488Y2938209D02*
G01*
X735511Y2938209D01*
X735511Y2869016D01*
X684488Y2869016D01*
G37*
D15*
G01*
X710000Y3036390D03*
D16*
G01*
X340000Y2617559D03*
G01*
X340000Y2562440D03*
G01*
X460000Y2562440D03*
G01*
X460000Y2617559D03*
G01*
X585000Y2562440D03*
G01*
X585000Y2617559D03*
D17*
G01*
X1432439Y2855000D03*
G01*
X1487560Y2855000D03*
G01*
X1432439Y2775000D03*
G01*
X1487560Y2775000D03*
D16*
G01*
X1605000Y2767440D03*
G01*
X1605000Y2822559D03*
G36*
X472006Y2774602D02*
G01*
X511377Y2774602D01*
X511377Y2725390D01*
X472006Y2725390D01*
G37*
G36*
X558627Y2774602D02*
G01*
X597997Y2774602D01*
X597997Y2725390D01*
X558627Y2725390D01*
G37*
G36*
X1447007Y2609602D02*
G01*
X1486377Y2609602D01*
X1486377Y2560390D01*
X1447007Y2560390D01*
G37*
G36*
X1533626Y2609602D02*
G01*
X1572996Y2609602D01*
X1572996Y2560390D01*
X1533626Y2560390D01*
G37*
G36*
X1349864Y3285927D02*
G01*
X1397191Y3238600D01*
X1369353Y3210763D01*
X1322026Y3258089D01*
G37*
G36*
X1533636Y3102226D02*
G01*
X1580963Y3054901D01*
X1553125Y3027062D01*
X1505798Y3074389D01*
G37*
G36*
X1246875Y3182937D02*
G01*
X1294201Y3135610D01*
X1266363Y3107773D01*
X1219036Y3155099D01*
G37*
G36*
X1430610Y2999202D02*
G01*
X1477938Y2951875D01*
X1450099Y2924036D01*
X1402772Y2971363D01*
G37*
G36*
X631024Y2833779D02*
G01*
X631024Y2875118D01*
X533975Y2875118D01*
X533975Y2833779D01*
G37*
G36*
X631024Y2924331D02*
G01*
X631024Y2965668D01*
X533975Y2965668D01*
X533975Y2924331D01*
G37*
G36*
X631024Y3014881D02*
G01*
X631024Y3056220D01*
X533975Y3056220D01*
X533975Y3014881D01*
G37*
G36*
X406024Y3014684D02*
G01*
X406024Y2875315D01*
X308975Y2875315D01*
X308975Y3014684D01*
G37*
G36*
X724133Y2734176D02*
G01*
X779251Y2734176D01*
X779251Y2686933D01*
X724133Y2686933D01*
G37*
G36*
X810748Y2734176D02*
G01*
X865865Y2734176D01*
X865865Y2686933D01*
X810748Y2686933D01*
G37*
G36*
X810748Y2803076D02*
G01*
X865865Y2803076D01*
X865865Y2755832D01*
X810748Y2755832D01*
G37*
G36*
X724133Y2803074D02*
G01*
X779251Y2803074D01*
X779251Y2755830D01*
X724133Y2755830D01*
G37*
M02*
