G04 Layer: BottomLayer*
G04 EasyEDA v6.5.3, 2022-04-19 22:15:57*
G04 160cfc1a8d0c4c478010f6dc8366fd90,3d704182bbbd40308880d08212c7ad4d,10*
G04 Gerber Generator version 0.2*
G04 Scale: 100 percent, Rotated: No, Reflected: No *
G04 Dimensions in inches *
G04 leading zeros omitted , absolute positions ,3 integer and 6 decimal *
%FSLAX36Y36*%
%MOIN*%

%ADD10C,0.0100*%
%ADD12C,0.0240*%
%ADD25C,0.0600*%

%LPD*%
D10*
X1045000Y3195000D02*
G01*
X1075000Y3225000D01*
X1075000Y3255000D01*
X1070000Y2810000D02*
G01*
X1000000Y2880000D01*
X1000000Y2905000D01*
X1000000Y2905000D02*
G01*
X1020000Y2925000D01*
X1020000Y3195000D01*
X1045000Y3195000D01*
X1140000Y3000000D02*
G01*
X1590000Y3000000D01*
X1605000Y3015000D01*
X1605000Y3025000D01*
X1070000Y2935000D02*
G01*
X1561301Y2935000D01*
X1701581Y2794719D01*
X1701599Y2694699D02*
G01*
X1570000Y2695000D01*
X1375000Y2890000D01*
X1350000Y2890000D01*
X1340000Y2880000D01*
X1085000Y2880000D01*
X1040000Y2925000D01*
X1040000Y2945000D01*
X1070000Y2975000D01*
X1100000Y2975000D01*
X1605000Y3025000D02*
G01*
X1645000Y2985000D01*
X1645000Y2915000D01*
X1355000Y2840000D02*
G01*
X1500000Y2695000D01*
X1500000Y2400000D01*
D25*
G01*
X400000Y3300000D03*
G01*
X500000Y3300000D03*
G01*
X600000Y3300000D03*
G01*
X700000Y3300000D03*
G01*
X800000Y3300000D03*
G01*
X900000Y3300000D03*
G01*
X1000000Y3300000D03*
G01*
X1100000Y3300000D03*
G01*
X1200000Y3300000D03*
G01*
X1300000Y3300000D03*
G01*
X1400000Y3300000D03*
G01*
X1500000Y3300000D03*
G01*
X1600000Y3300000D03*
G01*
X505000Y2400000D03*
G01*
X600000Y2400000D03*
G01*
X700000Y2400000D03*
G01*
X800000Y2400000D03*
G01*
X900000Y2400000D03*
G01*
X1000000Y2400000D03*
G01*
X1100000Y2400000D03*
G01*
X1200000Y2400000D03*
G01*
X1300000Y2400000D03*
G01*
X1400000Y2400000D03*
G01*
X1500000Y2400000D03*
G01*
X1605280Y2401579D03*
G01*
X1700000Y3100000D03*
G01*
X1701580Y2994720D03*
G01*
X1701580Y2894720D03*
G01*
X1701580Y2794720D03*
G01*
X1701580Y2694720D03*
G01*
X1700000Y2600000D03*
G01*
X400000Y2400000D03*
D12*
G01*
X1000000Y2905000D03*
G01*
X1045000Y3195000D03*
G01*
X1075000Y3255000D03*
G01*
X1070000Y2810000D03*
G01*
X1070000Y2935000D03*
G01*
X1605000Y3025000D03*
G01*
X1645000Y2915000D03*
G01*
X1140000Y3000000D03*
G01*
X1100000Y2975000D03*
G01*
X1355000Y2840000D03*
M02*
