G04 Layer: TopSolderMaskLayer*
G04 EasyEDA v6.5.3, 2022-04-19 22:15:57*
G04 160cfc1a8d0c4c478010f6dc8366fd90,3d704182bbbd40308880d08212c7ad4d,10*
G04 Gerber Generator version 0.2*
G04 Scale: 100 percent, Rotated: No, Reflected: No *
G04 Dimensions in inches *
G04 leading zeros omitted , absolute positions ,3 integer and 6 decimal *
%FSLAX36Y36*%
%MOIN*%

%ADD31C,0.0217*%
%ADD44C,0.0640*%

%LPD*%
D31*
X1004759Y3086122D02*
G01*
X1004759Y3038877D01*
X1036260Y3086122D02*
G01*
X1036260Y3038877D01*
X1067759Y3086122D02*
G01*
X1067759Y3038877D01*
X1099250Y3086122D02*
G01*
X1099250Y3038877D01*
X1130749Y3086122D02*
G01*
X1130749Y3038877D01*
X1162240Y3086122D02*
G01*
X1162240Y3038877D01*
X1193739Y3086122D02*
G01*
X1193739Y3038877D01*
X1225240Y3086122D02*
G01*
X1225240Y3038877D01*
X1310622Y3000239D02*
G01*
X1263378Y3000239D01*
X1310622Y2968739D02*
G01*
X1263378Y2968739D01*
X1310622Y2937240D02*
G01*
X1263378Y2937240D01*
X1310622Y2905749D02*
G01*
X1263378Y2905749D01*
X1310622Y2874250D02*
G01*
X1263378Y2874250D01*
X1310622Y2842759D02*
G01*
X1263378Y2842759D01*
X1310622Y2811260D02*
G01*
X1263378Y2811260D01*
X1310622Y2779760D02*
G01*
X1263378Y2779760D01*
X1225240Y2741122D02*
G01*
X1225240Y2693877D01*
X1193739Y2741122D02*
G01*
X1193739Y2693877D01*
X1162240Y2741122D02*
G01*
X1162240Y2693877D01*
X1130749Y2741122D02*
G01*
X1130749Y2693877D01*
X1099250Y2741122D02*
G01*
X1099250Y2693877D01*
X1067759Y2741122D02*
G01*
X1067759Y2693877D01*
X1036260Y2741122D02*
G01*
X1036260Y2693877D01*
X1004759Y2741122D02*
G01*
X1004759Y2693877D01*
X966621Y2779760D02*
G01*
X919377Y2779760D01*
X966621Y2811260D02*
G01*
X919377Y2811260D01*
X966621Y2842759D02*
G01*
X919377Y2842759D01*
X966621Y2874250D02*
G01*
X919377Y2874250D01*
X966621Y2905749D02*
G01*
X919377Y2905749D01*
X966621Y2937240D02*
G01*
X919377Y2937240D01*
X966621Y2968739D02*
G01*
X919377Y2968739D01*
X966621Y3000239D02*
G01*
X919377Y3000239D01*
G36*
X322500Y2730999D02*
G01*
X322500Y2769000D01*
X358200Y2769000D01*
X358200Y2730999D01*
G37*
G36*
X381799Y2730999D02*
G01*
X381799Y2769000D01*
X417500Y2769000D01*
X417500Y2730999D01*
G37*
G36*
X529800Y3122500D02*
G01*
X529800Y3177500D01*
X603000Y3177500D01*
X603000Y3122500D01*
G37*
G36*
X396999Y3122500D02*
G01*
X396999Y3177500D01*
X470199Y3177500D01*
X470199Y3122500D01*
G37*
G36*
X682500Y2866999D02*
G01*
X682500Y2940200D01*
X737500Y2940200D01*
X737500Y2866999D01*
G37*
G36*
X682500Y2999800D02*
G01*
X682500Y3073000D01*
X737500Y3073000D01*
X737500Y2999800D01*
G37*
G36*
X320300Y2599800D02*
G01*
X320300Y2635300D01*
X359699Y2635300D01*
X359699Y2599800D01*
G37*
G36*
X320300Y2544699D02*
G01*
X320300Y2580200D01*
X359699Y2580200D01*
X359699Y2544699D01*
G37*
G36*
X440300Y2544699D02*
G01*
X440300Y2580200D01*
X479699Y2580200D01*
X479699Y2544699D01*
G37*
G36*
X440300Y2599800D02*
G01*
X440300Y2635300D01*
X479699Y2635300D01*
X479699Y2599800D01*
G37*
G36*
X565300Y2544699D02*
G01*
X565300Y2580200D01*
X604699Y2580200D01*
X604699Y2544699D01*
G37*
G36*
X565300Y2599800D02*
G01*
X565300Y2635300D01*
X604699Y2635300D01*
X604699Y2599800D01*
G37*
G36*
X1414700Y2835300D02*
G01*
X1414700Y2874699D01*
X1450200Y2874699D01*
X1450200Y2835300D01*
G37*
G36*
X1469799Y2835300D02*
G01*
X1469799Y2874699D01*
X1505299Y2874699D01*
X1505299Y2835300D01*
G37*
G36*
X1414700Y2755300D02*
G01*
X1414700Y2794699D01*
X1450200Y2794699D01*
X1450200Y2755300D01*
G37*
G36*
X1469799Y2755300D02*
G01*
X1469799Y2794699D01*
X1505299Y2794699D01*
X1505299Y2755300D01*
G37*
G36*
X1585299Y2749699D02*
G01*
X1585299Y2785200D01*
X1624700Y2785200D01*
X1624700Y2749699D01*
G37*
G36*
X1585299Y2804800D02*
G01*
X1585299Y2840300D01*
X1624700Y2840300D01*
X1624700Y2804800D01*
G37*
G36*
X470000Y2723400D02*
G01*
X470000Y2776599D01*
X513400Y2776599D01*
X513400Y2723400D01*
G37*
G36*
X556599Y2723400D02*
G01*
X556599Y2776599D01*
X600000Y2776599D01*
X600000Y2723400D01*
G37*
G36*
X1445000Y2558400D02*
G01*
X1445000Y2611599D01*
X1488400Y2611599D01*
X1488400Y2558400D01*
G37*
G36*
X1531599Y2558400D02*
G01*
X1531599Y2611599D01*
X1575000Y2611599D01*
X1575000Y2558400D01*
G37*
G36*
X981000Y3201799D02*
G01*
X981000Y3237500D01*
X1018999Y3237500D01*
X1018999Y3201799D01*
G37*
G36*
X981000Y3142500D02*
G01*
X981000Y3178200D01*
X1018999Y3178200D01*
X1018999Y3142500D01*
G37*
G36*
X1101000Y3191799D02*
G01*
X1101000Y3227500D01*
X1138999Y3227500D01*
X1138999Y3191799D01*
G37*
G36*
X1101000Y3132500D02*
G01*
X1101000Y3168200D01*
X1138999Y3168200D01*
X1138999Y3132500D01*
G37*
G36*
X1300900Y2643699D02*
G01*
X1300900Y2692300D01*
X1359099Y2692300D01*
X1359099Y2643699D01*
G37*
G36*
X1300900Y2567700D02*
G01*
X1300900Y2616300D01*
X1359099Y2616300D01*
X1359099Y2567700D01*
G37*
G36*
X1369399Y3207899D02*
G01*
X1319200Y3258099D01*
X1349899Y3288800D01*
X1400000Y3238600D01*
G37*
G36*
X1553100Y3024200D02*
G01*
X1503000Y3074400D01*
X1533599Y3105100D01*
X1583800Y3054899D01*
G37*
G36*
X1266400Y3104899D02*
G01*
X1216199Y3155100D01*
X1246899Y3185799D01*
X1296999Y3135599D01*
G37*
G36*
X1450100Y2921199D02*
G01*
X1399899Y2971399D01*
X1430600Y3001999D01*
X1480799Y2951900D01*
G37*
G36*
X531999Y2831799D02*
G01*
X531999Y2877100D01*
X633000Y2877100D01*
X633000Y2831799D01*
G37*
G36*
X531999Y2922300D02*
G01*
X531999Y2967700D01*
X633000Y2967700D01*
X633000Y2922300D01*
G37*
G36*
X531999Y3012899D02*
G01*
X531999Y3058200D01*
X633000Y3058200D01*
X633000Y3012899D01*
G37*
G36*
X306999Y2873299D02*
G01*
X306999Y3016700D01*
X408000Y3016700D01*
X408000Y2873299D01*
G37*
G36*
X722100Y2684899D02*
G01*
X722100Y2736199D01*
X781300Y2736199D01*
X781300Y2684899D01*
G37*
G36*
X808699Y2684899D02*
G01*
X808699Y2736199D01*
X867899Y2736199D01*
X867899Y2684899D01*
G37*
G36*
X808699Y2753800D02*
G01*
X808699Y2805100D01*
X867899Y2805100D01*
X867899Y2753800D01*
G37*
G36*
X722100Y2753800D02*
G01*
X722100Y2805100D01*
X781300Y2805100D01*
X781300Y2753800D01*
G37*
G36*
X1412500Y2675999D02*
G01*
X1412500Y2714000D01*
X1448199Y2714000D01*
X1448199Y2675999D01*
G37*
G36*
X1471800Y2675999D02*
G01*
X1471800Y2714000D01*
X1507500Y2714000D01*
X1507500Y2675999D01*
G37*
D44*
G01*
X400000Y3300000D03*
G01*
X500000Y3300000D03*
G01*
X600000Y3300000D03*
G01*
X700000Y3300000D03*
G01*
X800000Y3300000D03*
G01*
X900000Y3300000D03*
G01*
X1000000Y3300000D03*
G01*
X1100000Y3300000D03*
G01*
X1200000Y3300000D03*
G01*
X1300000Y3300000D03*
G01*
X1400000Y3300000D03*
G01*
X1500000Y3300000D03*
G01*
X1600000Y3300000D03*
G01*
X505000Y2400000D03*
G01*
X600000Y2400000D03*
G01*
X700000Y2400000D03*
G01*
X800000Y2400000D03*
G01*
X900000Y2400000D03*
G01*
X1000000Y2400000D03*
G01*
X1100000Y2400000D03*
G01*
X1200000Y2400000D03*
G01*
X1300000Y2400000D03*
G01*
X1400000Y2400000D03*
G01*
X1500000Y2400000D03*
G01*
X1605280Y2401579D03*
G01*
X1700000Y3100000D03*
G01*
X1701580Y2994720D03*
G01*
X1701580Y2894720D03*
G01*
X1701580Y2794720D03*
G01*
X1701580Y2694720D03*
G01*
X1700000Y2600000D03*
G01*
X400000Y2400000D03*
M02*
