G04 Layer: TopSilkscreenLayer*
G04 EasyEDA v6.5.3, 2022-04-19 22:15:57*
G04 160cfc1a8d0c4c478010f6dc8366fd90,3d704182bbbd40308880d08212c7ad4d,10*
G04 Gerber Generator version 0.2*
G04 Scale: 100 percent, Rotated: No, Reflected: No *
G04 Dimensions in inches *
G04 leading zeros omitted , absolute positions ,3 integer and 6 decimal *
%FSLAX36Y36*%
%MOIN*%

%ADD10C,0.0100*%
%ADD26C,0.0060*%
%ADD27C,0.0060*%
%ADD28C,0.0118*%
%ADD29C,0.0157*%
%ADD30C,0.0030*%

%LPD*%
G36*
X897099Y2582400D02*
G01*
X890300Y2580600D01*
X890300Y2579200D01*
X894000Y2578900D01*
X894000Y2568500D01*
X892620Y2569880D01*
X891220Y2570779D01*
X889740Y2571259D01*
X888199Y2571400D01*
X886260Y2571200D01*
X884460Y2570600D01*
X882880Y2569640D01*
X881520Y2568340D01*
X880420Y2566740D01*
X879599Y2564820D01*
X879080Y2562640D01*
X878907Y2560299D01*
X882700Y2560299D01*
X883199Y2564340D01*
X884580Y2567120D01*
X886580Y2568700D01*
X889000Y2569200D01*
X890080Y2569080D01*
X891260Y2568680D01*
X892520Y2567940D01*
X893900Y2566800D01*
X893900Y2554200D01*
X892660Y2553000D01*
X891480Y2552240D01*
X890240Y2551820D01*
X888900Y2551700D01*
X886460Y2552180D01*
X884479Y2553720D01*
X883180Y2556380D01*
X882700Y2560299D01*
X878907Y2560299D01*
X879060Y2557900D01*
X879539Y2555820D01*
X880320Y2553980D01*
X881380Y2552400D01*
X882680Y2551120D01*
X884220Y2550180D01*
X885960Y2549600D01*
X887900Y2549400D01*
X889780Y2549620D01*
X891400Y2550260D01*
X892800Y2551260D01*
X894000Y2552600D01*
X894300Y2549600D01*
X901100Y2550000D01*
X901100Y2551400D01*
X897500Y2551800D01*
X897500Y2575800D01*
X897600Y2582100D01*
G37*
G36*
X919900Y2582400D02*
G01*
X913300Y2580600D01*
X913300Y2579200D01*
X916800Y2578900D01*
X916800Y2554100D01*
X920400Y2554100D01*
X920400Y2566600D01*
X922080Y2567940D01*
X923520Y2568720D01*
X924780Y2569100D01*
X925900Y2569200D01*
X928180Y2568639D01*
X929980Y2566960D01*
X931180Y2564180D01*
X931600Y2560299D01*
X931120Y2556380D01*
X929820Y2553720D01*
X927920Y2552180D01*
X925699Y2551700D01*
X924400Y2551840D01*
X923080Y2552260D01*
X921740Y2553000D01*
X920400Y2554100D01*
X916800Y2554100D01*
X916800Y2551800D01*
X913500Y2551400D01*
X913500Y2550000D01*
X920000Y2549600D01*
X920400Y2552600D01*
X921880Y2551040D01*
X923420Y2550060D01*
X924980Y2549540D01*
X926500Y2549400D01*
X928400Y2549620D01*
X930140Y2550220D01*
X931680Y2551200D01*
X932980Y2552520D01*
X934040Y2554160D01*
X934840Y2556060D01*
X935340Y2558220D01*
X935500Y2560600D01*
X935340Y2563020D01*
X934840Y2565160D01*
X934080Y2567000D01*
X933060Y2568540D01*
X931820Y2569780D01*
X930400Y2570659D01*
X928820Y2571220D01*
X927099Y2571400D01*
X925360Y2571200D01*
X923640Y2570620D01*
X921960Y2569580D01*
X920400Y2568100D01*
X920400Y2575800D01*
X920500Y2582100D01*
G37*
G36*
X799000Y2581800D02*
G01*
X797880Y2581600D01*
X797000Y2581060D01*
X796420Y2580200D01*
X796200Y2579100D01*
X796420Y2578000D01*
X797000Y2577160D01*
X797880Y2576600D01*
X799000Y2576400D01*
X800080Y2576600D01*
X800960Y2577140D01*
X801580Y2578000D01*
X801800Y2579100D01*
X801580Y2580200D01*
X800960Y2581060D01*
X800080Y2581600D01*
G37*
G36*
X1201900Y2581800D02*
G01*
X1200780Y2581600D01*
X1199900Y2581060D01*
X1199320Y2580200D01*
X1199100Y2579100D01*
X1199320Y2578000D01*
X1199900Y2577160D01*
X1200780Y2576600D01*
X1201900Y2576400D01*
X1202980Y2576600D01*
X1203860Y2577140D01*
X1204480Y2578000D01*
X1204700Y2579100D01*
X1204480Y2580200D01*
X1203860Y2581060D01*
X1202980Y2581600D01*
G37*
G36*
X1225400Y2580000D02*
G01*
X1223300Y2579860D01*
X1221320Y2579480D01*
X1219440Y2578860D01*
X1217720Y2578020D01*
X1216140Y2576940D01*
X1214720Y2575680D01*
X1213500Y2574240D01*
X1212460Y2572620D01*
X1211620Y2570840D01*
X1211000Y2568920D01*
X1210620Y2566880D01*
X1210500Y2564700D01*
X1210740Y2561600D01*
X1211460Y2558780D01*
X1212600Y2556260D01*
X1214140Y2554080D01*
X1216080Y2552280D01*
X1218340Y2550880D01*
X1220940Y2549900D01*
X1223800Y2549400D01*
X1223400Y2546300D01*
X1224820Y2546000D01*
X1225820Y2545520D01*
X1226400Y2544820D01*
X1226600Y2543900D01*
X1226440Y2543020D01*
X1225980Y2542360D01*
X1225160Y2541940D01*
X1223440Y2541800D01*
X1222420Y2541880D01*
X1221900Y2542000D01*
X1221600Y2540800D01*
X1222780Y2540520D01*
X1224400Y2540400D01*
X1226500Y2540660D01*
X1228000Y2541400D01*
X1228900Y2542500D01*
X1229200Y2543900D01*
X1228880Y2545240D01*
X1228000Y2546280D01*
X1226660Y2547000D01*
X1225000Y2547400D01*
X1225300Y2549400D01*
X1227680Y2549520D01*
X1229900Y2549880D01*
X1232040Y2550540D01*
X1234100Y2551500D01*
X1234200Y2557900D01*
X1231800Y2557900D01*
X1230700Y2552400D01*
X1229420Y2551900D01*
X1228160Y2551560D01*
X1226920Y2551360D01*
X1225700Y2551300D01*
X1223440Y2551520D01*
X1221380Y2552160D01*
X1219540Y2553220D01*
X1217980Y2554700D01*
X1216720Y2556600D01*
X1215780Y2558900D01*
X1215200Y2561600D01*
X1215000Y2564700D01*
X1215220Y2567780D01*
X1215840Y2570460D01*
X1216840Y2572760D01*
X1218140Y2574660D01*
X1219740Y2576160D01*
X1221580Y2577220D01*
X1223620Y2577880D01*
X1225800Y2578100D01*
X1226920Y2578039D01*
X1228040Y2577860D01*
X1229180Y2577500D01*
X1230300Y2577000D01*
X1231400Y2571400D01*
X1233800Y2571400D01*
X1233700Y2577799D01*
X1231540Y2578860D01*
X1229400Y2579540D01*
X1227340Y2579900D01*
G37*
G36*
X1148700Y2579500D02*
G01*
X1142556Y2561400D01*
X1144400Y2561400D01*
X1148800Y2575000D01*
X1153400Y2561400D01*
X1142556Y2561400D01*
X1139400Y2552100D01*
X1135800Y2551500D01*
X1135800Y2550000D01*
X1145600Y2550000D01*
X1145600Y2551500D01*
X1141300Y2552100D01*
X1143800Y2559700D01*
X1154000Y2559700D01*
X1156500Y2552000D01*
X1152200Y2551500D01*
X1152200Y2550000D01*
X1164100Y2550000D01*
X1164100Y2551500D01*
X1160700Y2551900D01*
X1151200Y2579500D01*
G37*
G36*
X722000Y2579300D02*
G01*
X722000Y2577799D01*
X726000Y2577400D01*
X726100Y2560920D01*
X730100Y2560920D01*
X730200Y2577600D01*
X734000Y2577600D01*
X736340Y2577400D01*
X738400Y2576760D01*
X740200Y2575720D01*
X741680Y2574280D01*
X742840Y2572440D01*
X743700Y2570220D01*
X744220Y2567600D01*
X744400Y2564600D01*
X744220Y2561720D01*
X743700Y2559180D01*
X742820Y2557000D01*
X741620Y2555160D01*
X740100Y2553720D01*
X738240Y2552660D01*
X736080Y2552020D01*
X733600Y2551800D01*
X730200Y2551800D01*
X730100Y2560920D01*
X726100Y2560920D01*
X726000Y2552000D01*
X722000Y2551500D01*
X722000Y2550000D01*
X733900Y2550000D01*
X736020Y2550100D01*
X738040Y2550420D01*
X739920Y2550960D01*
X741680Y2551700D01*
X743280Y2552640D01*
X744720Y2553780D01*
X745960Y2555100D01*
X747020Y2556640D01*
X747860Y2558360D01*
X748480Y2560260D01*
X748860Y2562340D01*
X749000Y2564600D01*
X748880Y2566880D01*
X748540Y2568980D01*
X747960Y2570899D01*
X747180Y2572640D01*
X746200Y2574180D01*
X745040Y2575520D01*
X743700Y2576660D01*
X742180Y2577600D01*
X740520Y2578340D01*
X738720Y2578880D01*
X736760Y2579200D01*
X734700Y2579300D01*
G37*
G36*
X970400Y2579300D02*
G01*
X970400Y2577799D01*
X973700Y2577400D01*
X981600Y2561400D01*
X981500Y2552000D01*
X977000Y2551500D01*
X977000Y2550000D01*
X990200Y2550000D01*
X990200Y2551500D01*
X985600Y2552000D01*
X985600Y2561600D01*
X993199Y2577300D01*
X997000Y2577799D01*
X997000Y2579300D01*
X987000Y2579300D01*
X987000Y2577799D01*
X991200Y2577300D01*
X984700Y2563600D01*
X978300Y2577400D01*
X982600Y2577799D01*
X982600Y2579300D01*
G37*
G36*
X1102900Y2579300D02*
G01*
X1102900Y2577799D01*
X1107000Y2577400D01*
X1107100Y2560640D01*
X1107000Y2552000D01*
X1102900Y2551500D01*
X1102900Y2550000D01*
X1115200Y2550000D01*
X1115200Y2551500D01*
X1111200Y2552000D01*
X1111100Y2564200D01*
X1125400Y2564200D01*
X1125300Y2552000D01*
X1121200Y2551500D01*
X1121200Y2550000D01*
X1133500Y2550000D01*
X1133500Y2551500D01*
X1129400Y2552000D01*
X1129400Y2577400D01*
X1133500Y2577799D01*
X1133500Y2579300D01*
X1121200Y2579300D01*
X1121200Y2577799D01*
X1125300Y2577400D01*
X1125400Y2565899D01*
X1111100Y2565899D01*
X1111200Y2577400D01*
X1115200Y2577799D01*
X1115200Y2579300D01*
G37*
G36*
X1166100Y2579300D02*
G01*
X1166100Y2577799D01*
X1170200Y2577400D01*
X1170300Y2560920D01*
X1174300Y2560920D01*
X1174400Y2577600D01*
X1178200Y2577600D01*
X1180540Y2577400D01*
X1182600Y2576760D01*
X1184400Y2575720D01*
X1185880Y2574280D01*
X1187040Y2572440D01*
X1187900Y2570220D01*
X1188420Y2567600D01*
X1188600Y2564600D01*
X1188420Y2561720D01*
X1187900Y2559180D01*
X1187020Y2557000D01*
X1185820Y2555160D01*
X1184300Y2553720D01*
X1182440Y2552660D01*
X1180280Y2552020D01*
X1177800Y2551800D01*
X1174400Y2551800D01*
X1174300Y2560920D01*
X1170300Y2560920D01*
X1170200Y2552000D01*
X1166100Y2551500D01*
X1166100Y2550000D01*
X1178100Y2550000D01*
X1180220Y2550100D01*
X1182240Y2550420D01*
X1184120Y2550960D01*
X1185860Y2551700D01*
X1187440Y2552640D01*
X1188860Y2553780D01*
X1190100Y2555100D01*
X1191140Y2556640D01*
X1191980Y2558360D01*
X1192600Y2560260D01*
X1192980Y2562340D01*
X1193100Y2564600D01*
X1192980Y2566880D01*
X1192640Y2568980D01*
X1192080Y2570899D01*
X1191300Y2572640D01*
X1190340Y2574180D01*
X1189180Y2575520D01*
X1187860Y2576660D01*
X1186360Y2577600D01*
X1184700Y2578340D01*
X1182900Y2578880D01*
X1180960Y2579200D01*
X1178900Y2579300D01*
G37*
G36*
X763000Y2571400D02*
G01*
X761020Y2571200D01*
X759160Y2570600D01*
X757460Y2569640D01*
X755980Y2568340D01*
X754740Y2566740D01*
X753800Y2564820D01*
X753199Y2562640D01*
X753163Y2562200D01*
X756900Y2562200D01*
X757620Y2565560D01*
X759020Y2567900D01*
X760840Y2569260D01*
X762800Y2569700D01*
X764780Y2569280D01*
X766340Y2568159D01*
X767340Y2566540D01*
X767700Y2564600D01*
X767600Y2563639D01*
X767220Y2562880D01*
X766480Y2562380D01*
X765300Y2562200D01*
X753163Y2562200D01*
X753000Y2560200D01*
X753180Y2557780D01*
X753720Y2555640D01*
X754580Y2553800D01*
X755740Y2552240D01*
X757180Y2551020D01*
X758860Y2550140D01*
X760780Y2549580D01*
X762900Y2549400D01*
X765620Y2549760D01*
X767920Y2550780D01*
X769780Y2552360D01*
X771200Y2554400D01*
X770300Y2555000D01*
X769060Y2553760D01*
X767680Y2552780D01*
X766060Y2552140D01*
X764100Y2551900D01*
X761160Y2552440D01*
X758880Y2554080D01*
X757380Y2556800D01*
X756800Y2560600D01*
X770900Y2560600D01*
X771120Y2561640D01*
X771200Y2563000D01*
X770600Y2566500D01*
X768900Y2569140D01*
X766300Y2570820D01*
G37*
G36*
X783300Y2571400D02*
G01*
X780020Y2570899D01*
X777620Y2569540D01*
X776120Y2567559D01*
X775600Y2565200D01*
X776000Y2563180D01*
X777099Y2561580D01*
X778800Y2560299D01*
X781000Y2559300D01*
X783000Y2558600D01*
X784860Y2557840D01*
X786140Y2556980D01*
X786860Y2555920D01*
X787099Y2554600D01*
X786800Y2553200D01*
X785879Y2552100D01*
X784320Y2551360D01*
X782099Y2551100D01*
X780140Y2551300D01*
X778500Y2551800D01*
X777500Y2555900D01*
X775400Y2555900D01*
X775500Y2551100D01*
X777099Y2550380D01*
X778680Y2549840D01*
X780320Y2549520D01*
X782099Y2549400D01*
X785800Y2549900D01*
X788460Y2551280D01*
X790060Y2553280D01*
X790600Y2555700D01*
X790260Y2557620D01*
X789220Y2559300D01*
X787360Y2560760D01*
X783100Y2562600D01*
X781200Y2563340D01*
X779920Y2564160D01*
X779220Y2565140D01*
X779000Y2566400D01*
X779280Y2567740D01*
X780100Y2568759D01*
X781440Y2569380D01*
X783300Y2569600D01*
X784100Y2569560D01*
X784880Y2569420D01*
X785639Y2569180D01*
X786400Y2568800D01*
X787300Y2565100D01*
X789200Y2565100D01*
X789400Y2569600D01*
X787960Y2570340D01*
X786500Y2570920D01*
X784960Y2571280D01*
G37*
G36*
X816000Y2571400D02*
G01*
X812800Y2570920D01*
X810280Y2569520D01*
X808600Y2567260D01*
X808000Y2564200D01*
X811500Y2564200D01*
X811800Y2566460D01*
X812700Y2568240D01*
X814120Y2569380D01*
X816000Y2569800D01*
X817860Y2569400D01*
X819240Y2568279D01*
X820100Y2566560D01*
X820400Y2564300D01*
X820080Y2561940D01*
X819180Y2560080D01*
X817740Y2558840D01*
X815800Y2558400D01*
X813980Y2558820D01*
X812640Y2559980D01*
X811800Y2561820D01*
X811500Y2564200D01*
X808000Y2564200D01*
X808240Y2562140D01*
X808920Y2560419D01*
X809980Y2559060D01*
X811400Y2558000D01*
X810000Y2556600D01*
X809080Y2555380D01*
X808560Y2554260D01*
X808400Y2553200D01*
X808580Y2551980D01*
X809120Y2551020D01*
X810000Y2550280D01*
X811200Y2549800D01*
X809280Y2548660D01*
X807980Y2547500D01*
X807240Y2546260D01*
X807105Y2545500D01*
X810400Y2545500D01*
X810500Y2546580D01*
X810819Y2547580D01*
X811380Y2548540D01*
X812200Y2549500D01*
X813180Y2549420D01*
X819400Y2549400D01*
X821420Y2549120D01*
X822760Y2548360D01*
X823480Y2547240D01*
X823700Y2545900D01*
X823220Y2544080D01*
X821780Y2542620D01*
X819400Y2541660D01*
X816100Y2541300D01*
X813780Y2541540D01*
X811979Y2542320D01*
X810819Y2543620D01*
X810400Y2545500D01*
X807105Y2545500D01*
X807000Y2544900D01*
X807540Y2542740D01*
X809180Y2541040D01*
X812020Y2539900D01*
X816100Y2539500D01*
X818640Y2539660D01*
X820819Y2540140D01*
X822680Y2540880D01*
X824200Y2541820D01*
X825380Y2542960D01*
X826220Y2544220D01*
X826740Y2545580D01*
X826900Y2547000D01*
X826480Y2549360D01*
X825200Y2551120D01*
X823020Y2552220D01*
X819900Y2552600D01*
X814100Y2552600D01*
X812740Y2552740D01*
X811880Y2553160D01*
X811420Y2553780D01*
X811300Y2554600D01*
X811380Y2555380D01*
X811600Y2556080D01*
X811979Y2556780D01*
X812500Y2557500D01*
X814140Y2557140D01*
X816000Y2557000D01*
X819120Y2557480D01*
X821580Y2558880D01*
X823220Y2561139D01*
X823800Y2564200D01*
X823720Y2565419D01*
X823520Y2566520D01*
X823160Y2567520D01*
X822700Y2568399D01*
X827099Y2568300D01*
X827099Y2570899D01*
X826500Y2571300D01*
X821500Y2569600D01*
X820360Y2570380D01*
X819040Y2570960D01*
X817600Y2571280D01*
G37*
G36*
X844599Y2571400D02*
G01*
X842560Y2571120D01*
X840500Y2570280D01*
X838520Y2569000D01*
X836700Y2567300D01*
X836400Y2570899D01*
X835800Y2571300D01*
X829599Y2568900D01*
X829599Y2567600D01*
X833100Y2567200D01*
X833180Y2564660D01*
X833100Y2551800D01*
X829900Y2551400D01*
X829900Y2550000D01*
X840000Y2550000D01*
X840000Y2551400D01*
X836900Y2551800D01*
X836800Y2565700D01*
X838460Y2567040D01*
X840020Y2567940D01*
X841520Y2568440D01*
X843000Y2568600D01*
X844620Y2568320D01*
X845740Y2567420D01*
X846380Y2565779D01*
X846600Y2563300D01*
X846500Y2551800D01*
X843300Y2551400D01*
X843300Y2550000D01*
X853400Y2550000D01*
X853400Y2551400D01*
X850300Y2551800D01*
X850200Y2563399D01*
X849840Y2567020D01*
X848780Y2569500D01*
X847039Y2570940D01*
G37*
G36*
X866700Y2571400D02*
G01*
X864720Y2571200D01*
X862840Y2570600D01*
X861140Y2569640D01*
X859620Y2568340D01*
X858379Y2566740D01*
X857420Y2564820D01*
X856820Y2562640D01*
X856780Y2562200D01*
X860500Y2562200D01*
X861260Y2565560D01*
X862680Y2567900D01*
X864500Y2569260D01*
X866500Y2569700D01*
X868439Y2569280D01*
X869940Y2568159D01*
X870939Y2566540D01*
X871300Y2564600D01*
X871200Y2563639D01*
X870860Y2562880D01*
X870160Y2562380D01*
X869000Y2562200D01*
X856780Y2562200D01*
X856600Y2560200D01*
X856780Y2557780D01*
X857320Y2555640D01*
X858180Y2553800D01*
X859340Y2552240D01*
X860780Y2551020D01*
X862460Y2550140D01*
X864380Y2549580D01*
X866500Y2549400D01*
X869220Y2549760D01*
X871520Y2550780D01*
X873379Y2552360D01*
X874800Y2554400D01*
X873900Y2555000D01*
X872700Y2553760D01*
X871340Y2552780D01*
X869720Y2552140D01*
X867800Y2551900D01*
X864860Y2552440D01*
X862580Y2554080D01*
X861080Y2556800D01*
X860500Y2560600D01*
X874599Y2560600D01*
X874820Y2561640D01*
X874900Y2563000D01*
X874280Y2566500D01*
X872560Y2569140D01*
X869960Y2570820D01*
G37*
G36*
X1036100Y2571400D02*
G01*
X1034040Y2571120D01*
X1031960Y2570280D01*
X1029980Y2569000D01*
X1028199Y2567300D01*
X1027800Y2570899D01*
X1027200Y2571300D01*
X1021100Y2568900D01*
X1021100Y2567600D01*
X1024599Y2567200D01*
X1024700Y2561500D01*
X1024599Y2551800D01*
X1021400Y2551400D01*
X1021400Y2550000D01*
X1031400Y2550000D01*
X1031400Y2551400D01*
X1028400Y2551800D01*
X1028300Y2565700D01*
X1029960Y2567040D01*
X1031500Y2567940D01*
X1032960Y2568440D01*
X1034400Y2568600D01*
X1036080Y2568320D01*
X1037220Y2567420D01*
X1037880Y2565779D01*
X1038100Y2563300D01*
X1038000Y2551800D01*
X1034800Y2551400D01*
X1034800Y2550000D01*
X1044800Y2550000D01*
X1044800Y2551400D01*
X1041800Y2551800D01*
X1041700Y2563399D01*
X1041340Y2567020D01*
X1040280Y2569500D01*
X1038540Y2570940D01*
G37*
G36*
X1081700Y2571400D02*
G01*
X1078440Y2570899D01*
X1076060Y2569540D01*
X1074600Y2567559D01*
X1074100Y2565200D01*
X1074480Y2563180D01*
X1075560Y2561580D01*
X1077220Y2560299D01*
X1079400Y2559300D01*
X1081500Y2558600D01*
X1083360Y2557840D01*
X1084640Y2556980D01*
X1085360Y2555920D01*
X1085600Y2554600D01*
X1085300Y2553200D01*
X1084360Y2552100D01*
X1082780Y2551360D01*
X1080500Y2551100D01*
X1078580Y2551300D01*
X1076900Y2551800D01*
X1076000Y2555900D01*
X1073900Y2555900D01*
X1074000Y2551100D01*
X1075560Y2550380D01*
X1077120Y2549840D01*
X1078760Y2549520D01*
X1080600Y2549400D01*
X1084240Y2549900D01*
X1086860Y2551280D01*
X1088460Y2553280D01*
X1089000Y2555700D01*
X1088680Y2557620D01*
X1087660Y2559300D01*
X1085800Y2560760D01*
X1079640Y2563340D01*
X1078360Y2564160D01*
X1077640Y2565140D01*
X1077400Y2566400D01*
X1077680Y2567740D01*
X1078500Y2568759D01*
X1079840Y2569380D01*
X1081700Y2569600D01*
X1083300Y2569420D01*
X1084100Y2569180D01*
X1084900Y2568800D01*
X1085700Y2565100D01*
X1087700Y2565100D01*
X1087800Y2569600D01*
X1086380Y2570340D01*
X1084940Y2570920D01*
X1083400Y2571280D01*
G37*
G36*
X800300Y2571300D02*
G01*
X793600Y2569000D01*
X793600Y2567600D01*
X797200Y2567300D01*
X797300Y2561500D01*
X797200Y2551800D01*
X793800Y2551400D01*
X793800Y2550000D01*
X803900Y2550000D01*
X803900Y2551400D01*
X800900Y2551800D01*
X800800Y2565100D01*
X800900Y2570899D01*
G37*
G36*
X1203200Y2571300D02*
G01*
X1196500Y2569000D01*
X1196500Y2567600D01*
X1200100Y2567300D01*
X1200180Y2564620D01*
X1200100Y2551800D01*
X1196800Y2551400D01*
X1196800Y2550000D01*
X1206800Y2550000D01*
X1206800Y2551400D01*
X1203800Y2551800D01*
X1203800Y2570899D01*
G37*
G36*
X1001400Y2571100D02*
G01*
X995000Y2570400D01*
X995000Y2569200D01*
X998199Y2568500D01*
X998000Y2557400D01*
X998400Y2553660D01*
X999539Y2551180D01*
X1001380Y2549820D01*
X1003800Y2549400D01*
X1005840Y2549660D01*
X1007840Y2550460D01*
X1009800Y2551760D01*
X1011600Y2553600D01*
X1012000Y2549600D01*
X1018000Y2550000D01*
X1018000Y2551300D01*
X1015000Y2551800D01*
X1015000Y2564400D01*
X1015200Y2570600D01*
X1014800Y2571100D01*
X1008400Y2570400D01*
X1008400Y2569100D01*
X1011600Y2568500D01*
X1011400Y2555200D01*
X1009940Y2553900D01*
X1008420Y2553000D01*
X1006880Y2552480D01*
X1005300Y2552300D01*
X1003720Y2552560D01*
X1002600Y2553460D01*
X1001919Y2555080D01*
X1001700Y2557600D01*
X1001700Y2564400D01*
X1001900Y2570600D01*
G37*
G36*
X1053600Y2571100D02*
G01*
X1047099Y2570400D01*
X1047099Y2569200D01*
X1050300Y2568500D01*
X1050200Y2557400D01*
X1050540Y2553660D01*
X1051660Y2551180D01*
X1053480Y2549820D01*
X1055900Y2549400D01*
X1057940Y2549660D01*
X1059940Y2550460D01*
X1061900Y2551760D01*
X1063700Y2553600D01*
X1064100Y2549600D01*
X1070200Y2550000D01*
X1070200Y2551300D01*
X1067200Y2551800D01*
X1067200Y2564400D01*
X1067300Y2570600D01*
X1066900Y2571100D01*
X1060600Y2570400D01*
X1060600Y2569100D01*
X1063700Y2568500D01*
X1063600Y2555200D01*
X1062100Y2553900D01*
X1060580Y2553000D01*
X1059020Y2552480D01*
X1057400Y2552300D01*
X1055820Y2552560D01*
X1054700Y2553460D01*
X1054020Y2555080D01*
X1053800Y2557600D01*
X1053800Y2564400D01*
X1054000Y2570600D01*
G37*
G36*
X937099Y2570800D02*
G01*
X937099Y2569400D01*
X939599Y2569100D01*
X947700Y2548700D01*
X946680Y2546300D01*
X945740Y2544540D01*
X944620Y2542980D01*
X943300Y2541700D01*
X942159Y2542720D01*
X941400Y2543220D01*
X940639Y2543500D01*
X939800Y2543600D01*
X938840Y2543500D01*
X937980Y2543180D01*
X937340Y2542620D01*
X937000Y2541800D01*
X937320Y2540700D01*
X938160Y2539860D01*
X939400Y2539300D01*
X940900Y2539100D01*
X942080Y2539240D01*
X943220Y2539680D01*
X944320Y2540420D01*
X945420Y2541500D01*
X946480Y2542940D01*
X947560Y2544760D01*
X948620Y2546960D01*
X949700Y2549600D01*
X957000Y2569000D01*
X959500Y2569400D01*
X959500Y2570800D01*
X951000Y2570800D01*
X951000Y2569400D01*
X955000Y2569000D01*
X949400Y2553400D01*
X943700Y2569000D01*
X947500Y2569400D01*
X947500Y2570800D01*
G37*
G36*
X906200Y2637400D02*
G01*
X899400Y2635600D01*
X899400Y2634200D01*
X903100Y2633900D01*
X903100Y2623500D01*
X901680Y2624880D01*
X900280Y2625779D01*
X898820Y2626259D01*
X897300Y2626400D01*
X895340Y2626200D01*
X893560Y2625600D01*
X891979Y2624640D01*
X890620Y2623340D01*
X889520Y2621740D01*
X888700Y2619820D01*
X888180Y2617640D01*
X888007Y2615299D01*
X891800Y2615299D01*
X892300Y2619340D01*
X893660Y2622120D01*
X895639Y2623700D01*
X898000Y2624200D01*
X899140Y2624080D01*
X900320Y2623680D01*
X901580Y2622940D01*
X903000Y2621800D01*
X903000Y2609200D01*
X901760Y2608000D01*
X900580Y2607240D01*
X899340Y2606820D01*
X898000Y2606700D01*
X895520Y2607180D01*
X893540Y2608720D01*
X892260Y2611380D01*
X891800Y2615299D01*
X888007Y2615299D01*
X888160Y2612900D01*
X888640Y2610820D01*
X889419Y2608980D01*
X890480Y2607400D01*
X891780Y2606120D01*
X893319Y2605179D01*
X895060Y2604600D01*
X897000Y2604400D01*
X898840Y2604620D01*
X900460Y2605260D01*
X901880Y2606259D01*
X903100Y2607600D01*
X903400Y2604600D01*
X910200Y2605000D01*
X910200Y2606400D01*
X906600Y2606800D01*
X906600Y2630800D01*
X906700Y2637100D01*
G37*
G36*
X965600Y2637400D02*
G01*
X958900Y2635600D01*
X958900Y2634200D01*
X962600Y2633900D01*
X962600Y2623500D01*
X961180Y2624880D01*
X959740Y2625779D01*
X958280Y2626259D01*
X956800Y2626400D01*
X954840Y2626200D01*
X953060Y2625600D01*
X951460Y2624640D01*
X950080Y2623340D01*
X948960Y2621740D01*
X948100Y2619820D01*
X947580Y2617640D01*
X947407Y2615299D01*
X951300Y2615299D01*
X951800Y2619340D01*
X953160Y2622120D01*
X955140Y2623700D01*
X957500Y2624200D01*
X958640Y2624080D01*
X959820Y2623680D01*
X961080Y2622940D01*
X962500Y2621800D01*
X962500Y2609200D01*
X961260Y2608000D01*
X960080Y2607240D01*
X958840Y2606820D01*
X957500Y2606700D01*
X955020Y2607180D01*
X953060Y2608720D01*
X951760Y2611380D01*
X951300Y2615299D01*
X947407Y2615299D01*
X947560Y2612900D01*
X948060Y2610820D01*
X948860Y2608980D01*
X949920Y2607400D01*
X951220Y2606120D01*
X952760Y2605179D01*
X954500Y2604600D01*
X956400Y2604400D01*
X958280Y2604620D01*
X959920Y2605260D01*
X961340Y2606259D01*
X962600Y2607600D01*
X962800Y2604600D01*
X969599Y2605000D01*
X969599Y2606400D01*
X966100Y2606800D01*
X966100Y2630800D01*
X966200Y2637100D01*
G37*
G36*
X917600Y2636800D02*
G01*
X916480Y2636600D01*
X915600Y2636060D01*
X915020Y2635200D01*
X914800Y2634100D01*
X915020Y2633000D01*
X915600Y2632160D01*
X916480Y2631600D01*
X917600Y2631400D01*
X918720Y2631600D01*
X919599Y2632140D01*
X920180Y2633000D01*
X920400Y2634100D01*
X920180Y2635200D01*
X919599Y2636060D01*
X918720Y2636600D01*
G37*
G36*
X1002500Y2636800D02*
G01*
X1001380Y2636600D01*
X1000460Y2636060D01*
X999820Y2635200D01*
X999599Y2634100D01*
X999820Y2633000D01*
X1000460Y2632160D01*
X1001380Y2631600D01*
X1002500Y2631400D01*
X1003580Y2631600D01*
X1004460Y2632140D01*
X1005080Y2633000D01*
X1005300Y2634100D01*
X1005080Y2635200D01*
X1004460Y2636060D01*
X1003580Y2636600D01*
G37*
G36*
X1138000Y2634900D02*
G01*
X1136260Y2634700D01*
X1134580Y2634080D01*
X1133020Y2633020D01*
X1131640Y2631480D01*
X1130480Y2629440D01*
X1129580Y2626840D01*
X1129000Y2623680D01*
X1128800Y2619900D01*
X1132700Y2619900D01*
X1132820Y2623480D01*
X1133140Y2626400D01*
X1133640Y2628720D01*
X1134300Y2630480D01*
X1135100Y2631760D01*
X1136000Y2632600D01*
X1136960Y2633060D01*
X1138000Y2633200D01*
X1139000Y2633060D01*
X1139960Y2632600D01*
X1140840Y2631760D01*
X1141620Y2630480D01*
X1142260Y2628720D01*
X1142760Y2626400D01*
X1143080Y2623480D01*
X1143200Y2619900D01*
X1143080Y2616180D01*
X1142760Y2613140D01*
X1142260Y2610740D01*
X1141620Y2608920D01*
X1140840Y2607600D01*
X1139960Y2606720D01*
X1139000Y2606240D01*
X1138000Y2606100D01*
X1136960Y2606240D01*
X1136000Y2606720D01*
X1135100Y2607600D01*
X1134300Y2608920D01*
X1133640Y2610740D01*
X1133140Y2613140D01*
X1132820Y2616180D01*
X1132700Y2619900D01*
X1128800Y2619900D01*
X1129000Y2615980D01*
X1129580Y2612720D01*
X1130480Y2610020D01*
X1131640Y2607919D01*
X1133020Y2606320D01*
X1134580Y2605240D01*
X1136260Y2604600D01*
X1138000Y2604400D01*
X1139720Y2604600D01*
X1141380Y2605240D01*
X1142940Y2606320D01*
X1144320Y2607919D01*
X1145500Y2610020D01*
X1146400Y2612720D01*
X1147000Y2615980D01*
X1147200Y2619900D01*
X1147000Y2623680D01*
X1146400Y2626840D01*
X1145500Y2629440D01*
X1144320Y2631480D01*
X1142940Y2633020D01*
X1141380Y2634080D01*
X1139720Y2634700D01*
G37*
G36*
X1104600Y2634800D02*
G01*
X1095600Y2632400D01*
X1095600Y2630899D01*
X1101500Y2631400D01*
X1101400Y2607200D01*
X1095200Y2606400D01*
X1095200Y2605000D01*
X1111300Y2605000D01*
X1111300Y2606400D01*
X1105200Y2607200D01*
X1105120Y2610740D01*
X1105100Y2628000D01*
X1105200Y2634300D01*
G37*
G36*
X832000Y2634300D02*
G01*
X832000Y2632799D01*
X836000Y2632400D01*
X836100Y2615640D01*
X836000Y2607000D01*
X832000Y2606500D01*
X832000Y2605000D01*
X844200Y2605000D01*
X844200Y2606500D01*
X840200Y2607000D01*
X840100Y2619200D01*
X854400Y2619200D01*
X854300Y2607000D01*
X850300Y2606500D01*
X850300Y2605000D01*
X862600Y2605000D01*
X862600Y2606500D01*
X858500Y2607000D01*
X858400Y2623639D01*
X858500Y2632400D01*
X862600Y2632799D01*
X862600Y2634300D01*
X850300Y2634300D01*
X850300Y2632799D01*
X854300Y2632400D01*
X854400Y2620899D01*
X840100Y2620899D01*
X840200Y2632400D01*
X844200Y2632799D01*
X844200Y2634300D01*
G37*
G36*
X874800Y2626400D02*
G01*
X871620Y2626019D01*
X869080Y2624940D01*
X867280Y2623240D01*
X866300Y2621000D01*
X866480Y2620280D01*
X866840Y2619740D01*
X867420Y2619420D01*
X868199Y2619300D01*
X869000Y2619420D01*
X869640Y2619820D01*
X870100Y2620440D01*
X871300Y2624300D01*
X872580Y2624620D01*
X873800Y2624700D01*
X875680Y2624460D01*
X876979Y2623600D01*
X877760Y2621920D01*
X878000Y2619200D01*
X878000Y2617900D01*
X875300Y2617220D01*
X872900Y2616400D01*
X869380Y2614900D01*
X867159Y2613360D01*
X866020Y2611680D01*
X865802Y2610400D01*
X869400Y2610400D01*
X869560Y2611620D01*
X870220Y2612840D01*
X871600Y2614040D01*
X873900Y2615200D01*
X875720Y2615860D01*
X878000Y2616500D01*
X878000Y2609600D01*
X876380Y2608360D01*
X875120Y2607559D01*
X874060Y2607120D01*
X873000Y2607000D01*
X871560Y2607200D01*
X870420Y2607799D01*
X869659Y2608860D01*
X869400Y2610400D01*
X865802Y2610400D01*
X865699Y2609800D01*
X866160Y2607480D01*
X867400Y2605779D01*
X869240Y2604760D01*
X871500Y2604400D01*
X873280Y2604620D01*
X874820Y2605299D01*
X876340Y2606420D01*
X878000Y2608000D01*
X878480Y2606520D01*
X879320Y2605419D01*
X880500Y2604740D01*
X882000Y2604500D01*
X883080Y2604620D01*
X884040Y2605020D01*
X884920Y2605720D01*
X885699Y2606800D01*
X884900Y2607600D01*
X884120Y2606780D01*
X883700Y2606580D01*
X883199Y2606500D01*
X882520Y2606640D01*
X882020Y2607120D01*
X881700Y2607980D01*
X881600Y2609300D01*
X881600Y2618800D01*
X881180Y2622300D01*
X879920Y2624660D01*
X877800Y2625980D01*
G37*
G36*
X936200Y2626400D02*
G01*
X934200Y2626200D01*
X932320Y2625640D01*
X930560Y2624700D01*
X929020Y2623440D01*
X927740Y2621840D01*
X926760Y2619940D01*
X926120Y2617760D01*
X925900Y2615299D01*
X926080Y2612900D01*
X926620Y2610779D01*
X927480Y2608900D01*
X928640Y2607340D01*
X930080Y2606080D01*
X931760Y2605160D01*
X933680Y2604600D01*
X935800Y2604400D01*
X938620Y2604760D01*
X940900Y2605820D01*
X942660Y2607520D01*
X943900Y2609800D01*
X943000Y2610200D01*
X941800Y2608800D01*
X940360Y2607760D01*
X938720Y2607120D01*
X936900Y2606900D01*
X934000Y2607480D01*
X931720Y2609200D01*
X930240Y2611960D01*
X929700Y2615700D01*
X930180Y2619520D01*
X931540Y2622340D01*
X933660Y2624100D01*
X936400Y2624700D01*
X937520Y2624620D01*
X938800Y2624300D01*
X939840Y2620380D01*
X940300Y2619740D01*
X940980Y2619340D01*
X941900Y2619200D01*
X942640Y2619300D01*
X943180Y2619580D01*
X943580Y2620080D01*
X943800Y2620800D01*
X942900Y2623020D01*
X941200Y2624800D01*
X938900Y2625980D01*
G37*
G36*
X1025400Y2626400D02*
G01*
X1023360Y2626120D01*
X1021300Y2625280D01*
X1019320Y2624000D01*
X1017500Y2622300D01*
X1017200Y2625899D01*
X1016600Y2626300D01*
X1010400Y2623900D01*
X1010400Y2622600D01*
X1013900Y2622200D01*
X1013980Y2619660D01*
X1013900Y2606800D01*
X1010699Y2606400D01*
X1010699Y2605000D01*
X1020800Y2605000D01*
X1020800Y2606400D01*
X1017700Y2606800D01*
X1017600Y2620700D01*
X1019260Y2622040D01*
X1020819Y2622940D01*
X1022320Y2623440D01*
X1023800Y2623600D01*
X1025420Y2623320D01*
X1026540Y2622420D01*
X1027180Y2620779D01*
X1027400Y2618300D01*
X1027300Y2606800D01*
X1024100Y2606400D01*
X1024100Y2605000D01*
X1034200Y2605000D01*
X1034200Y2606400D01*
X1031100Y2606800D01*
X1031000Y2618399D01*
X1030639Y2622020D01*
X1029580Y2624500D01*
X1027840Y2625940D01*
G37*
G36*
X1047500Y2626400D02*
G01*
X1045600Y2626220D01*
X1043780Y2625700D01*
X1042060Y2624820D01*
X1040540Y2623580D01*
X1039260Y2622020D01*
X1038259Y2620120D01*
X1037620Y2617880D01*
X1037400Y2615299D01*
X1041400Y2615299D01*
X1041800Y2619340D01*
X1042980Y2622280D01*
X1044900Y2624080D01*
X1047500Y2624700D01*
X1050040Y2624080D01*
X1051920Y2622280D01*
X1053100Y2619340D01*
X1053500Y2615299D01*
X1053100Y2611340D01*
X1051920Y2608460D01*
X1050040Y2606700D01*
X1047500Y2606100D01*
X1044900Y2606700D01*
X1042980Y2608440D01*
X1041800Y2611340D01*
X1041400Y2615299D01*
X1037400Y2615299D01*
X1037620Y2612760D01*
X1038240Y2610560D01*
X1039220Y2608680D01*
X1040500Y2607140D01*
X1042020Y2605960D01*
X1043720Y2605100D01*
X1045580Y2604580D01*
X1047500Y2604400D01*
X1049400Y2604580D01*
X1051220Y2605100D01*
X1052940Y2605960D01*
X1054460Y2607160D01*
X1055740Y2608680D01*
X1056740Y2610560D01*
X1057380Y2612760D01*
X1057600Y2615299D01*
X1057380Y2617880D01*
X1056740Y2620120D01*
X1055740Y2622020D01*
X1054460Y2623580D01*
X1052940Y2624820D01*
X1051220Y2625700D01*
X1049400Y2626220D01*
G37*
G36*
X919000Y2626300D02*
G01*
X912200Y2624000D01*
X912200Y2622600D01*
X915800Y2622300D01*
X915879Y2619620D01*
X915800Y2606800D01*
X912500Y2606400D01*
X912500Y2605000D01*
X922600Y2605000D01*
X922600Y2606400D01*
X919599Y2606800D01*
X919520Y2610620D01*
X919500Y2620100D01*
X919599Y2625899D01*
G37*
G36*
X1003800Y2626300D02*
G01*
X997099Y2624000D01*
X997099Y2622600D01*
X1000600Y2622300D01*
X1000800Y2616500D01*
X1000699Y2606800D01*
X997300Y2606400D01*
X997300Y2605000D01*
X1007400Y2605000D01*
X1007400Y2606400D01*
X1004400Y2606800D01*
X1004300Y2620100D01*
X1004400Y2625899D01*
G37*
G36*
X977600Y2626100D02*
G01*
X971200Y2625400D01*
X971200Y2624200D01*
X974300Y2623500D01*
X974200Y2612400D01*
X974599Y2608660D01*
X975740Y2606180D01*
X977540Y2604820D01*
X979900Y2604400D01*
X982000Y2604660D01*
X984020Y2605460D01*
X985939Y2606760D01*
X987700Y2608600D01*
X988100Y2604600D01*
X994200Y2605000D01*
X994200Y2606300D01*
X991200Y2606800D01*
X991200Y2619400D01*
X991300Y2625600D01*
X990900Y2626100D01*
X984599Y2625400D01*
X984599Y2624100D01*
X987700Y2623500D01*
X987600Y2610200D01*
X986140Y2608900D01*
X984620Y2608000D01*
X983080Y2607480D01*
X981500Y2607300D01*
X979900Y2607559D01*
X978760Y2608460D01*
X978040Y2610080D01*
X977800Y2612600D01*
X977800Y2619400D01*
X978000Y2625600D01*
G37*
G36*
X1069700Y2625800D02*
G01*
X1069700Y2624300D01*
X1072200Y2624000D01*
X1080000Y2604700D01*
X1081800Y2604700D01*
X1089000Y2623800D01*
X1091500Y2624300D01*
X1091500Y2625800D01*
X1083400Y2625800D01*
X1083400Y2624300D01*
X1087000Y2623800D01*
X1081900Y2609100D01*
X1076400Y2623900D01*
X1080200Y2624300D01*
X1080200Y2625800D01*
G37*
G36*
X1120400Y2610400D02*
G01*
X1119260Y2610160D01*
X1118300Y2609500D01*
X1117640Y2608540D01*
X1117400Y2607400D01*
X1117640Y2606259D01*
X1118300Y2605299D01*
X1119260Y2604640D01*
X1120400Y2604400D01*
X1121580Y2604640D01*
X1122540Y2605299D01*
X1123180Y2606259D01*
X1123400Y2607400D01*
X1123180Y2608540D01*
X1122540Y2609500D01*
X1121580Y2610160D01*
G37*
D30*
X390000Y3265100D02*
G01*
X390000Y3250799D01*
X390000Y3265100D02*
G01*
X394800Y3265100D01*
X396799Y3264499D01*
X398200Y3263099D01*
X398899Y3261700D01*
X399499Y3259699D01*
X399499Y3256300D01*
X398899Y3254200D01*
X398200Y3252899D01*
X396799Y3251500D01*
X394800Y3250799D01*
X390000Y3250799D01*
X410900Y3265100D02*
G01*
X404000Y3255599D01*
X414299Y3255599D01*
X410900Y3265100D02*
G01*
X410900Y3250799D01*
X490000Y3265100D02*
G01*
X490000Y3250799D01*
X490000Y3265100D02*
G01*
X494800Y3265100D01*
X496799Y3264499D01*
X498200Y3263099D01*
X498899Y3261700D01*
X499499Y3259699D01*
X499499Y3256300D01*
X498899Y3254200D01*
X498200Y3252899D01*
X496799Y3251500D01*
X494800Y3250799D01*
X490000Y3250799D01*
X505399Y3265100D02*
G01*
X512899Y3265100D01*
X508800Y3259699D01*
X510900Y3259699D01*
X512199Y3259000D01*
X512899Y3258299D01*
X513600Y3256300D01*
X513600Y3254899D01*
X512899Y3252899D01*
X511500Y3251500D01*
X509499Y3250799D01*
X507500Y3250799D01*
X505399Y3251500D01*
X504699Y3252199D01*
X504000Y3253499D01*
X590000Y3265100D02*
G01*
X590000Y3250799D01*
X590000Y3265100D02*
G01*
X594800Y3265100D01*
X596799Y3264499D01*
X598200Y3263099D01*
X598899Y3261700D01*
X599499Y3259699D01*
X599499Y3256300D01*
X598899Y3254200D01*
X598200Y3252899D01*
X596799Y3251500D01*
X594800Y3250799D01*
X590000Y3250799D01*
X604699Y3261700D02*
G01*
X604699Y3262399D01*
X605399Y3263800D01*
X606100Y3264499D01*
X607500Y3265100D01*
X610199Y3265100D01*
X611500Y3264499D01*
X612199Y3263800D01*
X612899Y3262399D01*
X612899Y3260999D01*
X612199Y3259699D01*
X610900Y3257600D01*
X604000Y3250799D01*
X613600Y3250799D01*
X694800Y3265100D02*
G01*
X694800Y3250799D01*
X690000Y3265100D02*
G01*
X699499Y3265100D01*
X704000Y3265100D02*
G01*
X713600Y3250799D01*
X713600Y3265100D02*
G01*
X704000Y3250799D01*
X790000Y3265100D02*
G01*
X790000Y3250799D01*
X790000Y3265100D02*
G01*
X796099Y3265100D01*
X798199Y3264499D01*
X798900Y3263800D01*
X799499Y3262399D01*
X799499Y3260999D01*
X798900Y3259699D01*
X798199Y3259000D01*
X796099Y3258299D01*
X790000Y3258299D01*
X794799Y3258299D02*
G01*
X799499Y3250799D01*
X803999Y3265100D02*
G01*
X813599Y3250799D01*
X813599Y3265100D02*
G01*
X803999Y3250799D01*
X895500Y3265100D02*
G01*
X890000Y3250799D01*
X895500Y3265100D02*
G01*
X900900Y3250799D01*
X891999Y3255599D02*
G01*
X898900Y3255599D01*
X913599Y3265100D02*
G01*
X906800Y3265100D01*
X906099Y3259000D01*
X906800Y3259699D01*
X908800Y3260399D01*
X910900Y3260399D01*
X912899Y3259699D01*
X914300Y3258299D01*
X915000Y3256300D01*
X915000Y3254899D01*
X914300Y3252899D01*
X912899Y3251500D01*
X910900Y3250799D01*
X908800Y3250799D01*
X906800Y3251500D01*
X906099Y3252199D01*
X905399Y3253499D01*
X995500Y3265100D02*
G01*
X990000Y3250799D01*
X995500Y3265100D02*
G01*
X1000900Y3250799D01*
X991999Y3255599D02*
G01*
X998900Y3255599D01*
X1012200Y3265100D02*
G01*
X1005399Y3255599D01*
X1015600Y3255599D01*
X1012200Y3265100D02*
G01*
X1012200Y3250799D01*
X1090500Y3265100D02*
G01*
X1085000Y3250799D01*
X1090500Y3265100D02*
G01*
X1095900Y3250799D01*
X1086999Y3255599D02*
G01*
X1093900Y3255599D01*
X1101800Y3265100D02*
G01*
X1109300Y3265100D01*
X1105200Y3259699D01*
X1107200Y3259699D01*
X1108599Y3259000D01*
X1109300Y3258299D01*
X1110000Y3256300D01*
X1110000Y3254899D01*
X1109300Y3252899D01*
X1107899Y3251500D01*
X1105900Y3250799D01*
X1103800Y3250799D01*
X1101800Y3251500D01*
X1101099Y3252199D01*
X1100399Y3253499D01*
X1195500Y3265100D02*
G01*
X1190000Y3250799D01*
X1195500Y3265100D02*
G01*
X1200900Y3250799D01*
X1191999Y3255599D02*
G01*
X1198900Y3255599D01*
X1206099Y3261700D02*
G01*
X1206099Y3262399D01*
X1206800Y3263800D01*
X1207500Y3264499D01*
X1208800Y3265100D01*
X1211499Y3265100D01*
X1212899Y3264499D01*
X1213599Y3263800D01*
X1214300Y3262399D01*
X1214300Y3260999D01*
X1213599Y3259699D01*
X1212200Y3257600D01*
X1205399Y3250799D01*
X1215000Y3250799D01*
X1295500Y3265100D02*
G01*
X1290000Y3250799D01*
X1295500Y3265100D02*
G01*
X1300900Y3250799D01*
X1291999Y3255599D02*
G01*
X1298900Y3255599D01*
X1305399Y3262399D02*
G01*
X1306800Y3263099D01*
X1308800Y3265100D01*
X1308800Y3250799D01*
X1395500Y3265100D02*
G01*
X1390000Y3250799D01*
X1395500Y3265100D02*
G01*
X1400900Y3250799D01*
X1391999Y3255599D02*
G01*
X1398900Y3255599D01*
X1409499Y3265100D02*
G01*
X1407500Y3264499D01*
X1406099Y3262399D01*
X1405399Y3259000D01*
X1405399Y3256999D01*
X1406099Y3253499D01*
X1407500Y3251500D01*
X1409499Y3250799D01*
X1410900Y3250799D01*
X1412899Y3251500D01*
X1414300Y3253499D01*
X1415000Y3256999D01*
X1415000Y3259000D01*
X1414300Y3262399D01*
X1412899Y3264499D01*
X1410900Y3265100D01*
X1409499Y3265100D01*
X1490500Y3265100D02*
G01*
X1485000Y3250799D01*
X1490500Y3265100D02*
G01*
X1495900Y3250799D01*
X1486999Y3255599D02*
G01*
X1493900Y3255599D01*
X1510000Y3265100D02*
G01*
X1503100Y3250799D01*
X1500399Y3265100D02*
G01*
X1510000Y3265100D01*
X1590200Y3256700D02*
G01*
X1589499Y3258099D01*
X1588199Y3259499D01*
X1586800Y3260100D01*
X1584099Y3260100D01*
X1582700Y3259499D01*
X1581400Y3258099D01*
X1580699Y3256700D01*
X1580000Y3254699D01*
X1580000Y3251300D01*
X1580699Y3249200D01*
X1581400Y3247899D01*
X1582700Y3246500D01*
X1584099Y3245799D01*
X1586800Y3245799D01*
X1588199Y3246500D01*
X1589499Y3247899D01*
X1590200Y3249200D01*
X1590200Y3251300D01*
X1586800Y3251300D02*
G01*
X1590200Y3251300D01*
X1594700Y3260100D02*
G01*
X1594700Y3245799D01*
X1594700Y3260100D02*
G01*
X1604300Y3245799D01*
X1604300Y3260100D02*
G01*
X1604300Y3245799D01*
X1608800Y3260100D02*
G01*
X1608800Y3245799D01*
X1608800Y3260100D02*
G01*
X1613500Y3260100D01*
X1615600Y3259499D01*
X1616999Y3258099D01*
X1617600Y3256700D01*
X1618299Y3254699D01*
X1618299Y3251300D01*
X1617600Y3249200D01*
X1616999Y3247899D01*
X1615600Y3246500D01*
X1613500Y3245799D01*
X1608800Y3245799D01*
X1748299Y3090200D02*
G01*
X1746899Y3089499D01*
X1745500Y3088200D01*
X1744899Y3086799D01*
X1744899Y3084099D01*
X1745500Y3082700D01*
X1746899Y3081399D01*
X1748299Y3080700D01*
X1750299Y3080000D01*
X1753699Y3080000D01*
X1755799Y3080700D01*
X1757100Y3081399D01*
X1758500Y3082700D01*
X1759200Y3084099D01*
X1759200Y3086799D01*
X1758500Y3088200D01*
X1757100Y3089499D01*
X1755799Y3090200D01*
X1753699Y3090200D01*
X1753699Y3086799D02*
G01*
X1753699Y3090200D01*
X1744899Y3094699D02*
G01*
X1759200Y3094699D01*
X1744899Y3094699D02*
G01*
X1759200Y3104299D01*
X1744899Y3104299D02*
G01*
X1759200Y3104299D01*
X1744899Y3108800D02*
G01*
X1759200Y3108800D01*
X1744899Y3108800D02*
G01*
X1744899Y3113499D01*
X1745500Y3115599D01*
X1746899Y3116999D01*
X1748299Y3117600D01*
X1750299Y3118299D01*
X1753699Y3118299D01*
X1755799Y3117600D01*
X1757100Y3116999D01*
X1758500Y3115599D01*
X1759200Y3113499D01*
X1759200Y3108800D01*
X1748299Y2985200D02*
G01*
X1746899Y2984499D01*
X1745500Y2983200D01*
X1744899Y2981799D01*
X1744899Y2979099D01*
X1745500Y2977700D01*
X1746899Y2976399D01*
X1748299Y2975700D01*
X1750299Y2975000D01*
X1753699Y2975000D01*
X1755799Y2975700D01*
X1757100Y2976399D01*
X1758500Y2977700D01*
X1759200Y2979099D01*
X1759200Y2981799D01*
X1758500Y2983200D01*
X1757100Y2984499D01*
X1755799Y2985200D01*
X1753699Y2985200D01*
X1753699Y2981799D02*
G01*
X1753699Y2985200D01*
X1744899Y2989699D02*
G01*
X1759200Y2989699D01*
X1744899Y2989699D02*
G01*
X1759200Y2999299D01*
X1744899Y2999299D02*
G01*
X1759200Y2999299D01*
X1744899Y3003800D02*
G01*
X1759200Y3003800D01*
X1744899Y3003800D02*
G01*
X1744899Y3008499D01*
X1745500Y3010599D01*
X1746899Y3011999D01*
X1748299Y3012600D01*
X1750299Y3013299D01*
X1753699Y3013299D01*
X1755799Y3012600D01*
X1757100Y3011999D01*
X1758500Y3010599D01*
X1759200Y3008499D01*
X1759200Y3003800D01*
X1739899Y2870000D02*
G01*
X1754200Y2875500D01*
X1739899Y2880900D02*
G01*
X1754200Y2875500D01*
X1743299Y2895599D02*
G01*
X1741899Y2895000D01*
X1740500Y2893600D01*
X1739899Y2892199D01*
X1739899Y2889499D01*
X1740500Y2888099D01*
X1741899Y2886799D01*
X1743299Y2886100D01*
X1745299Y2885399D01*
X1748699Y2885399D01*
X1750799Y2886100D01*
X1752100Y2886799D01*
X1753500Y2888099D01*
X1754200Y2889499D01*
X1754200Y2892199D01*
X1753500Y2893600D01*
X1752100Y2895000D01*
X1750799Y2895599D01*
X1743299Y2910399D02*
G01*
X1741899Y2909699D01*
X1740500Y2908299D01*
X1739899Y2906999D01*
X1739899Y2904200D01*
X1740500Y2902899D01*
X1741899Y2901500D01*
X1743299Y2900799D01*
X1745299Y2900100D01*
X1748699Y2900100D01*
X1750799Y2900799D01*
X1752100Y2901500D01*
X1753500Y2902899D01*
X1754200Y2904200D01*
X1754200Y2906999D01*
X1753500Y2908299D01*
X1752100Y2909699D01*
X1750799Y2910399D01*
X1739899Y2784800D02*
G01*
X1754200Y2784800D01*
X1739899Y2780000D02*
G01*
X1739899Y2789499D01*
X1739899Y2794000D02*
G01*
X1754200Y2803600D01*
X1739899Y2803600D02*
G01*
X1754200Y2794000D01*
X1739899Y2685000D02*
G01*
X1754200Y2685000D01*
X1739899Y2685000D02*
G01*
X1739899Y2691100D01*
X1740500Y2693200D01*
X1741199Y2693899D01*
X1742600Y2694499D01*
X1743999Y2694499D01*
X1745299Y2693899D01*
X1746000Y2693200D01*
X1746700Y2691100D01*
X1746700Y2685000D01*
X1746700Y2689800D02*
G01*
X1754200Y2694499D01*
X1739899Y2699000D02*
G01*
X1754200Y2708600D01*
X1739899Y2708600D02*
G01*
X1754200Y2699000D01*
X1739899Y2585000D02*
G01*
X1754200Y2585000D01*
X1739899Y2585000D02*
G01*
X1739899Y2589800D01*
X1740500Y2591799D01*
X1741899Y2593200D01*
X1743299Y2593899D01*
X1745299Y2594499D01*
X1748699Y2594499D01*
X1750799Y2593899D01*
X1752100Y2593200D01*
X1753500Y2591799D01*
X1754200Y2589800D01*
X1754200Y2585000D01*
X1739899Y2603800D02*
G01*
X1754200Y2603800D01*
X1739899Y2599000D02*
G01*
X1739899Y2608600D01*
X1739899Y2613099D02*
G01*
X1754200Y2613099D01*
X1739899Y2613099D02*
G01*
X1739899Y2619200D01*
X1740500Y2621300D01*
X1741199Y2621999D01*
X1742600Y2622600D01*
X1743999Y2622600D01*
X1745299Y2621999D01*
X1746000Y2621300D01*
X1746700Y2619200D01*
X1746700Y2613099D01*
X1746700Y2617899D02*
G01*
X1754200Y2622600D01*
X1590000Y2460100D02*
G01*
X1595500Y2445799D01*
X1600900Y2460100D02*
G01*
X1595500Y2445799D01*
X1615600Y2456700D02*
G01*
X1615000Y2458099D01*
X1613599Y2459499D01*
X1612200Y2460100D01*
X1609499Y2460100D01*
X1608100Y2459499D01*
X1606800Y2458099D01*
X1606099Y2456700D01*
X1605399Y2454699D01*
X1605399Y2451300D01*
X1606099Y2449200D01*
X1606800Y2447899D01*
X1608100Y2446500D01*
X1609499Y2445799D01*
X1612200Y2445799D01*
X1613599Y2446500D01*
X1615000Y2447899D01*
X1615600Y2449200D01*
X1630399Y2456700D02*
G01*
X1629700Y2458099D01*
X1628299Y2459499D01*
X1626999Y2460100D01*
X1624200Y2460100D01*
X1622899Y2459499D01*
X1621499Y2458099D01*
X1620799Y2456700D01*
X1620100Y2454699D01*
X1620100Y2451300D01*
X1620799Y2449200D01*
X1621499Y2447899D01*
X1622899Y2446500D01*
X1624200Y2445799D01*
X1626999Y2445799D01*
X1628299Y2446500D01*
X1629700Y2447899D01*
X1630399Y2449200D01*
X1495500Y2455100D02*
G01*
X1490000Y2440799D01*
X1495500Y2455100D02*
G01*
X1500900Y2440799D01*
X1491999Y2445599D02*
G01*
X1498900Y2445599D01*
X1513599Y2453099D02*
G01*
X1512899Y2454499D01*
X1510900Y2455100D01*
X1509499Y2455100D01*
X1507500Y2454499D01*
X1506099Y2452399D01*
X1505399Y2449000D01*
X1505399Y2445599D01*
X1506099Y2442899D01*
X1507500Y2441500D01*
X1509499Y2440799D01*
X1510200Y2440799D01*
X1512200Y2441500D01*
X1513599Y2442899D01*
X1514300Y2444899D01*
X1514300Y2445599D01*
X1513599Y2447600D01*
X1512200Y2449000D01*
X1510200Y2449699D01*
X1509499Y2449699D01*
X1507500Y2449000D01*
X1506099Y2447600D01*
X1505399Y2445599D01*
X1385000Y2455100D02*
G01*
X1385000Y2440799D01*
X1385000Y2455100D02*
G01*
X1389799Y2455100D01*
X1391800Y2454499D01*
X1393199Y2453099D01*
X1393900Y2451700D01*
X1394499Y2449699D01*
X1394499Y2446300D01*
X1393900Y2444200D01*
X1393199Y2442899D01*
X1391800Y2441500D01*
X1389799Y2440799D01*
X1385000Y2440799D01*
X1398999Y2452399D02*
G01*
X1400399Y2453099D01*
X1402500Y2455100D01*
X1402500Y2440799D01*
X1408299Y2455100D02*
G01*
X1415799Y2455100D01*
X1411700Y2449699D01*
X1413800Y2449699D01*
X1415100Y2449000D01*
X1415799Y2448299D01*
X1416499Y2446300D01*
X1416499Y2444899D01*
X1415799Y2442899D01*
X1414499Y2441500D01*
X1412399Y2440799D01*
X1410399Y2440799D01*
X1408299Y2441500D01*
X1407600Y2442199D01*
X1406999Y2443499D01*
X1280000Y2455100D02*
G01*
X1280000Y2440799D01*
X1280000Y2455100D02*
G01*
X1284799Y2455100D01*
X1286800Y2454499D01*
X1288199Y2453099D01*
X1288900Y2451700D01*
X1289499Y2449699D01*
X1289499Y2446300D01*
X1288900Y2444200D01*
X1288199Y2442899D01*
X1286800Y2441500D01*
X1284799Y2440799D01*
X1280000Y2440799D01*
X1293999Y2452399D02*
G01*
X1295399Y2453099D01*
X1297500Y2455100D01*
X1297500Y2440799D01*
X1302600Y2451700D02*
G01*
X1302600Y2452399D01*
X1303299Y2453800D01*
X1303999Y2454499D01*
X1305399Y2455100D01*
X1308100Y2455100D01*
X1309499Y2454499D01*
X1310100Y2453800D01*
X1310799Y2452399D01*
X1310799Y2450999D01*
X1310100Y2449699D01*
X1308800Y2447600D01*
X1301999Y2440799D01*
X1311499Y2440799D01*
X1185000Y2455100D02*
G01*
X1185000Y2440799D01*
X1185000Y2455100D02*
G01*
X1189799Y2455100D01*
X1191800Y2454499D01*
X1193199Y2453099D01*
X1193900Y2451700D01*
X1194499Y2449699D01*
X1194499Y2446300D01*
X1193900Y2444200D01*
X1193199Y2442899D01*
X1191800Y2441500D01*
X1189799Y2440799D01*
X1185000Y2440799D01*
X1198999Y2452399D02*
G01*
X1200399Y2453099D01*
X1202500Y2455100D01*
X1202500Y2440799D01*
X1206999Y2452399D02*
G01*
X1208299Y2453099D01*
X1210399Y2455100D01*
X1210399Y2440799D01*
X1080000Y2450100D02*
G01*
X1080000Y2435799D01*
X1080000Y2450100D02*
G01*
X1084799Y2450100D01*
X1086800Y2449499D01*
X1088199Y2448099D01*
X1088900Y2446700D01*
X1089499Y2444699D01*
X1089499Y2441300D01*
X1088900Y2439200D01*
X1088199Y2437899D01*
X1086800Y2436500D01*
X1084799Y2435799D01*
X1080000Y2435799D01*
X1093999Y2447399D02*
G01*
X1095399Y2448099D01*
X1097500Y2450100D01*
X1097500Y2435799D01*
X1106000Y2450100D02*
G01*
X1103999Y2449499D01*
X1102600Y2447399D01*
X1101999Y2444000D01*
X1101999Y2441999D01*
X1102600Y2438499D01*
X1103999Y2436500D01*
X1106000Y2435799D01*
X1107399Y2435799D01*
X1109499Y2436500D01*
X1110799Y2438499D01*
X1111499Y2441999D01*
X1111499Y2444000D01*
X1110799Y2447399D01*
X1109499Y2449499D01*
X1107399Y2450100D01*
X1106000Y2450100D01*
X990000Y2450100D02*
G01*
X990000Y2435799D01*
X990000Y2450100D02*
G01*
X994799Y2450100D01*
X996800Y2449499D01*
X998199Y2448099D01*
X998900Y2446700D01*
X999499Y2444699D01*
X999499Y2441300D01*
X998900Y2439200D01*
X998199Y2437899D01*
X996800Y2436500D01*
X994799Y2435799D01*
X990000Y2435799D01*
X1012899Y2445399D02*
G01*
X1012200Y2443299D01*
X1010900Y2441999D01*
X1008800Y2441300D01*
X1008100Y2441300D01*
X1006099Y2441999D01*
X1004700Y2443299D01*
X1003999Y2445399D01*
X1003999Y2445999D01*
X1004700Y2448099D01*
X1006099Y2449499D01*
X1008100Y2450100D01*
X1008800Y2450100D01*
X1010900Y2449499D01*
X1012200Y2448099D01*
X1012899Y2445399D01*
X1012899Y2441999D01*
X1012200Y2438499D01*
X1010900Y2436500D01*
X1008800Y2435799D01*
X1007500Y2435799D01*
X1005399Y2436500D01*
X1004700Y2437899D01*
X890000Y2455100D02*
G01*
X890000Y2440799D01*
X890000Y2455100D02*
G01*
X894799Y2455100D01*
X896800Y2454499D01*
X898199Y2453099D01*
X898900Y2451700D01*
X899499Y2449699D01*
X899499Y2446300D01*
X898900Y2444200D01*
X898199Y2442899D01*
X896800Y2441500D01*
X894799Y2440799D01*
X890000Y2440799D01*
X907500Y2455100D02*
G01*
X905399Y2454499D01*
X904700Y2453099D01*
X904700Y2451700D01*
X905399Y2450399D01*
X906800Y2449699D01*
X909499Y2449000D01*
X911499Y2448299D01*
X912899Y2446999D01*
X913599Y2445599D01*
X913599Y2443499D01*
X912899Y2442199D01*
X912200Y2441500D01*
X910200Y2440799D01*
X907500Y2440799D01*
X905399Y2441500D01*
X904700Y2442199D01*
X903999Y2443499D01*
X903999Y2445599D01*
X904700Y2446999D01*
X906099Y2448299D01*
X908100Y2449000D01*
X910900Y2449699D01*
X912200Y2450399D01*
X912899Y2451700D01*
X912899Y2453099D01*
X912200Y2454499D01*
X910200Y2455100D01*
X907500Y2455100D01*
X790000Y2455100D02*
G01*
X790000Y2440799D01*
X790000Y2455100D02*
G01*
X794799Y2455100D01*
X796800Y2454499D01*
X798199Y2453099D01*
X798900Y2451700D01*
X799499Y2449699D01*
X799499Y2446300D01*
X798900Y2444200D01*
X798199Y2442899D01*
X796800Y2441500D01*
X794799Y2440799D01*
X790000Y2440799D01*
X813599Y2455100D02*
G01*
X806800Y2440799D01*
X803999Y2455100D02*
G01*
X813599Y2455100D01*
X690000Y2455100D02*
G01*
X690000Y2440799D01*
X690000Y2455100D02*
G01*
X694800Y2455100D01*
X696799Y2454499D01*
X698200Y2453099D01*
X698899Y2451700D01*
X699499Y2449699D01*
X699499Y2446300D01*
X698899Y2444200D01*
X698200Y2442899D01*
X696799Y2441500D01*
X694800Y2440799D01*
X690000Y2440799D01*
X712199Y2453099D02*
G01*
X711500Y2454499D01*
X709499Y2455100D01*
X708099Y2455100D01*
X706100Y2454499D01*
X704699Y2452399D01*
X704000Y2449000D01*
X704000Y2445599D01*
X704699Y2442899D01*
X706100Y2441500D01*
X708099Y2440799D01*
X708800Y2440799D01*
X710900Y2441500D01*
X712199Y2442899D01*
X712899Y2444899D01*
X712899Y2445599D01*
X712199Y2447600D01*
X710900Y2449000D01*
X708800Y2449699D01*
X708099Y2449699D01*
X706100Y2449000D01*
X704699Y2447600D01*
X704000Y2445599D01*
X595000Y2455100D02*
G01*
X595000Y2440799D01*
X595000Y2455100D02*
G01*
X599800Y2455100D01*
X601799Y2454499D01*
X603200Y2453099D01*
X603899Y2451700D01*
X604499Y2449699D01*
X604499Y2446300D01*
X603899Y2444200D01*
X603200Y2442899D01*
X601799Y2441500D01*
X599800Y2440799D01*
X595000Y2440799D01*
X617199Y2455100D02*
G01*
X610399Y2455100D01*
X609699Y2449000D01*
X610399Y2449699D01*
X612500Y2450399D01*
X614499Y2450399D01*
X616500Y2449699D01*
X617899Y2448299D01*
X618600Y2446300D01*
X618600Y2444899D01*
X617899Y2442899D01*
X616500Y2441500D01*
X614499Y2440799D01*
X612500Y2440799D01*
X610399Y2441500D01*
X609699Y2442199D01*
X609000Y2443499D01*
X505199Y2451700D02*
G01*
X504499Y2453099D01*
X503200Y2454499D01*
X501799Y2455100D01*
X499099Y2455100D01*
X497699Y2454499D01*
X496399Y2453099D01*
X495700Y2451700D01*
X495000Y2449699D01*
X495000Y2446300D01*
X495700Y2444200D01*
X496399Y2442899D01*
X497699Y2441500D01*
X499099Y2440799D01*
X501799Y2440799D01*
X503200Y2441500D01*
X504499Y2442899D01*
X505199Y2444200D01*
X505199Y2446300D01*
X501799Y2446300D02*
G01*
X505199Y2446300D01*
X509699Y2455100D02*
G01*
X509699Y2440799D01*
X509699Y2455100D02*
G01*
X519299Y2440799D01*
X519299Y2455100D02*
G01*
X519299Y2440799D01*
X523800Y2455100D02*
G01*
X523800Y2440799D01*
X523800Y2455100D02*
G01*
X528499Y2455100D01*
X530599Y2454499D01*
X531999Y2453099D01*
X532600Y2451700D01*
X533299Y2449699D01*
X533299Y2446300D01*
X532600Y2444200D01*
X531999Y2442899D01*
X530599Y2441500D01*
X528499Y2440799D01*
X523800Y2440799D01*
X380000Y2455100D02*
G01*
X385500Y2440799D01*
X390900Y2455100D02*
G01*
X385500Y2440799D01*
X405599Y2451700D02*
G01*
X405000Y2453099D01*
X403600Y2454499D01*
X402199Y2455100D01*
X399499Y2455100D01*
X398099Y2454499D01*
X396799Y2453099D01*
X396100Y2451700D01*
X395399Y2449699D01*
X395399Y2446300D01*
X396100Y2444200D01*
X396799Y2442899D01*
X398099Y2441500D01*
X399499Y2440799D01*
X402199Y2440799D01*
X403600Y2441500D01*
X405000Y2442899D01*
X405599Y2444200D01*
X420399Y2451700D02*
G01*
X419699Y2453099D01*
X418299Y2454499D01*
X416999Y2455100D01*
X414200Y2455100D01*
X412899Y2454499D01*
X411500Y2453099D01*
X410799Y2451700D01*
X410100Y2449699D01*
X410100Y2446300D01*
X410799Y2444200D01*
X411500Y2442899D01*
X412899Y2441500D01*
X414200Y2440799D01*
X416999Y2440799D01*
X418299Y2441500D01*
X419699Y2442899D01*
X420399Y2444200D01*
D26*
X350929Y2808600D02*
G01*
X350929Y2784800D01*
X350929Y2808600D02*
G01*
X361228Y2808600D01*
X364628Y2807500D01*
X365729Y2806399D01*
X366828Y2804099D01*
X366828Y2801799D01*
X365729Y2799499D01*
X364628Y2798400D01*
X361228Y2797300D01*
X350929Y2797300D01*
X358928Y2797300D02*
G01*
X366828Y2784800D01*
X374328Y2804099D02*
G01*
X376628Y2805200D01*
X380028Y2808600D01*
X380028Y2784800D01*
X366999Y3154499D02*
G01*
X365900Y3156799D01*
X363600Y3159099D01*
X361399Y3160200D01*
X356799Y3160200D01*
X354499Y3159099D01*
X352300Y3156799D01*
X351100Y3154499D01*
X350000Y3151100D01*
X350000Y3145500D01*
X351100Y3141999D01*
X352300Y3139800D01*
X354499Y3137500D01*
X356799Y3136399D01*
X361399Y3136399D01*
X363600Y3137500D01*
X365900Y3139800D01*
X366999Y3141999D01*
X374499Y3155700D02*
G01*
X376799Y3156799D01*
X380199Y3160200D01*
X380199Y3136399D01*
X706999Y3099499D02*
G01*
X705900Y3101799D01*
X703600Y3104099D01*
X701399Y3105200D01*
X696799Y3105200D01*
X694499Y3104099D01*
X692300Y3101799D01*
X691100Y3099499D01*
X690000Y3096100D01*
X690000Y3090500D01*
X691100Y3086999D01*
X692300Y3084800D01*
X694499Y3082500D01*
X696799Y3081399D01*
X701399Y3081399D01*
X703600Y3082500D01*
X705900Y3084800D01*
X706999Y3086999D01*
X715700Y3099499D02*
G01*
X715700Y3100700D01*
X716799Y3103000D01*
X718000Y3104099D01*
X720199Y3105200D01*
X724800Y3105200D01*
X726999Y3104099D01*
X728200Y3103000D01*
X729299Y3100700D01*
X729299Y3098400D01*
X728200Y3096100D01*
X725900Y3092700D01*
X714499Y3081399D01*
X730500Y3081399D01*
X337065Y2679499D02*
G01*
X335866Y2681799D01*
X333665Y2684099D01*
X331365Y2685200D01*
X326866Y2685200D01*
X324565Y2684099D01*
X322265Y2681799D01*
X321165Y2679499D01*
X319965Y2676100D01*
X319965Y2670500D01*
X321165Y2666999D01*
X322265Y2664800D01*
X324565Y2662500D01*
X326866Y2661399D01*
X331365Y2661399D01*
X333665Y2662500D01*
X335866Y2664800D01*
X337065Y2666999D01*
X346866Y2685200D02*
G01*
X359366Y2685200D01*
X352465Y2676100D01*
X355866Y2676100D01*
X358166Y2675000D01*
X359366Y2673899D01*
X360466Y2670500D01*
X360466Y2668200D01*
X359366Y2664800D01*
X357065Y2662500D01*
X353665Y2661399D01*
X350266Y2661399D01*
X346866Y2662500D01*
X345666Y2663600D01*
X344565Y2665900D01*
X462065Y2679499D02*
G01*
X460866Y2681799D01*
X458665Y2684099D01*
X456365Y2685200D01*
X451866Y2685200D01*
X449565Y2684099D01*
X447265Y2681799D01*
X446165Y2679499D01*
X444965Y2676100D01*
X444965Y2670500D01*
X446165Y2666999D01*
X447265Y2664800D01*
X449565Y2662500D01*
X451866Y2661399D01*
X456365Y2661399D01*
X458665Y2662500D01*
X460866Y2664800D01*
X462065Y2666999D01*
X480866Y2685200D02*
G01*
X469565Y2669299D01*
X486565Y2669299D01*
X480866Y2685200D02*
G01*
X480866Y2661399D01*
X582065Y2679499D02*
G01*
X580866Y2681799D01*
X578665Y2684099D01*
X576365Y2685200D01*
X571866Y2685200D01*
X569565Y2684099D01*
X567265Y2681799D01*
X566165Y2679499D01*
X564965Y2676100D01*
X564965Y2670500D01*
X566165Y2666999D01*
X567265Y2664800D01*
X569565Y2662500D01*
X571866Y2661399D01*
X576365Y2661399D01*
X578665Y2662500D01*
X580866Y2664800D01*
X582065Y2666999D01*
X603166Y2685200D02*
G01*
X591866Y2685200D01*
X590666Y2675000D01*
X591866Y2676100D01*
X595266Y2677300D01*
X598665Y2677300D01*
X602065Y2676100D01*
X604366Y2673899D01*
X605466Y2670500D01*
X605466Y2668200D01*
X604366Y2664800D01*
X602065Y2662500D01*
X598665Y2661399D01*
X595266Y2661399D01*
X591866Y2662500D01*
X590666Y2663600D01*
X589565Y2665900D01*
X1462726Y2912899D02*
G01*
X1461526Y2915200D01*
X1459326Y2917500D01*
X1457025Y2918600D01*
X1452525Y2918600D01*
X1450226Y2917500D01*
X1447925Y2915200D01*
X1446826Y2912899D01*
X1445626Y2909499D01*
X1445626Y2903899D01*
X1446826Y2900399D01*
X1447925Y2898200D01*
X1450226Y2895900D01*
X1452525Y2894800D01*
X1457025Y2894800D01*
X1459326Y2895900D01*
X1461526Y2898200D01*
X1462726Y2900399D01*
X1483825Y2915200D02*
G01*
X1482726Y2917500D01*
X1479326Y2918600D01*
X1477025Y2918600D01*
X1473626Y2917500D01*
X1471325Y2914099D01*
X1470226Y2908400D01*
X1470226Y2902700D01*
X1471325Y2898200D01*
X1473626Y2895900D01*
X1477025Y2894800D01*
X1478126Y2894800D01*
X1481526Y2895900D01*
X1483825Y2898200D01*
X1485025Y2901599D01*
X1485025Y2902700D01*
X1483825Y2906100D01*
X1481526Y2908400D01*
X1478126Y2909499D01*
X1477025Y2909499D01*
X1473626Y2908400D01*
X1471325Y2906100D01*
X1470226Y2902700D01*
X1372066Y2774499D02*
G01*
X1370865Y2776799D01*
X1368666Y2779099D01*
X1366365Y2780200D01*
X1361866Y2780200D01*
X1359566Y2779099D01*
X1357265Y2776799D01*
X1356166Y2774499D01*
X1354966Y2771100D01*
X1354966Y2765500D01*
X1356166Y2761999D01*
X1357265Y2759800D01*
X1359566Y2757500D01*
X1361866Y2756399D01*
X1366365Y2756399D01*
X1368666Y2757500D01*
X1370865Y2759800D01*
X1372066Y2761999D01*
X1395465Y2780200D02*
G01*
X1384066Y2756399D01*
X1379566Y2780200D02*
G01*
X1395465Y2780200D01*
X1597066Y2879499D02*
G01*
X1595865Y2881799D01*
X1593666Y2884099D01*
X1591365Y2885200D01*
X1586866Y2885200D01*
X1584566Y2884099D01*
X1582265Y2881799D01*
X1581166Y2879499D01*
X1579966Y2876100D01*
X1579966Y2870500D01*
X1581166Y2866999D01*
X1582265Y2864800D01*
X1584566Y2862500D01*
X1586866Y2861399D01*
X1591365Y2861399D01*
X1593666Y2862500D01*
X1595865Y2864800D01*
X1597066Y2866999D01*
X1610266Y2885200D02*
G01*
X1606866Y2884099D01*
X1605666Y2881799D01*
X1605666Y2879499D01*
X1606866Y2877300D01*
X1609066Y2876100D01*
X1613666Y2875000D01*
X1617066Y2873899D01*
X1619366Y2871599D01*
X1620465Y2869299D01*
X1620465Y2865900D01*
X1619366Y2863600D01*
X1618166Y2862500D01*
X1614765Y2861399D01*
X1610266Y2861399D01*
X1606866Y2862500D01*
X1605666Y2863600D01*
X1604566Y2865900D01*
X1604566Y2869299D01*
X1605666Y2871599D01*
X1607965Y2873899D01*
X1611365Y2875000D01*
X1615865Y2876100D01*
X1618166Y2877300D01*
X1619366Y2879499D01*
X1619366Y2881799D01*
X1618166Y2884099D01*
X1614765Y2885200D01*
X1610266Y2885200D01*
X549953Y2825200D02*
G01*
X549953Y2801399D01*
X549953Y2801399D02*
G01*
X563652Y2801399D01*
X571152Y2825200D02*
G01*
X571152Y2801399D01*
X571152Y2825200D02*
G01*
X585952Y2825200D01*
X571152Y2813899D02*
G01*
X580252Y2813899D01*
X571152Y2801399D02*
G01*
X585952Y2801399D01*
X593452Y2825200D02*
G01*
X593452Y2801399D01*
X593452Y2825200D02*
G01*
X601352Y2825200D01*
X604753Y2824099D01*
X607053Y2821799D01*
X608153Y2819499D01*
X609353Y2816100D01*
X609353Y2810500D01*
X608153Y2806999D01*
X607053Y2804800D01*
X604753Y2802500D01*
X601352Y2801399D01*
X593452Y2801399D01*
X616853Y2820700D02*
G01*
X619052Y2821799D01*
X622453Y2825200D01*
X622453Y2801399D01*
X1469952Y2530200D02*
G01*
X1469952Y2506399D01*
X1469952Y2506399D02*
G01*
X1483653Y2506399D01*
X1491153Y2530200D02*
G01*
X1491153Y2506399D01*
X1491153Y2530200D02*
G01*
X1505952Y2530200D01*
X1491153Y2518899D02*
G01*
X1500253Y2518899D01*
X1491153Y2506399D02*
G01*
X1505952Y2506399D01*
X1513452Y2530200D02*
G01*
X1513452Y2506399D01*
X1513452Y2530200D02*
G01*
X1521352Y2530200D01*
X1524753Y2529099D01*
X1527052Y2526799D01*
X1528153Y2524499D01*
X1529353Y2521100D01*
X1529353Y2515500D01*
X1528153Y2511999D01*
X1527052Y2509800D01*
X1524753Y2507500D01*
X1521352Y2506399D01*
X1513452Y2506399D01*
X1537952Y2524499D02*
G01*
X1537952Y2525700D01*
X1539053Y2528000D01*
X1540253Y2529099D01*
X1542452Y2530200D01*
X1547052Y2530200D01*
X1549353Y2529099D01*
X1550452Y2528000D01*
X1551553Y2525700D01*
X1551553Y2523400D01*
X1550452Y2521100D01*
X1548153Y2517700D01*
X1536853Y2506399D01*
X1552753Y2506399D01*
X924969Y3210200D02*
G01*
X924969Y3186399D01*
X924969Y3210200D02*
G01*
X935268Y3210200D01*
X938668Y3209099D01*
X939768Y3208000D01*
X940869Y3205700D01*
X940869Y3203400D01*
X939768Y3201100D01*
X938668Y3200000D01*
X935268Y3198899D01*
X924969Y3198899D01*
X932969Y3198899D02*
G01*
X940869Y3186399D01*
X949569Y3204499D02*
G01*
X949569Y3205700D01*
X950668Y3208000D01*
X951769Y3209099D01*
X954068Y3210200D01*
X958668Y3210200D01*
X960869Y3209099D01*
X962069Y3208000D01*
X963168Y3205700D01*
X963168Y3203400D01*
X962069Y3201100D01*
X959768Y3197700D01*
X948369Y3186399D01*
X964269Y3186399D01*
X1154969Y3190200D02*
G01*
X1154969Y3166399D01*
X1154969Y3190200D02*
G01*
X1165268Y3190200D01*
X1168668Y3189099D01*
X1169768Y3188000D01*
X1170869Y3185700D01*
X1170869Y3183400D01*
X1169768Y3181100D01*
X1168668Y3180000D01*
X1165268Y3178899D01*
X1154969Y3178899D01*
X1162969Y3178899D02*
G01*
X1170869Y3166399D01*
X1180668Y3190200D02*
G01*
X1193168Y3190200D01*
X1186369Y3181100D01*
X1189768Y3181100D01*
X1192069Y3180000D01*
X1193168Y3178899D01*
X1194269Y3175500D01*
X1194269Y3173200D01*
X1193168Y3169800D01*
X1190869Y3167500D01*
X1187469Y3166399D01*
X1184068Y3166399D01*
X1180668Y3167500D01*
X1179569Y3168600D01*
X1178369Y3170900D01*
X1309964Y2735200D02*
G01*
X1309964Y2711399D01*
X1309964Y2735200D02*
G01*
X1320263Y2735200D01*
X1323663Y2734099D01*
X1324763Y2733000D01*
X1325864Y2730700D01*
X1325864Y2728400D01*
X1324763Y2726100D01*
X1323663Y2725000D01*
X1320263Y2723899D01*
X1309964Y2723899D01*
X1317964Y2723899D02*
G01*
X1325864Y2711399D01*
X1347064Y2735200D02*
G01*
X1335663Y2735200D01*
X1334564Y2725000D01*
X1335663Y2726100D01*
X1339063Y2727300D01*
X1342464Y2727300D01*
X1345864Y2726100D01*
X1348163Y2723899D01*
X1349363Y2720500D01*
X1349363Y2718200D01*
X1348163Y2714800D01*
X1345864Y2712500D01*
X1342464Y2711399D01*
X1339063Y2711399D01*
X1335663Y2712500D01*
X1334564Y2713600D01*
X1333364Y2715900D01*
X1511521Y3194014D02*
G01*
X1511521Y3197267D01*
X1509894Y3200450D01*
X1506711Y3203631D01*
X1503530Y3205257D01*
X1500277Y3205257D01*
X1498650Y3203631D01*
X1497872Y3201298D01*
X1497872Y3199600D01*
X1498650Y3197267D01*
X1501832Y3190832D01*
X1502682Y3188429D01*
X1502753Y3186801D01*
X1501904Y3184398D01*
X1499499Y3181993D01*
X1496247Y3181993D01*
X1493064Y3183620D01*
X1489882Y3186801D01*
X1488257Y3189983D01*
X1488257Y3193236D01*
X1519228Y3191116D02*
G01*
X1506428Y3170255D01*
X1527289Y3183054D02*
G01*
X1506428Y3170255D01*
X1527289Y3183054D02*
G01*
X1514420Y3162265D01*
X1535279Y3175064D02*
G01*
X1514420Y3162265D01*
X1537400Y3166579D02*
G01*
X1539804Y3165731D01*
X1544612Y3165731D01*
X1527784Y3148901D01*
X330000Y3070399D02*
G01*
X330000Y3039699D01*
X331999Y3033600D01*
X336100Y3029499D01*
X342300Y3027500D01*
X346399Y3027500D01*
X352500Y3029499D01*
X356599Y3033600D01*
X358600Y3039699D01*
X358600Y3070399D01*
X372100Y3062199D02*
G01*
X376199Y3064299D01*
X382399Y3070399D01*
X382399Y3027500D01*
X940000Y3085200D02*
G01*
X940000Y3068200D01*
X941099Y3064800D01*
X943400Y3062500D01*
X946800Y3061399D01*
X949099Y3061399D01*
X952500Y3062500D01*
X954799Y3064800D01*
X955900Y3068200D01*
X955900Y3085200D01*
X964499Y3079499D02*
G01*
X964499Y3080700D01*
X965699Y3083000D01*
X966800Y3084099D01*
X969099Y3085200D01*
X973599Y3085200D01*
X975900Y3084099D01*
X976999Y3083000D01*
X978199Y3080700D01*
X978199Y3078400D01*
X976999Y3076100D01*
X974799Y3072700D01*
X963400Y3061399D01*
X979300Y3061399D01*
X785000Y2850210D02*
G01*
X800900Y2826410D01*
X800900Y2850210D02*
G01*
X785000Y2826410D01*
X808400Y2845709D02*
G01*
X810699Y2846810D01*
X814099Y2850210D01*
X814099Y2826410D01*
X1525000Y2705200D02*
G01*
X1525000Y2681399D01*
X1525000Y2705200D02*
G01*
X1535200Y2705200D01*
X1538599Y2704099D01*
X1539799Y2703000D01*
X1540900Y2700700D01*
X1540900Y2698400D01*
X1539799Y2696100D01*
X1538599Y2695000D01*
X1535200Y2693899D01*
X1525000Y2693899D01*
X1533000Y2693899D02*
G01*
X1540900Y2681399D01*
X1561999Y2701799D02*
G01*
X1560900Y2704099D01*
X1557500Y2705200D01*
X1555200Y2705200D01*
X1551800Y2704099D01*
X1549499Y2700700D01*
X1548400Y2695000D01*
X1548400Y2689299D01*
X1549499Y2684800D01*
X1551800Y2682500D01*
X1555200Y2681399D01*
X1556400Y2681399D01*
X1559799Y2682500D01*
X1561999Y2684800D01*
X1563199Y2688200D01*
X1563199Y2689299D01*
X1561999Y2692700D01*
X1559799Y2695000D01*
X1556400Y2696100D01*
X1555200Y2696100D01*
X1551800Y2695000D01*
X1549499Y2692700D01*
X1548400Y2689299D01*
G36*
X563000Y3187500D02*
G01*
X563000Y3181520D01*
X581000Y3181520D01*
X581000Y3187500D01*
G37*
G36*
X563000Y3118480D02*
G01*
X563000Y3112500D01*
X581000Y3112500D01*
X581000Y3118480D01*
G37*
G36*
X741520Y2907000D02*
G01*
X741520Y2889000D01*
X747500Y2889000D01*
X747500Y2907000D01*
G37*
G36*
X672500Y2907000D02*
G01*
X672500Y2889000D01*
X678480Y2889000D01*
X678480Y2907000D01*
G37*
X353220Y2776008D02*
G01*
X315468Y2776008D01*
X315468Y2723991D01*
X353220Y2723991D01*
X386779Y2776008D02*
G01*
X424531Y2776008D01*
X424531Y2723991D01*
X386779Y2723991D01*
X434009Y3184497D02*
G01*
X565990Y3184497D01*
X434009Y3115502D02*
G01*
X565990Y3115502D01*
X523791Y3184497D02*
G01*
X523791Y3115502D01*
X744497Y3035990D02*
G01*
X744497Y2904009D01*
X675502Y3035990D02*
G01*
X675502Y2904009D01*
X744497Y2946208D02*
G01*
X675502Y2946208D01*
D10*
X324261Y2644724D02*
G01*
X355758Y2644724D01*
X312062Y2601033D02*
G01*
X312062Y2632528D01*
X367953Y2601033D02*
G01*
X367953Y2632528D01*
X311833Y2578361D02*
G01*
X311833Y2546864D01*
X324030Y2534666D02*
G01*
X355525Y2534666D01*
X367723Y2578361D02*
G01*
X367723Y2546864D01*
X475738Y2535275D02*
G01*
X444241Y2535275D01*
X487937Y2578966D02*
G01*
X487937Y2547471D01*
X432046Y2578966D02*
G01*
X432046Y2547471D01*
X488166Y2601639D02*
G01*
X488166Y2633135D01*
X475969Y2645333D02*
G01*
X444474Y2645333D01*
X432276Y2601639D02*
G01*
X432276Y2633135D01*
X600738Y2535275D02*
G01*
X569241Y2535275D01*
X612937Y2578966D02*
G01*
X612937Y2547471D01*
X557046Y2578966D02*
G01*
X557046Y2547471D01*
X613166Y2601639D02*
G01*
X613166Y2633135D01*
X600969Y2645333D02*
G01*
X569474Y2645333D01*
X557276Y2601639D02*
G01*
X557276Y2633135D01*
X1405275Y2839261D02*
G01*
X1405275Y2870758D01*
X1448966Y2827062D02*
G01*
X1417470Y2827062D01*
X1448966Y2882953D02*
G01*
X1417470Y2882953D01*
X1471638Y2826833D02*
G01*
X1503135Y2826833D01*
X1515333Y2839031D02*
G01*
X1515333Y2870526D01*
X1471638Y2882723D02*
G01*
X1503135Y2882723D01*
X1405275Y2759261D02*
G01*
X1405275Y2790758D01*
X1448966Y2747062D02*
G01*
X1417470Y2747062D01*
X1448966Y2802953D02*
G01*
X1417470Y2802953D01*
X1471638Y2746833D02*
G01*
X1503135Y2746833D01*
X1515333Y2759031D02*
G01*
X1515333Y2790526D01*
X1471638Y2802723D02*
G01*
X1503135Y2802723D01*
X1620739Y2740275D02*
G01*
X1589242Y2740275D01*
X1632938Y2783966D02*
G01*
X1632938Y2752471D01*
X1577046Y2783966D02*
G01*
X1577046Y2752471D01*
X1633167Y2806639D02*
G01*
X1633167Y2838135D01*
X1620968Y2850333D02*
G01*
X1589474Y2850333D01*
X1577277Y2806639D02*
G01*
X1577277Y2838135D01*
X515318Y2712597D02*
G01*
X457046Y2712204D01*
X509803Y2787008D02*
G01*
X457046Y2787008D01*
X457046Y2712204D02*
G01*
X457046Y2787008D01*
X603901Y2787402D02*
G01*
X603901Y2787399D01*
X617678Y2773622D01*
X603901Y2712597D02*
G01*
X603901Y2712600D01*
X617678Y2726377D01*
X554688Y2712597D02*
G01*
X603901Y2712597D01*
X554688Y2787402D02*
G01*
X603901Y2787402D01*
X617678Y2726377D02*
G01*
X617678Y2773622D01*
X523189Y2730315D02*
G01*
X523189Y2769684D01*
X523189Y2750198D02*
G01*
X542874Y2750198D01*
X1490317Y2547597D02*
G01*
X1432047Y2547204D01*
X1484803Y2622008D02*
G01*
X1432047Y2622008D01*
X1432047Y2547204D02*
G01*
X1432047Y2622008D01*
X1578901Y2622402D02*
G01*
X1578901Y2622399D01*
X1592678Y2608622D01*
X1578901Y2547597D02*
G01*
X1578901Y2547600D01*
X1592678Y2561377D01*
X1529687Y2547597D02*
G01*
X1578901Y2547597D01*
X1529687Y2622402D02*
G01*
X1578901Y2622402D01*
X1592678Y2561377D02*
G01*
X1592678Y2608622D01*
X1498189Y2565315D02*
G01*
X1498189Y2604684D01*
X1498189Y2585198D02*
G01*
X1517874Y2585198D01*
D26*
X1026008Y3206779D02*
G01*
X1026008Y3244531D01*
X973991Y3244531D01*
X973991Y3206779D01*
X1026008Y3173220D02*
G01*
X1026008Y3135468D01*
X973991Y3135468D01*
X973991Y3173220D01*
X1146008Y3196779D02*
G01*
X1146008Y3234531D01*
X1093991Y3234531D01*
X1093991Y3196779D01*
X1146008Y3163220D02*
G01*
X1146008Y3125468D01*
X1093991Y3125468D01*
X1093991Y3163220D01*
X1366105Y2648748D02*
G01*
X1366105Y2699335D01*
X1293894Y2699335D01*
X1293894Y2648748D01*
X1366105Y2611251D02*
G01*
X1366105Y2560664D01*
X1293894Y2560664D01*
X1293894Y2611251D01*
D10*
X1422273Y3182993D02*
G01*
X1475164Y3130102D01*
X1475164Y3079897D01*
X1425101Y3029834D01*
X1369381Y3029834D01*
X1322076Y3077139D01*
X1322076Y3127345D01*
X1377726Y3182993D01*
X1422273Y3182993D01*
X1506490Y3140497D02*
G01*
X1506490Y3090661D01*
X1503519Y3066532D02*
G01*
X1438467Y3001480D01*
X1414339Y2998510D02*
G01*
X1364503Y2998510D01*
X1361532Y3208519D02*
G01*
X1296480Y3143467D01*
X1293509Y3119339D02*
G01*
X1293509Y3069502D01*
X1435496Y3211489D02*
G01*
X1385661Y3211489D01*
X1293509Y3069502D02*
G01*
X1364503Y2998510D01*
X1435496Y3211489D02*
G01*
X1506490Y3140497D01*
D26*
X415023Y2811093D02*
G01*
X415023Y3078906D01*
X524976Y3078906D01*
X524976Y2811093D01*
X415023Y2811093D01*
D10*
X1231139Y3006640D02*
G01*
X998860Y3006640D01*
X998860Y2774360D01*
X1231139Y2774360D01*
X1231139Y3006640D01*
D27*
X705000Y2690005D02*
G01*
X705000Y2670005D01*
X725000Y2670005D01*
D26*
X715100Y2678910D02*
G01*
X715100Y2810010D01*
X875000Y2810005D01*
X875000Y2745005D01*
X875000Y2680005D01*
X875000Y2680005D01*
X715100Y2678910D01*
X1443220Y2721008D02*
G01*
X1405469Y2721008D01*
X1405469Y2668991D01*
X1443220Y2668991D01*
X1476779Y2721008D02*
G01*
X1514530Y2721008D01*
X1514530Y2668991D01*
X1476779Y2668991D01*
D10*
G75*
G01*
X324031Y2534665D02*
G02*
X311833Y2546863I0J12198D01*
G75*
G01*
X367725Y2546863D02*
G02*
X355526Y2534665I-12198J0D01*
G75*
G01*
X312062Y2632527D02*
G02*
X324261Y2644725I12198J0D01*
G75*
G01*
X355756Y2644725D02*
G02*
X367954Y2632527I0J-12198D01*
G75*
G01*
X475969Y2645335D02*
G02*
X488167Y2633137I0J-12198D01*
G75*
G01*
X432275Y2633137D02*
G02*
X444474Y2645335I12198J0D01*
G75*
G01*
X487938Y2547473D02*
G02*
X475739Y2535275I-12198J0D01*
G75*
G01*
X444244Y2535275D02*
G02*
X432046Y2547473I0J12198D01*
G75*
G01*
X600969Y2645335D02*
G02*
X613167Y2633137I0J-12198D01*
G75*
G01*
X557275Y2633137D02*
G02*
X569474Y2645335I12198J0D01*
G75*
G01*
X612938Y2547473D02*
G02*
X600739Y2535275I-12198J0D01*
G75*
G01*
X569244Y2535275D02*
G02*
X557046Y2547473I0J12198D01*
G75*
G01*
X1515335Y2839031D02*
G02*
X1503137Y2826833I-12198J0D01*
G75*
G01*
X1503137Y2882725D02*
G02*
X1515335Y2870526I0J-12198D01*
G75*
G01*
X1417473Y2827062D02*
G02*
X1405275Y2839261I0J12198D01*
G75*
G01*
X1405275Y2870756D02*
G02*
X1417473Y2882954I12198J0D01*
G75*
G01*
X1515335Y2759031D02*
G02*
X1503137Y2746833I-12198J0D01*
G75*
G01*
X1503137Y2802725D02*
G02*
X1515335Y2790526I0J-12198D01*
G75*
G01*
X1417473Y2747062D02*
G02*
X1405275Y2759261I0J12198D01*
G75*
G01*
X1405275Y2790756D02*
G02*
X1417473Y2802954I12198J0D01*
G75*
G01*
X1620969Y2850335D02*
G02*
X1633167Y2838137I0J-12198D01*
G75*
G01*
X1577275Y2838137D02*
G02*
X1589474Y2850335I12198J0D01*
G75*
G01*
X1632938Y2752473D02*
G02*
X1620739Y2740275I-12198J0D01*
G75*
G01*
X1589244Y2740275D02*
G02*
X1577046Y2752473I0J12198D01*
D28*
G75*
G01*
X955000Y3038000D02*
G03*
X955000Y3037900I-5906J-50D01*
D29*
G75*
G01*
X1036300Y2977100D02*
G03*
X1036300Y2977000I-7874J-50D01*
D10*
G75*
G01
X1450200Y3105000D02*
G03X1450200Y3105000I-50200J0D01*
M02*
